<svg width="832" height="173" viewBox="0 0 832 173" fill="none" xmlns="http://www.w3.org/2000/svg">
<rect width="832" height="173" fill="white"/>
<path d="M158.707 97.7071C159.098 97.3166 159.098 96.6834 158.707 96.2929L152.343 89.9289C151.953 89.5384 151.319 89.5384 150.929 89.9289C150.538 90.3195 150.538 90.9526 150.929 91.3431L156.586 97L150.929 102.657C150.538 103.047 150.538 103.681 150.929 104.071C151.319 104.462 151.953 104.462 152.343 104.071L158.707 97.7071ZM108 98H158V96H108V98Z" fill="black"/>
<path d="M161 64C161 61.2386 163.239 59 166 59H264C266.761 59 269 61.2386 269 64V129C269 131.761 266.761 134 264 134H166C163.239 134 161 131.761 161 129V64Z" fill="#8DA0CB"/>
<path d="M181.897 80.6313C181.897 81.3979 181.836 82.1157 181.714 82.7847C181.592 83.4487 181.399 84.0347 181.136 84.5425C180.877 85.0454 180.535 85.4385 180.11 85.7217C179.686 86.0049 179.17 86.1465 178.565 86.1465C177.95 86.1465 177.427 86.0024 176.998 85.7144C176.568 85.4214 176.221 85.021 175.958 84.5132C175.699 84.0054 175.508 83.417 175.386 82.748C175.269 82.0791 175.21 81.3687 175.21 80.6167C175.21 79.396 175.335 78.3804 175.584 77.5698C175.838 76.7593 176.214 76.1514 176.712 75.7461C177.21 75.3408 177.828 75.1382 178.565 75.1382C179.366 75.1382 180.01 75.3823 180.499 75.8706C180.987 76.354 181.341 77.0107 181.561 77.8408C181.785 78.6709 181.897 79.6011 181.897 80.6313ZM176.419 80.6313C176.419 81.603 176.5 82.4209 176.661 83.085C176.827 83.7441 177.068 84.2422 177.386 84.5791C177.703 84.916 178.091 85.0845 178.55 85.0845C179.019 85.0845 179.41 84.9209 179.722 84.5938C180.035 84.2617 180.269 83.7661 180.425 83.1069C180.586 82.4429 180.667 81.6177 180.667 80.6313C180.667 79.1616 180.491 78.0557 180.14 77.3135C179.788 76.5713 179.263 76.2002 178.565 76.2002C178.086 76.2002 177.688 76.3687 177.371 76.7056C177.054 77.0376 176.814 77.5332 176.653 78.1924C176.497 78.8467 176.419 79.6597 176.419 80.6313ZM186.534 77.8115C187.305 77.8115 187.889 78.1582 188.284 78.8516C188.685 79.54 188.885 80.5776 188.885 81.9644C188.885 82.8579 188.794 83.6172 188.614 84.2422C188.438 84.8623 188.179 85.3359 187.837 85.6631C187.496 85.9854 187.081 86.1465 186.592 86.1465C186.319 86.1465 186.065 86.0952 185.831 85.9927C185.596 85.8853 185.389 85.7363 185.208 85.5459C185.027 85.3506 184.876 85.1235 184.754 84.8647H184.703C184.712 85.0601 184.722 85.248 184.732 85.4287C184.747 85.6094 184.754 85.7803 184.754 85.9414V89.5889H183.626V77.958H184.542L184.681 79.1372H184.747C184.883 78.8394 185.04 78.5928 185.215 78.3975C185.396 78.2021 185.596 78.0557 185.816 77.958C186.036 77.8604 186.275 77.8115 186.534 77.8115ZM186.292 78.7856C185.95 78.7856 185.665 78.8931 185.435 79.1079C185.21 79.3228 185.04 79.6475 184.922 80.082C184.81 80.5117 184.754 81.0537 184.754 81.708V82.0962C184.754 82.7896 184.81 83.3633 184.922 83.8174C185.04 84.2715 185.213 84.6084 185.442 84.8281C185.677 85.0479 185.965 85.1577 186.307 85.1577C186.619 85.1577 186.88 85.0454 187.09 84.8208C187.305 84.5962 187.466 84.2495 187.574 83.7808C187.681 83.312 187.735 82.7114 187.735 81.979C187.735 80.9194 187.623 80.1235 187.398 79.5913C187.178 79.0542 186.81 78.7856 186.292 78.7856ZM192.386 85.1504C192.508 85.1504 192.63 85.1382 192.752 85.1138C192.874 85.0845 192.991 85.0454 193.104 84.9966V85.9194C192.952 85.9878 192.789 86.0415 192.613 86.0806C192.437 86.1245 192.242 86.1465 192.027 86.1465C191.68 86.1465 191.395 86.0684 191.17 85.9121C190.95 85.7559 190.787 85.5239 190.679 85.2163C190.577 84.9038 190.525 84.5132 190.525 84.0444V78.9028H189.778V78.2876L190.577 77.9873L190.877 76.1343H191.653V77.958H193.016V78.9028H191.653V83.9126C191.653 84.3276 191.702 84.6377 191.8 84.8428C191.902 85.0479 192.098 85.1504 192.386 85.1504ZM195.44 77.958V86H194.319V77.958H195.44ZM194.898 74.9404C195.127 74.9404 195.293 75.0137 195.396 75.1602C195.503 75.3066 195.557 75.5093 195.557 75.7681C195.557 76.022 195.501 76.2222 195.389 76.3687C195.276 76.5151 195.113 76.5884 194.898 76.5884C194.688 76.5884 194.522 76.5151 194.4 76.3687C194.278 76.2222 194.217 76.022 194.217 75.7681C194.217 75.4995 194.275 75.2944 194.393 75.1528C194.51 75.0112 194.678 74.9404 194.898 74.9404ZM203.724 77.8115C204.354 77.8115 204.82 78.041 205.123 78.5C205.43 78.9541 205.584 79.6475 205.584 80.5801V86H204.456V80.7778C204.456 80.0747 204.366 79.5718 204.185 79.269C204.009 78.9614 203.753 78.8076 203.416 78.8076C202.928 78.8076 202.579 79.0371 202.369 79.4961C202.159 79.9551 202.054 80.6191 202.054 81.4883V86H200.94V80.7632C200.94 80.2847 200.901 79.9038 200.823 79.6206C200.745 79.3325 200.628 79.125 200.472 78.998C200.32 78.8711 200.127 78.8076 199.893 78.8076C199.532 78.8076 199.253 78.9321 199.058 79.1812C198.863 79.4302 198.726 79.772 198.648 80.2065C198.575 80.6411 198.538 81.1367 198.538 81.6934V86H197.41V77.958H198.311L198.443 79.1006H198.509C198.611 78.8271 198.743 78.5952 198.904 78.4048C199.065 78.2144 199.256 78.0679 199.476 77.9653C199.7 77.8628 199.952 77.8115 200.23 77.8115C200.694 77.8115 201.058 77.9385 201.321 78.1924C201.59 78.4414 201.768 78.7563 201.856 79.1372H201.937C202.122 78.688 202.354 78.356 202.632 78.1411C202.911 77.9214 203.274 77.8115 203.724 77.8115ZM208.653 77.958V86H207.532V77.958H208.653ZM208.111 74.9404C208.34 74.9404 208.506 75.0137 208.609 75.1602C208.716 75.3066 208.77 75.5093 208.77 75.7681C208.77 76.022 208.714 76.2222 208.602 76.3687C208.489 76.5151 208.326 76.5884 208.111 76.5884C207.901 76.5884 207.735 76.5151 207.613 76.3687C207.491 76.2222 207.43 76.022 207.43 75.7681C207.43 75.4995 207.488 75.2944 207.605 75.1528C207.723 75.0112 207.891 74.9404 208.111 74.9404ZM213.794 86H210.022V85.2236L212.461 78.9248H210.184V77.958H213.692V78.7856L211.275 85.0405H213.794V86ZM217.317 77.8262C217.864 77.8262 218.313 77.9849 218.665 78.3022C219.021 78.6196 219.285 79.0469 219.456 79.584C219.632 80.1211 219.72 80.7192 219.72 81.3784V82.1768H215.889C215.899 83.1777 216.053 83.9297 216.351 84.4326C216.653 84.9355 217.107 85.187 217.713 85.187C218.001 85.187 218.284 85.1431 218.562 85.0552C218.841 84.9673 219.129 84.8257 219.427 84.6304V85.6411C219.148 85.812 218.858 85.939 218.555 86.022C218.252 86.105 217.93 86.1465 217.588 86.1465C216.919 86.1465 216.377 85.9683 215.962 85.6118C215.547 85.2505 215.245 84.7598 215.054 84.1396C214.869 83.5146 214.776 82.8091 214.776 82.0229C214.776 81.1245 214.871 80.3628 215.062 79.7378C215.252 79.1128 215.535 78.6392 215.911 78.3169C216.292 77.9897 216.761 77.8262 217.317 77.8262ZM217.317 78.749C216.893 78.749 216.561 78.9565 216.321 79.3716C216.082 79.7817 215.943 80.4165 215.904 81.2759H218.665C218.665 80.8218 218.616 80.4043 218.519 80.0234C218.426 79.6377 218.279 79.3301 218.079 79.1006C217.884 78.8662 217.63 78.749 217.317 78.749ZM224.004 77.8188C224.117 77.8188 224.229 77.8286 224.341 77.8481C224.454 77.8628 224.571 77.8896 224.693 77.9287L224.517 79.0859C224.429 79.0469 224.336 79.02 224.239 79.0054C224.141 78.9907 224.036 78.9834 223.924 78.9834C223.704 78.9834 223.501 79.0566 223.316 79.2031C223.135 79.3447 222.979 79.5449 222.847 79.8037C222.715 80.0625 222.613 80.3628 222.54 80.7046C222.471 81.0464 222.439 81.415 222.444 81.8105V86H221.316V77.958H222.195L222.349 79.3862H222.422C222.535 79.0786 222.667 78.8076 222.818 78.5732C222.969 78.3389 223.143 78.1558 223.338 78.0239C223.538 77.8872 223.76 77.8188 224.004 77.8188ZM232.171 83.876C232.171 84.3594 232.083 84.772 231.907 85.1138C231.731 85.4507 231.475 85.707 231.138 85.8828C230.806 86.0586 230.401 86.1465 229.922 86.1465C229.551 86.1465 229.212 86.1025 228.904 86.0146C228.597 85.9268 228.335 85.8218 228.121 85.6997V84.5278C228.335 84.7036 228.602 84.8501 228.919 84.9673C229.236 85.0796 229.559 85.1357 229.886 85.1357C230.262 85.1357 230.55 85.0283 230.75 84.8135C230.955 84.5986 231.058 84.2983 231.058 83.9126C231.058 83.6831 231.016 83.4854 230.933 83.3193C230.85 83.1484 230.716 82.9873 230.53 82.8359C230.35 82.6797 230.11 82.5161 229.812 82.3452C229.48 82.1401 229.185 81.9277 228.926 81.708C228.672 81.4883 228.475 81.2368 228.333 80.9536C228.191 80.6655 228.121 80.3164 228.121 79.9062C228.121 79.2812 228.323 78.7759 228.729 78.3901C229.139 78.0044 229.678 77.8115 230.347 77.8115C230.684 77.8115 231.001 77.8555 231.299 77.9434C231.602 78.0264 231.888 78.1533 232.156 78.3242L231.731 79.2324C231.526 79.0908 231.307 78.9785 231.072 78.8955C230.843 78.8125 230.606 78.771 230.362 78.771C230.005 78.771 229.722 78.8711 229.512 79.0713C229.307 79.2715 229.205 79.54 229.205 79.877C229.205 80.1016 229.246 80.2944 229.329 80.4556C229.412 80.6167 229.549 80.7729 229.739 80.9243C229.93 81.0757 230.181 81.2466 230.494 81.437C230.826 81.647 231.116 81.8618 231.365 82.0815C231.619 82.2964 231.817 82.5454 231.958 82.8286C232.1 83.1118 232.171 83.4609 232.171 83.876ZM235.525 85.1504C235.647 85.1504 235.77 85.1382 235.892 85.1138C236.014 85.0845 236.131 85.0454 236.243 84.9966V85.9194C236.092 85.9878 235.928 86.0415 235.752 86.0806C235.577 86.1245 235.381 86.1465 235.167 86.1465C234.82 86.1465 234.534 86.0684 234.31 85.9121C234.09 85.7559 233.926 85.5239 233.819 85.2163C233.716 84.9038 233.665 84.5132 233.665 84.0444V78.9028H232.918V78.2876L233.716 77.9873L234.017 76.1343H234.793V77.958H236.155V78.9028H234.793V83.9126C234.793 84.3276 234.842 84.6377 234.939 84.8428C235.042 85.0479 235.237 85.1504 235.525 85.1504ZM239.656 77.8262C240.203 77.8262 240.652 77.9849 241.004 78.3022C241.36 78.6196 241.624 79.0469 241.795 79.584C241.971 80.1211 242.059 80.7192 242.059 81.3784V82.1768H238.228C238.238 83.1777 238.392 83.9297 238.689 84.4326C238.992 84.9355 239.446 85.187 240.052 85.187C240.34 85.187 240.623 85.1431 240.901 85.0552C241.18 84.9673 241.468 84.8257 241.766 84.6304V85.6411C241.487 85.812 241.197 85.939 240.894 86.022C240.591 86.105 240.269 86.1465 239.927 86.1465C239.258 86.1465 238.716 85.9683 238.301 85.6118C237.886 85.2505 237.583 84.7598 237.393 84.1396C237.208 83.5146 237.115 82.8091 237.115 82.0229C237.115 81.1245 237.21 80.3628 237.4 79.7378C237.591 79.1128 237.874 78.6392 238.25 78.3169C238.631 77.9897 239.1 77.8262 239.656 77.8262ZM239.656 78.749C239.231 78.749 238.899 78.9565 238.66 79.3716C238.421 79.7817 238.282 80.4165 238.243 81.2759H241.004C241.004 80.8218 240.955 80.4043 240.857 80.0234C240.765 79.6377 240.618 79.3301 240.418 79.1006C240.223 78.8662 239.969 78.749 239.656 78.749ZM246.563 77.8115C247.334 77.8115 247.918 78.1582 248.313 78.8516C248.714 79.54 248.914 80.5776 248.914 81.9644C248.914 82.8579 248.824 83.6172 248.643 84.2422C248.467 84.8623 248.208 85.3359 247.867 85.6631C247.525 85.9854 247.11 86.1465 246.622 86.1465C246.348 86.1465 246.094 86.0952 245.86 85.9927C245.625 85.8853 245.418 85.7363 245.237 85.5459C245.057 85.3506 244.905 85.1235 244.783 84.8647H244.732C244.742 85.0601 244.751 85.248 244.761 85.4287C244.776 85.6094 244.783 85.7803 244.783 85.9414V89.5889H243.655V77.958H244.571L244.71 79.1372H244.776C244.913 78.8394 245.069 78.5928 245.245 78.3975C245.425 78.2021 245.625 78.0557 245.845 77.958C246.065 77.8604 246.304 77.8115 246.563 77.8115ZM246.321 78.7856C245.979 78.7856 245.694 78.8931 245.464 79.1079C245.24 79.3228 245.069 79.6475 244.952 80.082C244.839 80.5117 244.783 81.0537 244.783 81.708V82.0962C244.783 82.7896 244.839 83.3633 244.952 83.8174C245.069 84.2715 245.242 84.6084 245.472 84.8281C245.706 85.0479 245.994 85.1577 246.336 85.1577C246.648 85.1577 246.91 85.0454 247.12 84.8208C247.334 84.5962 247.496 84.2495 247.603 83.7808C247.71 83.312 247.764 82.7114 247.764 81.979C247.764 80.9194 247.652 80.1235 247.427 79.5913C247.208 79.0542 246.839 78.7856 246.321 78.7856Z" fill="white"/>
<path d="M486.707 97.7071C487.098 97.3166 487.098 96.6834 486.707 96.2929L480.343 89.9289C479.953 89.5384 479.319 89.5384 478.929 89.9289C478.538 90.3195 478.538 90.9526 478.929 91.3431L484.586 97L478.929 102.657C478.538 103.047 478.538 103.681 478.929 104.071C479.319 104.462 479.953 104.462 480.343 104.071L486.707 97.7071ZM436 98H486V96H436V98Z" fill="black"/>
<path d="M688.707 96.7071C689.098 96.3166 689.098 95.6834 688.707 95.2929L682.343 88.9289C681.953 88.5384 681.319 88.5384 680.929 88.9289C680.538 89.3195 680.538 89.9526 680.929 90.3431L686.586 96L680.929 101.657C680.538 102.047 680.538 102.681 680.929 103.071C681.319 103.462 681.953 103.462 682.343 103.071L688.707 96.7071ZM638 97H688V95H638V97Z" fill="black"/>
<path d="M319.707 97.7071C320.098 97.3166 320.098 96.6834 319.707 96.2929L313.343 89.9289C312.953 89.5384 312.319 89.5384 311.929 89.9289C311.538 90.3195 311.538 90.9526 311.929 91.3431L317.586 97L311.929 102.657C311.538 103.047 311.538 103.681 311.929 104.071C312.319 104.462 312.953 104.462 313.343 104.071L319.707 97.7071ZM269 98H319V96H269V98Z" fill="black"/>
<path d="M490 62C490 59.2386 492.239 57 495 57H639C641.761 57 644 59.2386 644 62V127C644 129.761 641.761 132 639 132H495C492.239 132 490 129.761 490 127V62Z" fill="#E5C494"/>
<path d="M542.022 82.5142C542.022 83.7202 541.883 84.731 541.605 85.5464C541.327 86.3569 540.912 86.9697 540.36 87.3848C539.813 87.7949 539.129 88 538.309 88H536.207V77.292H538.397C539.193 77.292 539.859 77.4897 540.396 77.8853C540.934 78.2808 541.339 78.8667 541.612 79.6431C541.886 80.4194 542.022 81.3765 542.022 82.5142ZM540.807 82.5728C540.807 81.6401 540.716 80.8589 540.536 80.229C540.355 79.5991 540.084 79.1255 539.723 78.8081C539.361 78.4907 538.905 78.332 538.353 78.332H537.372V86.9526H538.265C539.149 86.9526 539.793 86.5864 540.199 85.854C540.604 85.1167 540.807 84.0229 540.807 82.5728ZM545.97 79.8262C546.517 79.8262 546.966 79.9849 547.318 80.3022C547.674 80.6196 547.938 81.0469 548.109 81.584C548.285 82.1211 548.373 82.7192 548.373 83.3784V84.1768H544.542C544.552 85.1777 544.706 85.9297 545.003 86.4326C545.306 86.9355 545.76 87.187 546.366 87.187C546.654 87.187 546.937 87.1431 547.215 87.0552C547.494 86.9673 547.782 86.8257 548.08 86.6304V87.6411C547.801 87.812 547.511 87.939 547.208 88.022C546.905 88.105 546.583 88.1465 546.241 88.1465C545.572 88.1465 545.03 87.9683 544.615 87.6118C544.2 87.2505 543.897 86.7598 543.707 86.1396C543.521 85.5146 543.429 84.8091 543.429 84.0229C543.429 83.1245 543.524 82.3628 543.714 81.7378C543.905 81.1128 544.188 80.6392 544.564 80.3169C544.945 79.9897 545.414 79.8262 545.97 79.8262ZM545.97 80.749C545.545 80.749 545.213 80.9565 544.974 81.3716C544.735 81.7817 544.596 82.4165 544.557 83.2759H547.318C547.318 82.8218 547.269 82.4043 547.171 82.0234C547.079 81.6377 546.932 81.3301 546.732 81.1006C546.537 80.8662 546.283 80.749 545.97 80.749ZM552.877 79.8115C553.648 79.8115 554.232 80.1582 554.627 80.8516C555.028 81.54 555.228 82.5776 555.228 83.9644C555.228 84.8579 555.138 85.6172 554.957 86.2422C554.781 86.8623 554.522 87.3359 554.181 87.6631C553.839 87.9854 553.424 88.1465 552.936 88.1465C552.662 88.1465 552.408 88.0952 552.174 87.9927C551.939 87.8853 551.732 87.7363 551.551 87.5459C551.371 87.3506 551.219 87.1235 551.097 86.8647H551.046C551.056 87.0601 551.065 87.248 551.075 87.4287C551.09 87.6094 551.097 87.7803 551.097 87.9414V91.5889H549.969V79.958H550.885L551.024 81.1372H551.09C551.227 80.8394 551.383 80.5928 551.559 80.3975C551.739 80.2021 551.939 80.0557 552.159 79.958C552.379 79.8604 552.618 79.8115 552.877 79.8115ZM552.635 80.7856C552.293 80.7856 552.008 80.8931 551.778 81.1079C551.554 81.3228 551.383 81.6475 551.266 82.082C551.153 82.5117 551.097 83.0537 551.097 83.708V84.0962C551.097 84.7896 551.153 85.3633 551.266 85.8174C551.383 86.2715 551.556 86.6084 551.786 86.8281C552.02 87.0479 552.308 87.1577 552.65 87.1577C552.962 87.1577 553.224 87.0454 553.434 86.8208C553.648 86.5962 553.81 86.2495 553.917 85.7808C554.024 85.312 554.078 84.7114 554.078 83.979C554.078 82.9194 553.966 82.1235 553.741 81.5913C553.521 81.0542 553.153 80.7856 552.635 80.7856ZM557.967 88H556.839V76.6035H557.967V88ZM564.903 83.9717C564.903 84.6064 564.85 85.1802 564.742 85.6929C564.635 86.2056 564.471 86.645 564.251 87.0112C564.032 87.3774 563.753 87.6582 563.417 87.8535C563.08 88.0488 562.682 88.1465 562.223 88.1465C561.783 88.1465 561.397 88.0488 561.065 87.8535C560.733 87.6582 560.458 87.3799 560.238 87.0186C560.018 86.6523 559.852 86.2129 559.74 85.7002C559.627 85.1826 559.571 84.6064 559.571 83.9717C559.571 83.083 559.667 82.3311 559.857 81.7158C560.047 81.0957 560.34 80.6245 560.736 80.3022C561.131 79.9751 561.634 79.8115 562.245 79.8115C562.816 79.8115 563.299 79.9702 563.695 80.2876C564.09 80.6001 564.391 81.0664 564.596 81.6865C564.801 82.3018 564.903 83.0635 564.903 83.9717ZM560.721 83.9717C560.721 84.6699 560.775 85.2559 560.882 85.7295C560.99 86.2031 561.156 86.5596 561.38 86.7988C561.61 87.0381 561.9 87.1577 562.252 87.1577C562.599 87.1577 562.882 87.0405 563.102 86.8062C563.326 86.5718 563.492 86.2202 563.6 85.7515C563.707 85.2778 563.761 84.6846 563.761 83.9717C563.761 83.2734 563.707 82.6899 563.6 82.2212C563.492 81.7476 563.326 81.3936 563.102 81.1592C562.882 80.9199 562.596 80.8003 562.245 80.8003C561.708 80.8003 561.319 81.0664 561.08 81.5986C560.841 82.126 560.721 82.917 560.721 83.9717ZM565.628 79.958H566.793L567.928 84.6602C567.972 84.8652 568.014 85.0654 568.053 85.2607C568.097 85.4561 568.136 85.6514 568.17 85.8467C568.209 86.0371 568.241 86.23 568.265 86.4253H568.324C568.363 86.1421 568.412 85.8564 568.47 85.5684C568.529 85.2754 568.597 84.9702 568.675 84.6528L569.781 79.958H570.938L568.551 89.2891C568.409 89.8262 568.243 90.2656 568.053 90.6074C567.862 90.9492 567.638 91.2007 567.379 91.3618C567.125 91.5229 566.822 91.6035 566.471 91.6035C566.354 91.6035 566.236 91.5913 566.119 91.5669C566.002 91.5425 565.877 91.5132 565.746 91.479V90.4756C565.838 90.5098 565.934 90.5366 566.031 90.5562C566.134 90.5757 566.231 90.5854 566.324 90.5854C566.51 90.5854 566.668 90.5366 566.8 90.439C566.932 90.3462 567.049 90.1899 567.152 89.9702C567.254 89.7505 567.354 89.4502 567.452 89.0693L567.738 87.9414L565.628 79.958ZM578.299 79.8115C578.929 79.8115 579.396 80.041 579.698 80.5C580.006 80.9541 580.16 81.6475 580.16 82.5801V88H579.032V82.7778C579.032 82.0747 578.941 81.5718 578.761 81.269C578.585 80.9614 578.329 80.8076 577.992 80.8076C577.503 80.8076 577.154 81.0371 576.944 81.4961C576.734 81.9551 576.629 82.6191 576.629 83.4883V88H575.516V82.7632C575.516 82.2847 575.477 81.9038 575.399 81.6206C575.321 81.3325 575.204 81.125 575.047 80.998C574.896 80.8711 574.703 80.8076 574.469 80.8076C574.107 80.8076 573.829 80.9321 573.634 81.1812C573.438 81.4302 573.302 81.772 573.224 82.2065C573.15 82.6411 573.114 83.1367 573.114 83.6934V88H571.986V79.958H572.887L573.019 81.1006H573.084C573.187 80.8271 573.319 80.5952 573.48 80.4048C573.641 80.2144 573.832 80.0679 574.051 79.9653C574.276 79.8628 574.527 79.8115 574.806 79.8115C575.27 79.8115 575.633 79.9385 575.897 80.1924C576.166 80.4414 576.344 80.7563 576.432 81.1372H576.512C576.698 80.688 576.93 80.356 577.208 80.1411C577.486 79.9214 577.85 79.8115 578.299 79.8115ZM584.305 79.8262C584.852 79.8262 585.301 79.9849 585.653 80.3022C586.009 80.6196 586.273 81.0469 586.444 81.584C586.62 82.1211 586.708 82.7192 586.708 83.3784V84.1768H582.877C582.887 85.1777 583.041 85.9297 583.338 86.4326C583.641 86.9355 584.095 87.187 584.701 87.187C584.989 87.187 585.272 87.1431 585.55 87.0552C585.829 86.9673 586.117 86.8257 586.415 86.6304V87.6411C586.136 87.812 585.846 87.939 585.543 88.022C585.24 88.105 584.918 88.1465 584.576 88.1465C583.907 88.1465 583.365 87.9683 582.95 87.6118C582.535 87.2505 582.232 86.7598 582.042 86.1396C581.856 85.5146 581.764 84.8091 581.764 84.0229C581.764 83.1245 581.859 82.3628 582.049 81.7378C582.24 81.1128 582.523 80.6392 582.899 80.3169C583.28 79.9897 583.749 79.8262 584.305 79.8262ZM584.305 80.749C583.88 80.749 583.548 80.9565 583.309 81.3716C583.07 81.7817 582.931 82.4165 582.892 83.2759H585.653C585.653 82.8218 585.604 82.4043 585.506 82.0234C585.414 81.6377 585.267 81.3301 585.067 81.1006C584.872 80.8662 584.618 80.749 584.305 80.749ZM591.197 79.8115C591.832 79.8115 592.313 80.0337 592.64 80.478C592.967 80.9224 593.131 81.6035 593.131 82.5215V88H592.003V82.7485C592.003 82.0991 591.917 81.6133 591.747 81.291C591.581 80.9688 591.317 80.8076 590.956 80.8076C590.428 80.8076 590.042 81.042 589.798 81.5107C589.554 81.9795 589.432 82.7314 589.432 83.7666V88H588.304V79.958H589.205L589.33 81.1226H589.403C589.515 80.854 589.659 80.6221 589.835 80.4268C590.011 80.2314 590.213 80.0801 590.443 79.9727C590.672 79.8652 590.924 79.8115 591.197 79.8115ZM596.961 87.1504C597.083 87.1504 597.206 87.1382 597.328 87.1138C597.45 87.0845 597.567 87.0454 597.679 86.9966V87.9194C597.528 87.9878 597.364 88.0415 597.188 88.0806C597.013 88.1245 596.817 88.1465 596.603 88.1465C596.256 88.1465 595.97 88.0684 595.746 87.9121C595.526 87.7559 595.362 87.5239 595.255 87.2163C595.152 86.9038 595.101 86.5132 595.101 86.0444V80.9028H594.354V80.2876L595.152 79.9873L595.453 78.1343H596.229V79.958H597.591V80.9028H596.229V85.9126C596.229 86.3276 596.278 86.6377 596.375 86.8428C596.478 87.0479 596.673 87.1504 596.961 87.1504Z" fill="white"/>
<rect x="137.5" y="32.5" width="522" height="119" stroke="black" stroke-dasharray="2 2"/>
<path d="M189.224 18.7373H190.881C191.224 18.7373 191.404 18.7373 191.404 18.413C191.404 18.2149 191.296 18.2149 190.935 18.2149H189.35L190.017 15.5851C190.089 15.3329 190.089 15.2969 190.089 15.1708C190.089 14.8826 189.855 14.7205 189.621 14.7205C189.476 14.7205 189.062 14.7745 188.918 15.3509L188.216 18.2149H186.522C186.162 18.2149 186 18.2149 186 18.5571C186 18.7373 186.126 18.7373 186.468 18.7373H188.071L186.883 23.4926C186.739 24.123 186.684 24.3031 186.684 24.5373C186.684 25.3839 187.279 26.1584 188.288 26.1584C190.107 26.1584 191.08 23.5286 191.08 23.4025C191.08 23.2944 191.007 23.2404 190.899 23.2404C190.863 23.2404 190.791 23.2404 190.755 23.3124C190.737 23.3304 190.719 23.3485 190.593 23.6367C190.215 24.5373 189.386 25.7981 188.342 25.7981C187.801 25.7981 187.765 25.3478 187.765 24.9516C187.765 24.9335 187.765 24.5913 187.819 24.3752L189.224 18.7373Z" fill="black"/>
<path d="M203.162 21.8174H208.134C208.386 21.8174 208.71 21.8174 208.71 21.4932C208.71 21.1509 208.404 21.1509 208.134 21.1509H203.162V16.1795C203.162 15.9273 203.162 15.6031 202.838 15.6031C202.496 15.6031 202.496 15.9093 202.496 16.1795V21.1509H197.524C197.272 21.1509 196.948 21.1509 196.948 21.4751C196.948 21.8174 197.254 21.8174 197.524 21.8174H202.496V26.7888C202.496 27.041 202.496 27.3652 202.82 27.3652C203.162 27.3652 203.162 27.059 203.162 26.7888V21.8174Z" fill="black"/>
<path d="M218.883 14.4323C218.883 14.018 218.883 14 218.523 14C218.091 14.4863 217.19 15.1528 215.335 15.1528V15.6752C215.749 15.6752 216.65 15.6752 217.64 15.2068V24.5913C217.64 25.2398 217.586 25.4559 216.001 25.4559H215.443V25.9783C215.929 25.9423 217.676 25.9423 218.271 25.9423C218.865 25.9423 220.594 25.9423 221.081 25.9783V25.4559H220.522C218.937 25.4559 218.883 25.2398 218.883 24.5913V14.4323Z" fill="black"/>
<path d="M137.443 26V15.292H138.607V26H137.443ZM142.562 25.1504C142.685 25.1504 142.807 25.1382 142.929 25.1138C143.051 25.0845 143.168 25.0454 143.28 24.9966V25.9194C143.129 25.9878 142.965 26.0415 142.79 26.0806C142.614 26.1245 142.418 26.1465 142.204 26.1465C141.857 26.1465 141.571 26.0684 141.347 25.9121C141.127 25.7559 140.963 25.5239 140.856 25.2163C140.753 24.9038 140.702 24.5132 140.702 24.0444V18.9028H139.955V18.2876L140.753 17.9873L141.054 16.1343H141.83V17.958H143.192V18.9028H141.83V23.9126C141.83 24.3276 141.879 24.6377 141.977 24.8428C142.079 25.0479 142.274 25.1504 142.562 25.1504ZM146.693 17.8262C147.24 17.8262 147.689 17.9849 148.041 18.3022C148.397 18.6196 148.661 19.0469 148.832 19.584C149.008 20.1211 149.096 20.7192 149.096 21.3784V22.1768H145.265C145.275 23.1777 145.429 23.9297 145.727 24.4326C146.029 24.9355 146.483 25.187 147.089 25.187C147.377 25.187 147.66 25.1431 147.938 25.0552C148.217 24.9673 148.505 24.8257 148.803 24.6304V25.6411C148.524 25.812 148.234 25.939 147.931 26.022C147.628 26.105 147.306 26.1465 146.964 26.1465C146.295 26.1465 145.753 25.9683 145.338 25.6118C144.923 25.2505 144.621 24.7598 144.43 24.1396C144.245 23.5146 144.152 22.8091 144.152 22.0229C144.152 21.1245 144.247 20.3628 144.438 19.7378C144.628 19.1128 144.911 18.6392 145.287 18.3169C145.668 17.9897 146.137 17.8262 146.693 17.8262ZM146.693 18.749C146.269 18.749 145.937 18.9565 145.697 19.3716C145.458 19.7817 145.319 20.4165 145.28 21.2759H148.041C148.041 20.8218 147.992 20.4043 147.895 20.0234C147.802 19.6377 147.655 19.3301 147.455 19.1006C147.26 18.8662 147.006 18.749 146.693 18.749ZM153.38 17.8188C153.493 17.8188 153.605 17.8286 153.717 17.8481C153.83 17.8628 153.947 17.8896 154.069 17.9287L153.893 19.0859C153.805 19.0469 153.712 19.02 153.615 19.0054C153.517 18.9907 153.412 18.9834 153.3 18.9834C153.08 18.9834 152.877 19.0566 152.692 19.2031C152.511 19.3447 152.355 19.5449 152.223 19.8037C152.091 20.0625 151.989 20.3628 151.916 20.7046C151.847 21.0464 151.815 21.415 151.82 21.8105V26H150.692V17.958H151.571L151.725 19.3862H151.798C151.911 19.0786 152.042 18.8076 152.194 18.5732C152.345 18.3389 152.519 18.1558 152.714 18.0239C152.914 17.8872 153.136 17.8188 153.38 17.8188ZM157.343 17.8115C158.085 17.8115 158.615 18.0483 158.932 18.522C159.25 18.9956 159.408 19.6816 159.408 20.5801V26H158.551L158.383 24.8574H158.354C158.227 25.1309 158.075 25.3652 157.899 25.5605C157.724 25.751 157.523 25.8975 157.299 26C157.074 26.0977 156.815 26.1465 156.522 26.1465C156.107 26.1465 155.768 26.0366 155.504 25.8169C155.241 25.5972 155.045 25.3091 154.918 24.9526C154.792 24.5913 154.728 24.2031 154.728 23.7881C154.728 22.9922 154.958 22.3745 155.417 21.9351C155.875 21.4956 156.527 21.2563 157.372 21.2173L158.288 21.1587V20.6094C158.288 19.9648 158.2 19.4937 158.024 19.1958C157.848 18.8979 157.565 18.749 157.174 18.749C156.95 18.749 156.713 18.7881 156.464 18.8662C156.22 18.9443 155.954 19.0688 155.666 19.2397L155.307 18.3901C155.609 18.1948 155.932 18.0508 156.273 17.958C156.62 17.8604 156.977 17.8115 157.343 17.8115ZM158.302 21.9863L157.555 22.0376C156.989 22.0718 156.566 22.2329 156.288 22.521C156.015 22.8042 155.878 23.2168 155.878 23.7588C155.878 24.2617 155.968 24.6328 156.149 24.8721C156.33 25.1113 156.579 25.231 156.896 25.231C157.34 25.231 157.685 25.0161 157.929 24.5864C158.178 24.1567 158.302 23.5635 158.302 22.8066V21.9863ZM163.246 25.1504C163.368 25.1504 163.49 25.1382 163.612 25.1138C163.734 25.0845 163.852 25.0454 163.964 24.9966V25.9194C163.812 25.9878 163.649 26.0415 163.473 26.0806C163.297 26.1245 163.102 26.1465 162.887 26.1465C162.541 26.1465 162.255 26.0684 162.03 25.9121C161.811 25.7559 161.647 25.5239 161.54 25.2163C161.437 24.9038 161.386 24.5132 161.386 24.0444V18.9028H160.639V18.2876L161.437 17.9873L161.737 16.1343H162.514V17.958H163.876V18.9028H162.514V23.9126C162.514 24.3276 162.562 24.6377 162.66 24.8428C162.763 25.0479 162.958 25.1504 163.246 25.1504ZM166.3 17.958V26H165.18V17.958H166.3ZM165.758 14.9404C165.988 14.9404 166.154 15.0137 166.256 15.1602C166.364 15.3066 166.417 15.5093 166.417 15.7681C166.417 16.022 166.361 16.2222 166.249 16.3687C166.137 16.5151 165.973 16.5884 165.758 16.5884C165.548 16.5884 165.382 16.5151 165.26 16.3687C165.138 16.2222 165.077 16.022 165.077 15.7681C165.077 15.4995 165.136 15.2944 165.253 15.1528C165.37 15.0112 165.539 14.9404 165.758 14.9404ZM173.258 21.9717C173.258 22.6064 173.205 23.1802 173.097 23.6929C172.99 24.2056 172.826 24.645 172.606 25.0112C172.387 25.3774 172.108 25.6582 171.771 25.8535C171.435 26.0488 171.037 26.1465 170.578 26.1465C170.138 26.1465 169.752 26.0488 169.42 25.8535C169.088 25.6582 168.812 25.3799 168.593 25.0186C168.373 24.6523 168.207 24.2129 168.095 23.7002C167.982 23.1826 167.926 22.6064 167.926 21.9717C167.926 21.083 168.021 20.3311 168.212 19.7158C168.402 19.0957 168.695 18.6245 169.091 18.3022C169.486 17.9751 169.989 17.8115 170.6 17.8115C171.171 17.8115 171.654 17.9702 172.05 18.2876C172.445 18.6001 172.746 19.0664 172.951 19.6865C173.156 20.3018 173.258 21.0635 173.258 21.9717ZM169.076 21.9717C169.076 22.6699 169.13 23.2559 169.237 23.7295C169.345 24.2031 169.511 24.5596 169.735 24.7988C169.965 25.0381 170.255 25.1577 170.607 25.1577C170.954 25.1577 171.237 25.0405 171.457 24.8062C171.681 24.5718 171.847 24.2202 171.955 23.7515C172.062 23.2778 172.116 22.6846 172.116 21.9717C172.116 21.2734 172.062 20.6899 171.955 20.2212C171.847 19.7476 171.681 19.3936 171.457 19.1592C171.237 18.9199 170.951 18.8003 170.6 18.8003C170.062 18.8003 169.674 19.0664 169.435 19.5986C169.196 20.126 169.076 20.917 169.076 21.9717ZM177.77 17.8115C178.405 17.8115 178.886 18.0337 179.213 18.478C179.54 18.9224 179.704 19.6035 179.704 20.5215V26H178.576V20.7485C178.576 20.0991 178.49 19.6133 178.319 19.291C178.153 18.9688 177.89 18.8076 177.528 18.8076C177.001 18.8076 176.615 19.042 176.371 19.5107C176.127 19.9795 176.005 20.7314 176.005 21.7666V26H174.877V17.958H175.778L175.902 19.1226H175.976C176.088 18.854 176.232 18.6221 176.408 18.4268C176.583 18.2314 176.786 18.0801 177.016 17.9727C177.245 17.8652 177.497 17.8115 177.77 17.8115Z" fill="black"/>
<path d="M13.0888 107.82C13.0888 107.766 13.0888 107.73 12.7826 107.424C10.9814 105.605 9.97267 102.633 9.97267 98.9583C9.97267 95.4639 10.8193 92.4558 12.9087 90.3304C13.0888 90.1682 13.0888 90.1322 13.0888 90.0782C13.0888 89.9701 12.9988 89.9341 12.9267 89.9341C12.6926 89.9341 11.2155 91.231 10.3329 92.9962C9.41429 94.8155 9 96.7428 9 98.9583C9 100.561 9.25218 102.705 10.1888 104.632C11.2516 106.794 12.7286 107.965 12.9267 107.965C12.9988 107.965 13.0888 107.929 13.0888 107.82Z" fill="#8DA0CB"/>
<path d="M22.0731 94.3831C22.0731 92.5459 21.4967 90.7626 20.0197 90.7626C17.4979 90.7626 14.8141 96.0403 14.8141 100.003C14.8141 100.832 14.9942 103.624 16.8855 103.624C19.3352 103.624 22.0731 98.472 22.0731 94.3831ZM16.6153 96.9229C16.8855 95.8602 17.2638 94.3471 17.9843 93.0682C18.5787 91.9875 19.2091 91.1229 20.0017 91.1229C20.5961 91.1229 20.9924 91.6272 20.9924 93.3564C20.9924 94.0049 20.9383 94.9055 20.416 96.9229H16.6153ZM20.2899 97.4633C19.8396 99.2285 19.4613 100.363 18.8129 101.498C18.2905 102.417 17.6601 103.263 16.9035 103.263C16.3451 103.263 15.8948 102.831 15.8948 101.048C15.8948 99.8769 16.183 98.6521 16.4712 97.4633H20.2899Z" fill="#8DA0CB"/>
<path d="M26.8015 99.0083C26.8975 99.0083 27.0416 99.0083 27.0416 98.8642C27.0416 98.8162 27.0296 98.8042 26.8735 98.6481C25.2284 97.099 24.8201 94.8654 24.8201 93.0042C24.8201 89.5458 26.2491 87.9246 26.8615 87.3723C27.0296 87.2161 27.0416 87.2041 27.0416 87.1441C27.0416 87.0841 26.9936 87 26.8735 87C26.6814 87 26.081 87.6124 25.9849 87.7205C24.3758 89.4017 24.0396 91.5632 24.0396 93.0042C24.0396 95.694 25.1683 97.8555 26.8015 99.0083Z" fill="#8DA0CB"/>
<path d="M30.4183 91.2269H31.5951C31.8233 91.2269 31.9674 91.2269 31.9674 90.9988C31.9674 90.8306 31.8113 90.8306 31.6071 90.8306H30.5144L30.9467 89.1255C30.9947 88.9453 30.9947 88.8853 30.9947 88.8733C30.9947 88.6211 30.8026 88.501 30.5984 88.501C30.1902 88.501 30.1061 88.8253 29.974 89.3656L29.6018 90.8306H28.449C28.2208 90.8306 28.0647 90.8306 28.0647 91.0588C28.0647 91.2269 28.2208 91.2269 28.4249 91.2269H29.5057L28.7852 94.1089C28.7131 94.4091 28.6051 94.8294 28.6051 94.9975C28.6051 95.718 29.1935 96.1263 29.8299 96.1263C31.1148 96.1263 31.8473 94.4331 31.8473 94.289C31.8473 94.1569 31.7392 94.1329 31.6672 94.1329C31.5351 94.1329 31.5231 94.181 31.439 94.3611C31.1989 94.9375 30.5984 95.7901 29.8659 95.7901C29.6138 95.7901 29.4697 95.622 29.4697 95.2257C29.4697 94.9975 29.5057 94.8654 29.5417 94.7093L30.4183 91.2269Z" fill="#8DA0CB"/>
<path d="M36.0825 93.0042C36.0825 91.8634 35.8903 90.4944 35.1458 89.0774C34.5574 87.9727 33.4647 87 33.2485 87C33.1284 87 33.0924 87.0841 33.0924 87.1441C33.0924 87.1921 33.0924 87.2161 33.2365 87.3602C34.9177 88.9574 35.3019 91.1549 35.3019 93.0042C35.3019 96.4505 33.8729 98.0837 33.2605 98.636C33.1044 98.7922 33.0924 98.8042 33.0924 98.8642C33.0924 98.9242 33.1284 99.0083 33.2485 99.0083C33.4406 99.0083 34.0411 98.3959 34.1371 98.2878C35.7462 96.6066 36.0825 94.4451 36.0825 93.0042Z" fill="#8DA0CB"/>
<path d="M41.5967 103.515C41.5967 102.471 41.2545 101.696 40.516 101.696C39.9396 101.696 39.6514 102.165 39.6514 102.561C39.6514 102.957 39.9216 103.443 40.534 103.443C40.7681 103.443 40.9663 103.371 41.1284 103.209C41.1644 103.173 41.1824 103.173 41.2004 103.173C41.2365 103.173 41.2365 103.425 41.2365 103.515C41.2365 104.11 41.1284 105.281 40.0837 106.452C39.8855 106.668 39.8855 106.704 39.8855 106.74C39.8855 106.83 39.9756 106.92 40.0657 106.92C40.2098 106.92 41.5967 105.587 41.5967 103.515Z" fill="#8DA0CB"/>
<path d="M49.66 103.443C53.8569 103.443 59.783 100.237 59.783 95.3198C59.783 93.7167 59.0265 92.708 58.1439 92.1496C56.5948 91.1409 54.9377 91.1409 53.2265 91.1409C51.6774 91.1409 50.6147 91.1409 49.1017 91.7894C46.706 92.8521 46.3638 94.3471 46.3638 94.4912C46.3638 94.5993 46.4358 94.6353 46.5439 94.6353C46.8321 94.6353 47.2464 94.3832 47.3905 94.2931C47.7687 94.0409 47.8228 93.9329 47.9309 93.5906C48.183 92.8701 48.6874 92.2397 50.9569 92.1316C50.6687 95.8962 49.7501 99.3366 48.4892 102.489C47.8228 102.723 47.3905 103.137 47.3905 103.317C47.3905 103.425 47.4085 103.443 47.8048 103.443H49.66ZM49.7501 102.453C51.8035 97.4273 52.1818 94.2931 52.434 92.1316C53.6408 92.1316 58.252 92.1316 58.252 96.0944C58.252 99.6248 55.0818 102.453 50.7228 102.453H49.7501Z" fill="#8DA0CB"/>
<path d="M66.2346 107.82C66.2346 107.766 66.2346 107.73 65.9284 107.424C64.1271 105.605 63.1184 102.633 63.1184 98.9583C63.1184 95.4639 63.965 92.4558 66.0545 90.3304C66.2346 90.1682 66.2346 90.1322 66.2346 90.0782C66.2346 89.9701 66.1445 89.9341 66.0725 89.9341C65.8383 89.9341 64.3613 91.231 63.4787 92.9962C62.56 94.8155 62.1458 96.7428 62.1458 98.9583C62.1458 100.561 62.3979 102.705 63.3346 104.632C64.3973 106.794 65.8743 107.965 66.0725 107.965C66.1445 107.965 66.2346 107.929 66.2346 107.82Z" fill="#8DA0CB"/>
<path d="M75.2189 94.3831C75.2189 92.5459 74.6425 90.7626 73.1654 90.7626C70.6437 90.7626 67.9598 96.0403 67.9598 100.003C67.9598 100.832 68.14 103.624 70.0313 103.624C72.481 103.624 75.2189 98.472 75.2189 94.3831ZM69.7611 96.9229C70.0313 95.8602 70.4095 94.3471 71.13 93.0682C71.7244 91.9875 72.3549 91.1229 73.1474 91.1229C73.7418 91.1229 74.1381 91.6272 74.1381 93.3564C74.1381 94.0049 74.0841 94.9055 73.5617 96.9229H69.7611ZM73.4356 97.4633C72.9853 99.2285 72.6071 100.363 71.9586 101.498C71.4362 102.417 70.8058 103.263 70.0493 103.263C69.4909 103.263 69.0406 102.831 69.0406 101.048C69.0406 99.8769 69.3288 98.6521 69.617 97.4633H73.4356Z" fill="#8DA0CB"/>
<path d="M79.9472 99.0083C80.0433 99.0083 80.1874 99.0083 80.1874 98.8642C80.1874 98.8162 80.1754 98.8042 80.0193 98.6481C78.3741 97.099 77.9658 94.8654 77.9658 93.0042C77.9658 89.5458 79.3948 87.9246 80.0073 87.3723C80.1754 87.2161 80.1874 87.2041 80.1874 87.1441C80.1874 87.0841 80.1393 87 80.0193 87C79.8271 87 79.2267 87.6124 79.1306 87.7205C77.5215 89.4017 77.1853 91.5632 77.1853 93.0042C77.1853 95.694 78.3141 97.8555 79.9472 99.0083Z" fill="#8DA0CB"/>
<path d="M83.5641 91.2269H84.7409C84.969 91.2269 85.1131 91.2269 85.1131 90.9988C85.1131 90.8306 84.957 90.8306 84.7529 90.8306H83.6601L84.0924 89.1255C84.1405 88.9453 84.1405 88.8853 84.1405 88.8733C84.1405 88.6211 83.9483 88.501 83.7442 88.501C83.3359 88.501 83.2519 88.8253 83.1198 89.3656L82.7475 90.8306H81.5947C81.3666 90.8306 81.2104 90.8306 81.2104 91.0588C81.2104 91.2269 81.3666 91.2269 81.5707 91.2269H82.6514L81.9309 94.1089C81.8589 94.4091 81.7508 94.8294 81.7508 94.9975C81.7508 95.718 82.3392 96.1263 82.9757 96.1263C84.2606 96.1263 84.9931 94.4331 84.9931 94.289C84.9931 94.1569 84.885 94.1329 84.8129 94.1329C84.6808 94.1329 84.6688 94.181 84.5848 94.3611C84.3446 94.9375 83.7442 95.7901 83.0117 95.7901C82.7595 95.7901 82.6154 95.622 82.6154 95.2257C82.6154 94.9975 82.6514 94.8654 82.6875 94.7093L83.5641 91.2269Z" fill="#8DA0CB"/>
<path d="M89.2282 93.0042C89.2282 91.8634 89.0361 90.4944 88.2916 89.0774C87.7032 87.9727 86.6104 87 86.3943 87C86.2742 87 86.2382 87.0841 86.2382 87.1441C86.2382 87.1921 86.2382 87.2161 86.3823 87.3602C88.0634 88.9574 88.4477 91.1549 88.4477 93.0042C88.4477 96.4505 87.0187 98.0837 86.4063 98.636C86.2502 98.7922 86.2382 98.8042 86.2382 98.8642C86.2382 98.9242 86.2742 99.0083 86.3943 99.0083C86.5864 99.0083 87.1868 98.3959 87.2829 98.2878C88.892 96.6066 89.2282 94.4451 89.2282 93.0042Z" fill="#8DA0CB"/>
<path d="M96.3095 98.9583C96.3095 97.5894 96.1294 95.3558 95.1207 93.2664C94.058 91.1049 92.581 89.9341 92.3828 89.9341C92.3108 89.9341 92.2207 89.9701 92.2207 90.0782C92.2207 90.1322 92.2207 90.1682 92.5269 90.4745C94.3282 92.2937 95.3369 95.2658 95.3369 98.9403C95.3369 102.435 94.4903 105.443 92.4008 107.568C92.2207 107.73 92.2207 107.766 92.2207 107.82C92.2207 107.929 92.3108 107.965 92.3828 107.965C92.617 107.965 94.094 106.668 94.9766 104.902C95.8952 103.065 96.3095 101.12 96.3095 98.9583Z" fill="#8DA0CB"/>
<path d="M103.168 98.9583C103.168 97.5894 102.988 95.3558 101.98 93.2664C100.917 91.1049 99.4398 89.9341 99.2417 89.9341C99.1697 89.9341 99.0796 89.9701 99.0796 90.0782C99.0796 90.1322 99.0796 90.1682 99.3858 90.4745C101.187 92.2937 102.196 95.2658 102.196 98.9403C102.196 102.435 101.349 105.443 99.2597 107.568C99.0796 107.73 99.0796 107.766 99.0796 107.82C99.0796 107.929 99.1697 107.965 99.2417 107.965C99.4759 107.965 100.953 106.668 101.835 104.902C102.754 103.065 103.168 101.12 103.168 98.9583Z" fill="#8DA0CB"/>
<path d="M326.089 107.82C326.089 107.766 326.089 107.73 325.783 107.424C323.981 105.605 322.973 102.633 322.973 98.9583C322.973 95.4639 323.819 92.4558 325.909 90.3304C326.089 90.1682 326.089 90.1322 326.089 90.0782C326.089 89.9701 325.999 89.9341 325.927 89.9341C325.693 89.9341 324.216 91.231 323.333 92.9962C322.414 94.8155 322 96.7428 322 98.9583C322 100.561 322.252 102.705 323.189 104.632C324.252 106.794 325.729 107.965 325.927 107.965C325.999 107.965 326.089 107.929 326.089 107.82Z" fill="#E5C494"/>
<path d="M335.073 94.3831C335.073 92.5459 334.497 90.7626 333.02 90.7626C330.498 90.7626 327.814 96.0403 327.814 100.003C327.814 100.832 327.994 103.624 329.886 103.624C332.335 103.624 335.073 98.472 335.073 94.3831ZM329.615 96.9229C329.886 95.8602 330.264 94.3471 330.984 93.0682C331.579 91.9875 332.209 91.1229 333.002 91.1229C333.596 91.1229 333.992 91.6272 333.992 93.3564C333.992 94.0049 333.938 94.9055 333.416 96.9229H329.615ZM333.29 97.4633C332.84 99.2285 332.461 100.363 331.813 101.498C331.29 102.417 330.66 103.263 329.904 103.263C329.345 103.263 328.895 102.831 328.895 101.048C328.895 99.8769 329.183 98.6521 329.471 97.4633H333.29Z" fill="#E5C494"/>
<path d="M339.801 99.0083C339.898 99.0083 340.042 99.0083 340.042 98.8642C340.042 98.8162 340.03 98.8042 339.874 98.6481C338.228 97.099 337.82 94.8654 337.82 93.0042C337.82 89.5458 339.249 87.9246 339.862 87.3723C340.03 87.2161 340.042 87.2041 340.042 87.1441C340.042 87.0841 339.994 87 339.874 87C339.681 87 339.081 87.6124 338.985 87.7205C337.376 89.4017 337.04 91.5632 337.04 93.0042C337.04 95.694 338.168 97.8555 339.801 99.0083Z" fill="#E5C494"/>
<path d="M343.418 91.2269H344.595C344.823 91.2269 344.967 91.2269 344.967 90.9988C344.967 90.8306 344.811 90.8306 344.607 90.8306H343.514L343.947 89.1255C343.995 88.9453 343.995 88.8853 343.995 88.8733C343.995 88.6211 343.803 88.501 343.598 88.501C343.19 88.501 343.106 88.8253 342.974 89.3656L342.602 90.8306H341.449C341.221 90.8306 341.065 90.8306 341.065 91.0588C341.065 91.2269 341.221 91.2269 341.425 91.2269H342.506L341.785 94.1089C341.713 94.4091 341.605 94.8294 341.605 94.9975C341.605 95.718 342.193 96.1263 342.83 96.1263C344.115 96.1263 344.847 94.4331 344.847 94.289C344.847 94.1569 344.739 94.1329 344.667 94.1329C344.535 94.1329 344.523 94.181 344.439 94.3611C344.199 94.9375 343.598 95.7901 342.866 95.7901C342.614 95.7901 342.47 95.622 342.47 95.2257C342.47 94.9975 342.506 94.8654 342.542 94.7093L343.418 91.2269Z" fill="#E5C494"/>
<path d="M350.607 93.2803H354.138C354.306 93.2803 354.57 93.2803 354.57 93.0041C354.57 92.728 354.306 92.728 354.138 92.728H350.607V89.1855C350.607 89.0174 350.607 88.7532 350.331 88.7532C350.055 88.7532 350.055 89.0174 350.055 89.1855V92.728H346.513C346.345 92.728 346.08 92.728 346.08 93.0041C346.08 93.2803 346.345 93.2803 346.513 93.2803H350.055V96.8228C350.055 96.9909 350.055 97.2551 350.331 97.2551C350.607 97.2551 350.607 96.9909 350.607 96.8228V93.2803Z" fill="#E5C494"/>
<path d="M359.066 88.3569C359.066 88.0327 359.042 88.0207 358.718 88.0207C358.226 88.501 357.589 88.7892 356.448 88.7892V89.1855C356.773 89.1855 357.421 89.1855 358.118 88.8613V95.0215C358.118 95.4658 358.081 95.6099 356.941 95.6099H356.52V96.0062C357.013 95.9702 358.045 95.9702 358.586 95.9702C359.126 95.9702 360.171 95.9702 360.663 96.0062V95.6099H360.243C359.102 95.6099 359.066 95.4658 359.066 95.0215V88.3569Z" fill="#E5C494"/>
<path d="M365.386 93.0042C365.386 91.8634 365.193 90.4944 364.449 89.0774C363.861 87.9727 362.768 87 362.552 87C362.432 87 362.396 87.0841 362.396 87.1441C362.396 87.1921 362.396 87.2161 362.54 87.3602C364.221 88.9574 364.605 91.1549 364.605 93.0042C364.605 96.4505 363.176 98.0837 362.564 98.636C362.408 98.7922 362.396 98.8042 362.396 98.8642C362.396 98.9242 362.432 99.0083 362.552 99.0083C362.744 99.0083 363.344 98.3959 363.44 98.2878C365.049 96.6066 365.386 94.4451 365.386 93.0042Z" fill="#E5C494"/>
<path d="M370.9 103.515C370.9 102.471 370.558 101.696 369.819 101.696C369.243 101.696 368.955 102.165 368.955 102.561C368.955 102.957 369.225 103.443 369.837 103.443C370.071 103.443 370.269 103.371 370.432 103.209C370.468 103.173 370.486 103.173 370.504 103.173C370.54 103.173 370.54 103.425 370.54 103.515C370.54 104.11 370.432 105.281 369.387 106.452C369.189 106.668 369.189 106.704 369.189 106.74C369.189 106.83 369.279 106.92 369.369 106.92C369.513 106.92 370.9 105.587 370.9 103.515Z" fill="#E5C494"/>
<path d="M378.963 103.443C383.16 103.443 389.086 100.237 389.086 95.3198C389.086 93.7167 388.33 92.708 387.447 92.1496C385.898 91.1409 384.241 91.1409 382.53 91.1409C380.981 91.1409 379.918 91.1409 378.405 91.7894C376.009 92.8521 375.667 94.3471 375.667 94.4912C375.667 94.5993 375.739 94.6353 375.847 94.6353C376.135 94.6353 376.549 94.3832 376.694 94.2931C377.072 94.0409 377.126 93.9329 377.234 93.5906C377.486 92.8701 377.99 92.2397 380.26 92.1316C379.972 95.8962 379.053 99.3366 377.792 102.489C377.126 102.723 376.694 103.137 376.694 103.317C376.694 103.425 376.712 103.443 377.108 103.443H378.963ZM379.053 102.453C381.107 97.4273 381.485 94.2931 381.737 92.1316C382.944 92.1316 387.555 92.1316 387.555 96.0944C387.555 99.6248 384.385 102.453 380.026 102.453H379.053Z" fill="#E5C494"/>
<path d="M395.538 107.82C395.538 107.766 395.538 107.73 395.232 107.424C393.43 105.605 392.422 102.633 392.422 98.9583C392.422 95.4639 393.268 92.4558 395.358 90.3304C395.538 90.1682 395.538 90.1322 395.538 90.0782C395.538 89.9701 395.448 89.9341 395.376 89.9341C395.142 89.9341 393.665 91.231 392.782 92.9962C391.863 94.8155 391.449 96.7428 391.449 98.9583C391.449 100.561 391.701 102.705 392.638 104.632C393.701 106.794 395.178 107.965 395.376 107.965C395.448 107.965 395.538 107.929 395.538 107.82Z" fill="#E5C494"/>
<path d="M404.522 94.3831C404.522 92.5459 403.946 90.7626 402.469 90.7626C399.947 90.7626 397.263 96.0403 397.263 100.003C397.263 100.832 397.443 103.624 399.334 103.624C401.784 103.624 404.522 98.472 404.522 94.3831ZM399.064 96.9229C399.334 95.8602 399.713 94.3471 400.433 93.0682C401.028 91.9875 401.658 91.1229 402.451 91.1229C403.045 91.1229 403.441 91.6272 403.441 93.3564C403.441 94.0049 403.387 94.9055 402.865 96.9229H399.064ZM402.739 97.4633C402.289 99.2285 401.91 100.363 401.262 101.498C400.739 102.417 400.109 103.263 399.353 103.263C398.794 103.263 398.344 102.831 398.344 101.048C398.344 99.8769 398.632 98.6521 398.92 97.4633H402.739Z" fill="#E5C494"/>
<path d="M409.25 99.0083C409.346 99.0083 409.49 99.0083 409.49 98.8642C409.49 98.8162 409.478 98.8042 409.322 98.6481C407.677 97.099 407.269 94.8654 407.269 93.0042C407.269 89.5458 408.698 87.9246 409.31 87.3723C409.478 87.2161 409.49 87.2041 409.49 87.1441C409.49 87.0841 409.442 87 409.322 87C409.13 87 408.53 87.6124 408.434 87.7205C406.825 89.4017 406.488 91.5632 406.488 93.0042C406.488 95.694 407.617 97.8555 409.25 99.0083Z" fill="#E5C494"/>
<path d="M412.867 91.2269H414.044C414.272 91.2269 414.416 91.2269 414.416 90.9988C414.416 90.8306 414.26 90.8306 414.056 90.8306H412.963L413.396 89.1255C413.444 88.9453 413.444 88.8853 413.444 88.8733C413.444 88.6211 413.252 88.501 413.047 88.501C412.639 88.501 412.555 88.8253 412.423 89.3656L412.051 90.8306H410.898C410.67 90.8306 410.514 90.8306 410.514 91.0588C410.514 91.2269 410.67 91.2269 410.874 91.2269H411.955L411.234 94.1089C411.162 94.4091 411.054 94.8294 411.054 94.9975C411.054 95.718 411.642 96.1263 412.279 96.1263C413.564 96.1263 414.296 94.4331 414.296 94.289C414.296 94.1569 414.188 94.1329 414.116 94.1329C413.984 94.1329 413.972 94.181 413.888 94.3611C413.648 94.9375 413.047 95.7901 412.315 95.7901C412.063 95.7901 411.919 95.622 411.919 95.2257C411.919 94.9975 411.955 94.8654 411.991 94.7093L412.867 91.2269Z" fill="#E5C494"/>
<path d="M418.531 93.0042C418.531 91.8634 418.339 90.4944 417.595 89.0774C417.006 87.9727 415.914 87 415.697 87C415.577 87 415.541 87.0841 415.541 87.1441C415.541 87.1921 415.541 87.2161 415.685 87.3602C417.367 88.9574 417.751 91.1549 417.751 93.0042C417.751 96.4505 416.322 98.0837 415.709 98.636C415.553 98.7922 415.541 98.8042 415.541 98.8642C415.541 98.9242 415.577 99.0083 415.697 99.0083C415.89 99.0083 416.49 98.3959 416.586 98.2878C418.195 96.6066 418.531 94.4451 418.531 93.0042Z" fill="#E5C494"/>
<path d="M425.613 98.9583C425.613 97.5894 425.433 95.3558 424.424 93.2664C423.361 91.1049 421.884 89.9341 421.686 89.9341C421.614 89.9341 421.524 89.9701 421.524 90.0782C421.524 90.1322 421.524 90.1682 421.83 90.4745C423.631 92.2937 424.64 95.2658 424.64 98.9403C424.64 102.435 423.793 105.443 421.704 107.568C421.524 107.73 421.524 107.766 421.524 107.82C421.524 107.929 421.614 107.965 421.686 107.965C421.92 107.965 423.397 106.668 424.28 104.902C425.198 103.065 425.613 101.12 425.613 98.9583Z" fill="#E5C494"/>
<path d="M432.472 98.9583C432.472 97.5894 432.291 95.3558 431.283 93.2664C430.22 91.1049 428.743 89.9341 428.545 89.9341C428.473 89.9341 428.383 89.9701 428.383 90.0782C428.383 90.1322 428.383 90.1682 428.689 90.4745C430.49 92.2937 431.499 95.2658 431.499 98.9403C431.499 102.435 430.652 105.443 428.563 107.568C428.383 107.73 428.383 107.766 428.383 107.82C428.383 107.929 428.473 107.965 428.545 107.965C428.779 107.965 430.256 106.668 431.139 104.902C432.057 103.065 432.472 101.12 432.472 98.9583Z" fill="#E5C494"/>
<path d="M698.089 103.82C698.089 103.766 698.089 103.73 697.783 103.424C695.981 101.605 694.973 98.6329 694.973 94.9583C694.973 91.4639 695.819 88.4558 697.909 86.3304C698.089 86.1682 698.089 86.1322 698.089 86.0782C698.089 85.9701 697.999 85.9341 697.927 85.9341C697.693 85.9341 696.216 87.231 695.333 88.9962C694.414 90.8155 694 92.7428 694 94.9583C694 96.5614 694.252 98.7049 695.189 100.632C696.252 102.794 697.729 103.965 697.927 103.965C697.999 103.965 698.089 103.929 698.089 103.82Z" fill="#8DA0CB"/>
<path d="M707.073 90.3831C707.073 88.5459 706.497 86.7626 705.02 86.7626C702.498 86.7626 699.814 92.0403 699.814 96.003C699.814 96.8316 699.994 99.6235 701.886 99.6235C704.335 99.6235 707.073 94.472 707.073 90.3831ZM701.615 92.9229C701.886 91.8602 702.264 90.3471 702.984 89.0682C703.579 87.9875 704.209 87.1229 705.002 87.1229C705.596 87.1229 705.992 87.6272 705.992 89.3564C705.992 90.0049 705.938 90.9055 705.416 92.9229H701.615ZM705.29 93.4633C704.84 95.2285 704.461 96.3633 703.813 97.4981C703.29 98.4167 702.66 99.2633 701.904 99.2633C701.345 99.2633 700.895 98.831 700.895 97.0477C700.895 95.8769 701.183 94.6521 701.471 93.4633H705.29Z" fill="#8DA0CB"/>
<path d="M711.801 95.0083C711.898 95.0083 712.042 95.0083 712.042 94.8642C712.042 94.8162 712.03 94.8042 711.874 94.6481C710.228 93.099 709.82 90.8654 709.82 89.0042C709.82 85.5458 711.249 83.9246 711.862 83.3723C712.03 83.2161 712.042 83.2041 712.042 83.1441C712.042 83.0841 711.994 83 711.874 83C711.681 83 711.081 83.6124 710.985 83.7205C709.376 85.4017 709.04 87.5632 709.04 89.0042C709.04 91.694 710.168 93.8555 711.801 95.0083Z" fill="#8DA0CB"/>
<path d="M715.418 87.2269H716.595C716.823 87.2269 716.967 87.2269 716.967 86.9988C716.967 86.8306 716.811 86.8306 716.607 86.8306H715.514L715.947 85.1255C715.995 84.9453 715.995 84.8853 715.995 84.8733C715.995 84.6211 715.803 84.501 715.598 84.501C715.19 84.501 715.106 84.8253 714.974 85.3656L714.602 86.8306H713.449C713.221 86.8306 713.065 86.8306 713.065 87.0588C713.065 87.2269 713.221 87.2269 713.425 87.2269H714.506L713.785 90.1089C713.713 90.4091 713.605 90.8294 713.605 90.9975C713.605 91.718 714.193 92.1263 714.83 92.1263C716.115 92.1263 716.847 90.4331 716.847 90.289C716.847 90.1569 716.739 90.1329 716.667 90.1329C716.535 90.1329 716.523 90.181 716.439 90.3611C716.199 90.9375 715.598 91.7901 714.866 91.7901C714.614 91.7901 714.47 91.622 714.47 91.2257C714.47 90.9975 714.506 90.8654 714.542 90.7093L715.418 87.2269Z" fill="#8DA0CB"/>
<path d="M722.608 89.2803H726.138C726.306 89.2803 726.57 89.2803 726.57 89.0041C726.57 88.728 726.306 88.728 726.138 88.728H722.608V85.1855C722.608 85.0174 722.608 84.7532 722.331 84.7532C722.055 84.7532 722.055 85.0174 722.055 85.1855V88.728H718.513C718.345 88.728 718.08 88.728 718.08 89.0041C718.08 89.2803 718.345 89.2803 718.513 89.2803H722.055V92.8228C722.055 92.9909 722.055 93.2551 722.331 93.2551C722.608 93.2551 722.608 92.9909 722.608 92.8228V89.2803Z" fill="#8DA0CB"/>
<path d="M731.066 84.3569C731.066 84.0327 731.042 84.0207 730.718 84.0207C730.226 84.501 729.589 84.7892 728.448 84.7892V85.1855C728.773 85.1855 729.421 85.1855 730.118 84.8613V91.0215C730.118 91.4658 730.081 91.6099 728.941 91.6099H728.52V92.0062C729.013 91.9702 730.045 91.9702 730.586 91.9702C731.126 91.9702 732.171 91.9702 732.663 92.0062V91.6099H732.243C731.102 91.6099 731.066 91.4658 731.066 91.0215V84.3569Z" fill="#8DA0CB"/>
<path d="M737.386 89.0042C737.386 87.8634 737.194 86.4944 736.449 85.0774C735.861 83.9727 734.768 83 734.552 83C734.432 83 734.396 83.0841 734.396 83.1441C734.396 83.1921 734.396 83.2161 734.54 83.3602C736.221 84.9574 736.605 87.1549 736.605 89.0042C736.605 92.4505 735.176 94.0837 734.564 94.636C734.408 94.7922 734.396 94.8042 734.396 94.8642C734.396 94.9242 734.432 95.0083 734.552 95.0083C734.744 95.0083 735.344 94.3959 735.44 94.2878C737.049 92.6066 737.386 90.4451 737.386 89.0042Z" fill="#8DA0CB"/>
<path d="M742.9 99.5155C742.9 98.4708 742.558 97.6962 741.819 97.6962C741.243 97.6962 740.955 98.1646 740.955 98.5608C740.955 98.9571 741.225 99.4434 741.837 99.4434C742.071 99.4434 742.269 99.3714 742.432 99.2093C742.468 99.1732 742.486 99.1732 742.504 99.1732C742.54 99.1732 742.54 99.4254 742.54 99.5155C742.54 100.11 742.432 101.281 741.387 102.452C741.189 102.668 741.189 102.704 741.189 102.74C741.189 102.83 741.279 102.92 741.369 102.92C741.513 102.92 742.9 101.587 742.9 99.5155Z" fill="#8DA0CB"/>
<path d="M750.963 99.4434C755.16 99.4434 761.086 96.2372 761.086 91.3198C761.086 89.7167 760.33 88.708 759.447 88.1496C757.898 87.1409 756.241 87.1409 754.53 87.1409C752.981 87.1409 751.918 87.1409 750.405 87.7894C748.009 88.8521 747.667 90.3471 747.667 90.4912C747.667 90.5993 747.739 90.6353 747.847 90.6353C748.135 90.6353 748.549 90.3832 748.694 90.2931C749.072 90.0409 749.126 89.9329 749.234 89.5906C749.486 88.8701 749.99 88.2397 752.26 88.1316C751.972 91.8962 751.053 95.3366 749.792 98.4888C749.126 98.7229 748.694 99.1372 748.694 99.3173C748.694 99.4254 748.712 99.4434 749.108 99.4434H750.963ZM751.053 98.4528C753.107 93.4273 753.485 90.2931 753.737 88.1316C754.944 88.1316 759.555 88.1316 759.555 92.0944C759.555 95.6248 756.385 98.4528 752.026 98.4528H751.053Z" fill="#8DA0CB"/>
<path d="M767.538 103.82C767.538 103.766 767.538 103.73 767.232 103.424C765.43 101.605 764.422 98.6329 764.422 94.9583C764.422 91.4639 765.268 88.4558 767.358 86.3304C767.538 86.1682 767.538 86.1322 767.538 86.0782C767.538 85.9701 767.448 85.9341 767.376 85.9341C767.142 85.9341 765.665 87.231 764.782 88.9962C763.863 90.8155 763.449 92.7428 763.449 94.9583C763.449 96.5614 763.701 98.7049 764.638 100.632C765.701 102.794 767.178 103.965 767.376 103.965C767.448 103.965 767.538 103.929 767.538 103.82Z" fill="#8DA0CB"/>
<path d="M776.522 90.3831C776.522 88.5459 775.946 86.7626 774.469 86.7626C771.947 86.7626 769.263 92.0403 769.263 96.003C769.263 96.8316 769.443 99.6235 771.334 99.6235C773.784 99.6235 776.522 94.472 776.522 90.3831ZM771.064 92.9229C771.334 91.8602 771.713 90.3471 772.433 89.0682C773.028 87.9875 773.658 87.1229 774.451 87.1229C775.045 87.1229 775.441 87.6272 775.441 89.3564C775.441 90.0049 775.387 90.9055 774.865 92.9229H771.064ZM774.739 93.4633C774.288 95.2285 773.91 96.3633 773.262 97.4981C772.739 98.4167 772.109 99.2633 771.352 99.2633C770.794 99.2633 770.344 98.831 770.344 97.0477C770.344 95.8769 770.632 94.6521 770.92 93.4633H774.739Z" fill="#8DA0CB"/>
<path d="M781.25 95.0083C781.346 95.0083 781.49 95.0083 781.49 94.8642C781.49 94.8162 781.478 94.8042 781.322 94.6481C779.677 93.099 779.269 90.8654 779.269 89.0042C779.269 85.5458 780.698 83.9246 781.31 83.3723C781.478 83.2161 781.49 83.2041 781.49 83.1441C781.49 83.0841 781.442 83 781.322 83C781.13 83 780.53 83.6124 780.434 83.7205C778.825 85.4017 778.488 87.5632 778.488 89.0042C778.488 91.694 779.617 93.8555 781.25 95.0083Z" fill="#8DA0CB"/>
<path d="M784.867 87.2269H786.044C786.272 87.2269 786.416 87.2269 786.416 86.9988C786.416 86.8306 786.26 86.8306 786.056 86.8306H784.963L785.396 85.1255C785.444 84.9453 785.444 84.8853 785.444 84.8733C785.444 84.6211 785.252 84.501 785.047 84.501C784.639 84.501 784.555 84.8253 784.423 85.3656L784.051 86.8306H782.898C782.67 86.8306 782.514 86.8306 782.514 87.0588C782.514 87.2269 782.67 87.2269 782.874 87.2269H783.955L783.234 90.1089C783.162 90.4091 783.054 90.8294 783.054 90.9975C783.054 91.718 783.642 92.1263 784.279 92.1263C785.564 92.1263 786.296 90.4331 786.296 90.289C786.296 90.1569 786.188 90.1329 786.116 90.1329C785.984 90.1329 785.972 90.181 785.888 90.3611C785.648 90.9375 785.047 91.7901 784.315 91.7901C784.063 91.7901 783.919 91.622 783.919 91.2257C783.919 90.9975 783.955 90.8654 783.991 90.7093L784.867 87.2269Z" fill="#8DA0CB"/>
<path d="M792.056 89.2803H795.587C795.755 89.2803 796.019 89.2803 796.019 89.0041C796.019 88.728 795.755 88.728 795.587 88.728H792.056V85.1855C792.056 85.0174 792.056 84.7532 791.78 84.7532C791.504 84.7532 791.504 85.0174 791.504 85.1855V88.728H787.962C787.793 88.728 787.529 88.728 787.529 89.0041C787.529 89.2803 787.793 89.2803 787.962 89.2803H791.504V92.8228C791.504 92.9909 791.504 93.2551 791.78 93.2551C792.056 93.2551 792.056 92.9909 792.056 92.8228V89.2803Z" fill="#8DA0CB"/>
<path d="M800.515 84.3569C800.515 84.0327 800.491 84.0207 800.167 84.0207C799.675 84.501 799.038 84.7892 797.897 84.7892V85.1855C798.222 85.1855 798.87 85.1855 799.566 84.8613V91.0215C799.566 91.4658 799.53 91.6099 798.39 91.6099H797.969V92.0062C798.462 91.9702 799.494 91.9702 800.035 91.9702C800.575 91.9702 801.62 91.9702 802.112 92.0062V91.6099H801.692C800.551 91.6099 800.515 91.4658 800.515 91.0215V84.3569Z" fill="#8DA0CB"/>
<path d="M806.835 89.0042C806.835 87.8634 806.642 86.4944 805.898 85.0774C805.309 83.9727 804.217 83 804.001 83C803.881 83 803.844 83.0841 803.844 83.1441C803.844 83.1921 803.844 83.2161 803.989 83.3602C805.67 84.9574 806.054 87.1549 806.054 89.0042C806.054 92.4505 804.625 94.0837 804.013 94.636C803.856 94.7922 803.844 94.8042 803.844 94.8642C803.844 94.9242 803.881 95.0083 804.001 95.0083C804.193 95.0083 804.793 94.3959 804.889 94.2878C806.498 92.6066 806.835 90.4451 806.835 89.0042Z" fill="#8DA0CB"/>
<path d="M813.916 94.9583C813.916 93.5894 813.736 91.3558 812.727 89.2664C811.664 87.1049 810.187 85.9341 809.989 85.9341C809.917 85.9341 809.827 85.9701 809.827 86.0782C809.827 86.1322 809.827 86.1682 810.133 86.4745C811.934 88.2937 812.943 91.2658 812.943 94.9403C812.943 98.4347 812.097 101.443 810.007 103.568C809.827 103.73 809.827 103.766 809.827 103.82C809.827 103.929 809.917 103.965 809.989 103.965C810.223 103.965 811.7 102.668 812.583 100.902C813.502 99.0652 813.916 97.1198 813.916 94.9583Z" fill="#8DA0CB"/>
<path d="M820.775 94.9583C820.775 93.5894 820.594 91.3558 819.586 89.2664C818.523 87.1049 817.046 85.9341 816.848 85.9341C816.776 85.9341 816.686 85.9701 816.686 86.0782C816.686 86.1322 816.686 86.1682 816.992 86.4745C818.793 88.2937 819.802 91.2658 819.802 94.9403C819.802 98.4347 818.955 101.443 816.866 103.568C816.686 103.73 816.686 103.766 816.686 103.82C816.686 103.929 816.776 103.965 816.848 103.965C817.082 103.965 818.559 102.668 819.442 100.902C820.36 99.0652 820.775 97.1198 820.775 94.9583Z" fill="#8DA0CB"/>
<path d="M178.259 109.383C178.259 107.546 177.683 105.763 176.206 105.763C173.684 105.763 171 111.04 171 115.003C171 115.832 171.18 118.624 173.071 118.624C175.521 118.624 178.259 113.472 178.259 109.383ZM172.801 111.923C173.071 110.86 173.45 109.347 174.17 108.068C174.765 106.987 175.395 106.123 176.188 106.123C176.782 106.123 177.178 106.627 177.178 108.356C177.178 109.005 177.124 109.905 176.602 111.923H172.801ZM176.476 112.463C176.025 114.228 175.647 115.363 174.999 116.498C174.476 117.417 173.846 118.263 173.089 118.263C172.531 118.263 172.081 117.831 172.081 116.048C172.081 114.877 172.369 113.652 172.657 112.463H176.476Z" fill="white"/>
<path d="M182.987 114.008C183.083 114.008 183.227 114.008 183.227 113.864C183.227 113.816 183.215 113.804 183.059 113.648C181.414 112.099 181.006 109.865 181.006 108.004C181.006 104.546 182.435 102.925 183.047 102.372C183.215 102.216 183.227 102.204 183.227 102.144C183.227 102.084 183.179 102 183.059 102C182.867 102 182.267 102.612 182.171 102.72C180.562 104.402 180.225 106.563 180.225 108.004C180.225 110.694 181.354 112.856 182.987 114.008Z" fill="white"/>
<path d="M186.604 106.227H187.781C188.009 106.227 188.153 106.227 188.153 105.999C188.153 105.831 187.997 105.831 187.793 105.831H186.7L187.133 104.125C187.181 103.945 187.181 103.885 187.181 103.873C187.181 103.621 186.989 103.501 186.784 103.501C186.376 103.501 186.292 103.825 186.16 104.366L185.788 105.831H184.635C184.407 105.831 184.251 105.831 184.251 106.059C184.251 106.227 184.407 106.227 184.611 106.227H185.692L184.971 109.109C184.899 109.409 184.791 109.829 184.791 109.998C184.791 110.718 185.379 111.126 186.016 111.126C187.301 111.126 188.033 109.433 188.033 109.289C188.033 109.157 187.925 109.133 187.853 109.133C187.721 109.133 187.709 109.181 187.625 109.361C187.385 109.937 186.784 110.79 186.052 110.79C185.8 110.79 185.656 110.622 185.656 110.226C185.656 109.998 185.692 109.865 185.728 109.709L186.604 106.227Z" fill="white"/>
<path d="M192.268 108.004C192.268 106.863 192.076 105.494 191.332 104.077C190.743 102.973 189.651 102 189.434 102C189.314 102 189.278 102.084 189.278 102.144C189.278 102.192 189.278 102.216 189.422 102.36C191.104 103.957 191.488 106.155 191.488 108.004C191.488 111.451 190.059 113.084 189.446 113.636C189.29 113.792 189.278 113.804 189.278 113.864C189.278 113.924 189.314 114.008 189.434 114.008C189.627 114.008 190.227 113.396 190.323 113.288C191.932 111.607 192.268 109.445 192.268 108.004Z" fill="white"/>
<path d="M215.629 114.301C215.953 114.301 216.277 114.301 216.277 113.94C216.277 113.58 215.953 113.58 215.629 113.58H202.246C203.236 112.824 203.723 112.085 203.867 111.851C204.677 110.608 204.821 109.473 204.821 109.455C204.821 109.239 204.605 109.239 204.461 109.239C204.155 109.239 204.137 109.275 204.065 109.599C203.651 111.365 202.588 112.86 200.552 113.706C200.354 113.778 200.282 113.814 200.282 113.94C200.282 114.066 200.372 114.102 200.552 114.174C202.426 114.949 203.633 116.354 204.083 118.371C204.137 118.588 204.155 118.642 204.461 118.642C204.605 118.642 204.821 118.642 204.821 118.425C204.821 118.389 204.659 117.255 203.903 116.048C203.542 115.507 203.02 114.877 202.246 114.301H215.629Z" fill="white"/>
<path d="M230.269 109.383C230.269 107.546 229.693 105.763 228.215 105.763C225.694 105.763 223.01 111.04 223.01 115.003C223.01 115.832 223.19 118.624 225.081 118.624C227.531 118.624 230.269 113.472 230.269 109.383ZM224.811 111.923C225.081 110.86 225.46 109.347 226.18 108.068C226.774 106.987 227.405 106.123 228.197 106.123C228.792 106.123 229.188 106.627 229.188 108.356C229.188 109.005 229.134 109.905 228.612 111.923H224.811ZM228.486 112.463C228.035 114.228 227.657 115.363 227.009 116.498C226.486 117.417 225.856 118.263 225.099 118.263C224.541 118.263 224.091 117.831 224.091 116.048C224.091 114.877 224.379 113.652 224.667 112.463H228.486Z" fill="white"/>
<path d="M234.997 114.008C235.093 114.008 235.237 114.008 235.237 113.864C235.237 113.816 235.225 113.804 235.069 113.648C233.424 112.099 233.016 109.865 233.016 108.004C233.016 104.546 234.445 102.925 235.057 102.372C235.225 102.216 235.237 102.204 235.237 102.144C235.237 102.084 235.189 102 235.069 102C234.877 102 234.277 102.612 234.181 102.72C232.572 104.402 232.235 106.563 232.235 108.004C232.235 110.694 233.364 112.856 234.997 114.008Z" fill="white"/>
<path d="M238.614 106.227H239.791C240.019 106.227 240.163 106.227 240.163 105.999C240.163 105.831 240.007 105.831 239.803 105.831H238.71L239.142 104.125C239.191 103.945 239.191 103.885 239.191 103.873C239.191 103.621 238.998 103.501 238.794 103.501C238.386 103.501 238.302 103.825 238.17 104.366L237.798 105.831H236.645C236.417 105.831 236.26 105.831 236.26 106.059C236.26 106.227 236.417 106.227 236.621 106.227H237.701L236.981 109.109C236.909 109.409 236.801 109.829 236.801 109.998C236.801 110.718 237.389 111.126 238.026 111.126C239.311 111.126 240.043 109.433 240.043 109.289C240.043 109.157 239.935 109.133 239.863 109.133C239.731 109.133 239.719 109.181 239.635 109.361C239.395 109.937 238.794 110.79 238.062 110.79C237.81 110.79 237.665 110.622 237.665 110.226C237.665 109.998 237.701 109.865 237.738 109.709L238.614 106.227Z" fill="white"/>
<path d="M245.803 108.28H249.334C249.502 108.28 249.766 108.28 249.766 108.004C249.766 107.728 249.502 107.728 249.334 107.728H245.803V104.186C245.803 104.017 245.803 103.753 245.527 103.753C245.251 103.753 245.251 104.017 245.251 104.186V107.728H241.709C241.54 107.728 241.276 107.728 241.276 108.004C241.276 108.28 241.54 108.28 241.709 108.28H245.251V111.823C245.251 111.991 245.251 112.255 245.527 112.255C245.803 112.255 245.803 111.991 245.803 111.823V108.28Z" fill="white"/>
<path d="M254.262 103.357C254.262 103.033 254.238 103.021 253.914 103.021C253.422 103.501 252.785 103.789 251.644 103.789V104.185C251.969 104.185 252.617 104.185 253.313 103.861V110.022C253.313 110.466 253.277 110.61 252.137 110.61H251.716V111.006C252.209 110.97 253.241 110.97 253.782 110.97C254.322 110.97 255.367 110.97 255.859 111.006V110.61H255.439C254.298 110.61 254.262 110.466 254.262 110.022V103.357Z" fill="white"/>
<path d="M260.581 108.004C260.581 106.863 260.389 105.494 259.645 104.077C259.056 102.973 257.964 102 257.747 102C257.627 102 257.591 102.084 257.591 102.144C257.591 102.192 257.591 102.216 257.735 102.36C259.417 103.957 259.801 106.155 259.801 108.004C259.801 111.451 258.372 113.084 257.759 113.636C257.603 113.792 257.591 113.804 257.591 113.864C257.591 113.924 257.627 114.008 257.747 114.008C257.94 114.008 258.54 113.396 258.636 113.288C260.245 111.607 260.581 109.445 260.581 108.004Z" fill="white"/>
<path d="M497.296 118.443C501.493 118.443 507.419 115.237 507.419 110.32C507.419 108.717 506.663 107.708 505.78 107.15C504.231 106.141 502.574 106.141 500.863 106.141C499.314 106.141 498.251 106.141 496.738 106.789C494.342 107.852 494 109.347 494 109.491C494 109.599 494.072 109.635 494.18 109.635C494.468 109.635 494.883 109.383 495.027 109.293C495.405 109.041 495.459 108.933 495.567 108.591C495.819 107.87 496.324 107.24 498.593 107.132C498.305 110.896 497.386 114.337 496.125 117.489C495.459 117.723 495.027 118.137 495.027 118.317C495.027 118.425 495.045 118.443 495.441 118.443H497.296ZM497.386 117.453C499.44 112.427 499.818 109.293 500.07 107.132C501.277 107.132 505.888 107.132 505.888 111.094C505.888 114.625 502.718 117.453 498.359 117.453H497.386Z" fill="white"/>
<path d="M513.871 122.82C513.871 122.766 513.871 122.73 513.565 122.424C511.763 120.605 510.755 117.633 510.755 113.958C510.755 110.464 511.601 107.456 513.691 105.33C513.871 105.168 513.871 105.132 513.871 105.078C513.871 104.97 513.781 104.934 513.709 104.934C513.475 104.934 511.998 106.231 511.115 107.996C510.196 109.815 509.782 111.743 509.782 113.958C509.782 115.561 510.034 117.705 510.971 119.632C512.034 121.794 513.511 122.965 513.709 122.965C513.781 122.965 513.871 122.929 513.871 122.82Z" fill="white"/>
<path d="M522.855 109.383C522.855 107.546 522.279 105.763 520.802 105.763C518.28 105.763 515.596 111.04 515.596 115.003C515.596 115.832 515.776 118.624 517.668 118.624C520.117 118.624 522.855 113.472 522.855 109.383ZM517.397 111.923C517.668 110.86 518.046 109.347 518.766 108.068C519.361 106.987 519.991 106.123 520.784 106.123C521.378 106.123 521.774 106.627 521.774 108.356C521.774 109.005 521.72 109.905 521.198 111.923H517.397ZM521.072 112.463C520.622 114.228 520.243 115.363 519.595 116.498C519.073 117.417 518.442 118.263 517.686 118.263C517.127 118.263 516.677 117.831 516.677 116.048C516.677 114.877 516.965 113.652 517.253 112.463H521.072Z" fill="white"/>
<path d="M527.583 114.008C527.68 114.008 527.824 114.008 527.824 113.864C527.824 113.816 527.812 113.804 527.655 113.648C526.01 112.099 525.602 109.865 525.602 108.004C525.602 104.546 527.031 102.925 527.643 102.372C527.812 102.216 527.824 102.204 527.824 102.144C527.824 102.084 527.776 102 527.655 102C527.463 102 526.863 102.612 526.767 102.72C525.158 104.402 524.822 106.563 524.822 108.004C524.822 110.694 525.95 112.856 527.583 114.008Z" fill="white"/>
<path d="M531.2 106.227H532.377C532.605 106.227 532.749 106.227 532.749 105.999C532.749 105.831 532.593 105.831 532.389 105.831H531.296L531.729 104.125C531.777 103.945 531.777 103.885 531.777 103.873C531.777 103.621 531.585 103.501 531.38 103.501C530.972 103.501 530.888 103.825 530.756 104.366L530.384 105.831H529.231C529.003 105.831 528.847 105.831 528.847 106.059C528.847 106.227 529.003 106.227 529.207 106.227H530.288L529.567 109.109C529.495 109.409 529.387 109.829 529.387 109.998C529.387 110.718 529.975 111.126 530.612 111.126C531.897 111.126 532.629 109.433 532.629 109.289C532.629 109.157 532.521 109.133 532.449 109.133C532.317 109.133 532.305 109.181 532.221 109.361C531.981 109.937 531.38 110.79 530.648 110.79C530.396 110.79 530.252 110.622 530.252 110.226C530.252 109.998 530.288 109.865 530.324 109.709L531.2 106.227Z" fill="white"/>
<path d="M536.864 108.004C536.864 106.863 536.672 105.494 535.928 104.077C535.339 102.973 534.247 102 534.03 102C533.91 102 533.874 102.084 533.874 102.144C533.874 102.192 533.874 102.216 534.018 102.36C535.7 103.957 536.084 106.155 536.084 108.004C536.084 111.451 534.655 113.084 534.043 113.636C533.886 113.792 533.874 113.804 533.874 113.864C533.874 113.924 533.91 114.008 534.03 114.008C534.223 114.008 534.823 113.396 534.919 113.288C536.528 111.607 536.864 109.445 536.864 108.004Z" fill="white"/>
<path d="M543.946 113.958C543.946 112.589 543.766 110.356 542.757 108.266C541.694 106.105 540.217 104.934 540.019 104.934C539.947 104.934 539.857 104.97 539.857 105.078C539.857 105.132 539.857 105.168 540.163 105.474C541.964 107.294 542.973 110.266 542.973 113.94C542.973 117.435 542.127 120.443 540.037 122.568C539.857 122.73 539.857 122.766 539.857 122.82C539.857 122.929 539.947 122.965 540.019 122.965C540.253 122.965 541.73 121.668 542.613 119.902C543.531 118.065 543.946 116.12 543.946 113.958Z" fill="white"/>
<path d="M567.084 114.301C567.408 114.301 567.732 114.301 567.732 113.94C567.732 113.58 567.408 113.58 567.084 113.58H553.701C554.691 112.824 555.178 112.085 555.322 111.851C556.132 110.608 556.276 109.473 556.276 109.455C556.276 109.239 556.06 109.239 555.916 109.239C555.61 109.239 555.592 109.275 555.52 109.599C555.106 111.365 554.043 112.86 552.007 113.706C551.809 113.778 551.737 113.814 551.737 113.94C551.737 114.066 551.827 114.102 552.007 114.174C553.881 114.949 555.088 116.354 555.538 118.371C555.592 118.588 555.61 118.642 555.916 118.642C556.06 118.642 556.276 118.642 556.276 118.425C556.276 118.389 556.114 117.255 555.358 116.048C554.997 115.507 554.475 114.877 553.701 114.301H567.084Z" fill="white"/>
<path d="M577.419 118.443C581.616 118.443 587.542 115.237 587.542 110.32C587.542 108.717 586.785 107.708 585.903 107.15C584.354 106.141 582.697 106.141 580.985 106.141C579.436 106.141 578.374 106.141 576.861 106.789C574.465 107.852 574.123 109.347 574.123 109.491C574.123 109.599 574.195 109.635 574.303 109.635C574.591 109.635 575.005 109.383 575.149 109.293C575.528 109.041 575.582 108.933 575.69 108.591C575.942 107.87 576.446 107.24 578.716 107.132C578.428 110.896 577.509 114.337 576.248 117.489C575.582 117.723 575.149 118.137 575.149 118.317C575.149 118.425 575.167 118.443 575.564 118.443H577.419ZM577.509 117.453C579.562 112.427 579.941 109.293 580.193 107.132C581.4 107.132 586.011 107.132 586.011 111.094C586.011 114.625 582.841 117.453 578.482 117.453H577.509Z" fill="white"/>
<path d="M593.993 122.82C593.993 122.766 593.993 122.73 593.687 122.424C591.886 120.605 590.877 117.633 590.877 113.958C590.877 110.464 591.724 107.456 593.813 105.33C593.993 105.168 593.993 105.132 593.993 105.078C593.993 104.97 593.903 104.934 593.831 104.934C593.597 104.934 592.12 106.231 591.238 107.996C590.319 109.815 589.905 111.743 589.905 113.958C589.905 115.561 590.157 117.705 591.093 119.632C592.156 121.794 593.633 122.965 593.831 122.965C593.903 122.965 593.993 122.929 593.993 122.82Z" fill="white"/>
<path d="M602.978 109.383C602.978 107.546 602.401 105.763 600.924 105.763C598.403 105.763 595.719 111.04 595.719 115.003C595.719 115.832 595.899 118.624 597.79 118.624C600.24 118.624 602.978 113.472 602.978 109.383ZM597.52 111.923C597.79 110.86 598.168 109.347 598.889 108.068C599.483 106.987 600.114 106.123 600.906 106.123C601.501 106.123 601.897 106.627 601.897 108.356C601.897 109.005 601.843 109.905 601.321 111.923H597.52ZM601.195 112.463C600.744 114.228 600.366 115.363 599.718 116.498C599.195 117.417 598.565 118.263 597.808 118.263C597.25 118.263 596.799 117.831 596.799 116.048C596.799 114.877 597.088 113.652 597.376 112.463H601.195Z" fill="white"/>
<path d="M607.706 114.008C607.802 114.008 607.946 114.008 607.946 113.864C607.946 113.816 607.934 113.804 607.778 113.648C606.133 112.099 605.725 109.865 605.725 108.004C605.725 104.546 607.154 102.925 607.766 102.372C607.934 102.216 607.946 102.204 607.946 102.144C607.946 102.084 607.898 102 607.778 102C607.586 102 606.986 102.612 606.889 102.72C605.28 104.402 604.944 106.563 604.944 108.004C604.944 110.694 606.073 112.856 607.706 114.008Z" fill="white"/>
<path d="M611.323 106.227H612.5C612.728 106.227 612.872 106.227 612.872 105.999C612.872 105.831 612.716 105.831 612.512 105.831H611.419L611.851 104.125C611.899 103.945 611.899 103.885 611.899 103.873C611.899 103.621 611.707 103.501 611.503 103.501C611.095 103.501 611.011 103.825 610.879 104.366L610.506 105.831H609.354C609.125 105.831 608.969 105.831 608.969 106.059C608.969 106.227 609.125 106.227 609.33 106.227H610.41L609.69 109.109C609.618 109.409 609.51 109.829 609.51 109.998C609.51 110.718 610.098 111.126 610.735 111.126C612.019 111.126 612.752 109.433 612.752 109.289C612.752 109.157 612.644 109.133 612.572 109.133C612.44 109.133 612.428 109.181 612.344 109.361C612.104 109.937 611.503 110.79 610.771 110.79C610.518 110.79 610.374 110.622 610.374 110.226C610.374 109.998 610.41 109.865 610.446 109.709L611.323 106.227Z" fill="white"/>
<path d="M618.512 108.28H622.043C622.211 108.28 622.475 108.28 622.475 108.004C622.475 107.728 622.211 107.728 622.043 107.728H618.512V104.186C618.512 104.017 618.512 103.753 618.236 103.753C617.96 103.753 617.96 104.017 617.96 104.186V107.728H614.417C614.249 107.728 613.985 107.728 613.985 108.004C613.985 108.28 614.249 108.28 614.417 108.28H617.96V111.823C617.96 111.991 617.96 112.255 618.236 112.255C618.512 112.255 618.512 111.991 618.512 111.823V108.28Z" fill="white"/>
<path d="M626.971 103.357C626.971 103.033 626.947 103.021 626.623 103.021C626.13 103.501 625.494 103.789 624.353 103.789V104.185C624.677 104.185 625.326 104.185 626.022 103.861V110.022C626.022 110.466 625.986 110.61 624.845 110.61H624.425V111.006C624.917 110.97 625.95 110.97 626.491 110.97C627.031 110.97 628.076 110.97 628.568 111.006V110.61H628.148C627.007 110.61 626.971 110.466 626.971 110.022V103.357Z" fill="white"/>
<path d="M633.29 108.004C633.29 106.863 633.098 105.494 632.354 104.077C631.765 102.973 630.673 102 630.456 102C630.336 102 630.3 102.084 630.3 102.144C630.3 102.192 630.3 102.216 630.444 102.36C632.126 103.957 632.51 106.155 632.51 108.004C632.51 111.451 631.081 113.084 630.468 113.636C630.312 113.792 630.3 113.804 630.3 113.864C630.3 113.924 630.336 114.008 630.456 114.008C630.649 114.008 631.249 113.396 631.345 113.288C632.954 111.607 633.29 109.445 633.29 108.004Z" fill="white"/>
<path d="M640.372 113.958C640.372 112.589 640.191 110.356 639.183 108.266C638.12 106.105 636.643 104.934 636.445 104.934C636.373 104.934 636.283 104.97 636.283 105.078C636.283 105.132 636.283 105.168 636.589 105.474C638.39 107.294 639.399 110.266 639.399 113.94C639.399 117.435 638.552 120.443 636.463 122.568C636.283 122.73 636.283 122.766 636.283 122.82C636.283 122.929 636.373 122.965 636.445 122.965C636.679 122.965 638.156 121.668 639.039 119.902C639.957 118.065 640.372 116.12 640.372 113.958Z" fill="white"/>
</svg>
