<svg width="453" height="75" viewBox="0 0 453 75" fill="none" xmlns="http://www.w3.org/2000/svg">
<rect width="453" height="75" fill="white"/>
<path d="M141.445 23.3089C141.965 23.1229 142.236 22.5506 142.05 22.0305L139.019 13.5562C138.833 13.0362 138.261 12.7654 137.741 12.9514C137.221 13.1373 136.95 13.7097 137.136 14.2297L139.83 21.7625L132.297 24.4565C131.777 24.6424 131.507 25.2148 131.693 25.7348C131.879 26.2548 132.451 26.5256 132.971 26.3397L141.445 23.3089ZM73.1101 22.8245L73.5499 23.7226L85.8219 17.7129L85.3821 16.8148L84.9423 15.9167L72.6702 21.9264L73.1101 22.8245ZM128.757 16.5231L128.329 17.4271L140.681 23.2712L141.109 22.3673L141.536 21.4634L129.184 15.6192L128.757 16.5231ZM85.3821 16.8148L85.8219 17.7129C99.2098 11.1567 114.854 11.0515 128.329 17.4271L128.757 16.5231L129.184 15.6192C115.16 8.98341 98.8767 9.0929 84.9423 15.9167L85.3821 16.8148Z" fill="black"/>
<rect x="5" y="5" width="67" height="45" rx="10" fill="#D9D9D9"/>
<path d="M24.642 23L22.2557 14.2727H23.3295L25.1534 21.3807H25.2386L27.0966 14.2727H28.2898L30.1477 21.3807H30.233L32.0568 14.2727H33.1307L30.7443 23H29.6534L27.7273 16.0455H27.6591L25.733 23H24.642ZM36.3608 23.1364C35.7699 23.1364 35.2514 22.9957 34.8054 22.7145C34.3622 22.4332 34.0156 22.0398 33.7656 21.5341C33.5185 21.0284 33.3949 20.4375 33.3949 19.7614C33.3949 19.0795 33.5185 18.4844 33.7656 17.9759C34.0156 17.4673 34.3622 17.0724 34.8054 16.7912C35.2514 16.5099 35.7699 16.3693 36.3608 16.3693C36.9517 16.3693 37.4688 16.5099 37.9119 16.7912C38.358 17.0724 38.7045 17.4673 38.9517 17.9759C39.2017 18.4844 39.3267 19.0795 39.3267 19.7614C39.3267 20.4375 39.2017 21.0284 38.9517 21.5341C38.7045 22.0398 38.358 22.4332 37.9119 22.7145C37.4688 22.9957 36.9517 23.1364 36.3608 23.1364ZM36.3608 22.233C36.8097 22.233 37.179 22.1179 37.4688 21.8878C37.7585 21.6577 37.973 21.3551 38.1122 20.9801C38.2514 20.6051 38.321 20.1989 38.321 19.7614C38.321 19.3239 38.2514 18.9162 38.1122 18.5384C37.973 18.1605 37.7585 17.8551 37.4688 17.6222C37.179 17.3892 36.8097 17.2727 36.3608 17.2727C35.9119 17.2727 35.5426 17.3892 35.2528 17.6222C34.9631 17.8551 34.7486 18.1605 34.6094 18.5384C34.4702 18.9162 34.4006 19.3239 34.4006 19.7614C34.4006 20.1989 34.4702 20.6051 34.6094 20.9801C34.7486 21.3551 34.9631 21.6577 35.2528 21.8878C35.5426 22.1179 35.9119 22.233 36.3608 22.233ZM40.8619 23V16.4545H41.8335V17.4432H41.9016C42.021 17.1193 42.2369 16.8565 42.5494 16.6548C42.8619 16.4531 43.2141 16.3523 43.6062 16.3523C43.68 16.3523 43.7724 16.3537 43.8832 16.3565C43.994 16.3594 44.0778 16.3636 44.1346 16.3693V17.392C44.1005 17.3835 44.0224 17.3707 43.9002 17.3537C43.7809 17.3338 43.6545 17.3239 43.521 17.3239C43.2028 17.3239 42.9187 17.3906 42.6687 17.5241C42.4215 17.6548 42.2255 17.8366 42.0806 18.0696C41.9386 18.2997 41.8675 18.5625 41.8675 18.858V23H40.8619ZM46.3324 14.2727V23H45.3267V14.2727H46.3324ZM50.646 23.1364C50.1005 23.1364 49.619 22.9986 49.2013 22.723C48.7837 22.4446 48.457 22.0526 48.2212 21.5469C47.9854 21.0384 47.8675 20.4375 47.8675 19.7443C47.8675 19.0568 47.9854 18.4602 48.2212 17.9545C48.457 17.4489 48.7852 17.0582 49.2056 16.7827C49.6261 16.5071 50.1119 16.3693 50.663 16.3693C51.0891 16.3693 51.4258 16.4403 51.6729 16.5824C51.9229 16.7216 52.1133 16.8807 52.244 17.0597C52.3775 17.2358 52.4812 17.3807 52.555 17.4943H52.6403V14.2727H53.646V23H52.6744V21.9943H52.555C52.4812 22.1136 52.3761 22.2642 52.2397 22.446C52.1033 22.625 51.9087 22.7855 51.6559 22.9276C51.4031 23.0668 51.0664 23.1364 50.646 23.1364ZM50.7823 22.233C51.1857 22.233 51.5266 22.1278 51.805 21.9176C52.0835 21.7045 52.2951 21.4105 52.44 21.0355C52.5849 20.6577 52.6573 20.2216 52.6573 19.7273C52.6573 19.2386 52.5863 18.8111 52.4442 18.4446C52.3022 18.0753 52.092 17.7884 51.8136 17.5838C51.5352 17.3764 51.1914 17.2727 50.7823 17.2727C50.3562 17.2727 50.0011 17.3821 49.717 17.6009C49.4357 17.8168 49.2241 18.1108 49.082 18.483C48.9428 18.8523 48.8732 19.267 48.8732 19.7273C48.8732 20.1932 48.9442 20.6165 49.0863 20.9972C49.2312 21.375 49.4442 21.6761 49.7255 21.9006C50.0096 22.1222 50.3619 22.233 50.7823 22.233Z" fill="black"/>
<path d="M35.2963 43.3025C39.4932 43.3025 45.4193 40.0963 45.4193 35.1789C45.4193 33.5758 44.6628 32.5671 43.7801 32.0087C42.2311 31 40.5739 31 38.8627 31C37.3137 31 36.2509 31 34.7379 31.6484C32.3422 32.7112 32 34.2062 32 34.3503C32 34.4584 32.072 34.4944 32.1801 34.4944C32.4683 34.4944 32.8826 34.2422 33.0267 34.1522C33.405 33.9 33.459 33.7919 33.5671 33.4497C33.8193 32.7292 34.3236 32.0988 36.5932 31.9907C36.305 35.7553 35.3863 39.1957 34.1255 42.3478C33.459 42.582 33.0267 42.9963 33.0267 43.1764C33.0267 43.2845 33.0447 43.3025 33.441 43.3025H35.2963ZM35.3863 42.3118C37.4398 37.2863 37.818 34.1522 38.0702 31.9907C39.277 31.9907 43.8882 31.9907 43.8882 35.9534C43.8882 39.4839 40.718 42.3118 36.359 42.3118H35.3863Z" fill="black"/>
<rect x="142" y="5" width="67" height="45" rx="10" fill="#D9D9D9"/>
<path d="M160.057 14.2727H161.318L164.284 21.517H164.386L167.352 14.2727H168.614V23H167.625V16.3693H167.54L164.812 23H163.858L161.131 16.3693H161.045V23H160.057V14.2727ZM173.255 23.1364C172.664 23.1364 172.146 22.9957 171.7 22.7145C171.257 22.4332 170.91 22.0398 170.66 21.5341C170.413 21.0284 170.289 20.4375 170.289 19.7614C170.289 19.0795 170.413 18.4844 170.66 17.9759C170.91 17.4673 171.257 17.0724 171.7 16.7912C172.146 16.5099 172.664 16.3693 173.255 16.3693C173.846 16.3693 174.363 16.5099 174.806 16.7912C175.252 17.0724 175.599 17.4673 175.846 17.9759C176.096 18.4844 176.221 19.0795 176.221 19.7614C176.221 20.4375 176.096 21.0284 175.846 21.5341C175.599 22.0398 175.252 22.4332 174.806 22.7145C174.363 22.9957 173.846 23.1364 173.255 23.1364ZM173.255 22.233C173.704 22.233 174.074 22.1179 174.363 21.8878C174.653 21.6577 174.868 21.3551 175.007 20.9801C175.146 20.6051 175.216 20.1989 175.216 19.7614C175.216 19.3239 175.146 18.9162 175.007 18.5384C174.868 18.1605 174.653 17.8551 174.363 17.6222C174.074 17.3892 173.704 17.2727 173.255 17.2727C172.806 17.2727 172.437 17.3892 172.147 17.6222C171.858 17.8551 171.643 18.1605 171.504 18.5384C171.365 18.9162 171.295 19.3239 171.295 19.7614C171.295 20.1989 171.365 20.6051 171.504 20.9801C171.643 21.3551 171.858 21.6577 172.147 21.8878C172.437 22.1179 172.806 22.233 173.255 22.233ZM180.228 23.1364C179.683 23.1364 179.201 22.9986 178.783 22.723C178.366 22.4446 178.039 22.0526 177.803 21.5469C177.567 21.0384 177.45 20.4375 177.45 19.7443C177.45 19.0568 177.567 18.4602 177.803 17.9545C178.039 17.4489 178.367 17.0582 178.788 16.7827C179.208 16.5071 179.694 16.3693 180.245 16.3693C180.671 16.3693 181.008 16.4403 181.255 16.5824C181.505 16.7216 181.695 16.8807 181.826 17.0597C181.96 17.2358 182.063 17.3807 182.137 17.4943H182.222V14.2727H183.228V23H182.256V21.9943H182.137C182.063 22.1136 181.958 22.2642 181.822 22.446C181.685 22.625 181.491 22.7855 181.238 22.9276C180.985 23.0668 180.648 23.1364 180.228 23.1364ZM180.364 22.233C180.768 22.233 181.109 22.1278 181.387 21.9176C181.665 21.7045 181.877 21.4105 182.022 21.0355C182.167 20.6577 182.239 20.2216 182.239 19.7273C182.239 19.2386 182.168 18.8111 182.026 18.4446C181.884 18.0753 181.674 17.7884 181.396 17.5838C181.117 17.3764 180.773 17.2727 180.364 17.2727C179.938 17.2727 179.583 17.3821 179.299 17.6009C179.018 17.8168 178.806 18.1108 178.664 18.483C178.525 18.8523 178.455 19.267 178.455 19.7273C178.455 20.1932 178.526 20.6165 178.668 20.9972C178.813 21.375 179.026 21.6761 179.308 21.9006C179.592 22.1222 179.944 22.233 180.364 22.233ZM187.954 23.1364C187.323 23.1364 186.779 22.9972 186.322 22.7188C185.867 22.4375 185.516 22.0455 185.269 21.5426C185.025 21.0369 184.903 20.4489 184.903 19.7784C184.903 19.108 185.025 18.517 185.269 18.0057C185.516 17.4915 185.86 17.0909 186.3 16.804C186.744 16.5142 187.261 16.3693 187.852 16.3693C188.192 16.3693 188.529 16.4261 188.862 16.5398C189.194 16.6534 189.496 16.8381 189.769 17.0938C190.042 17.3466 190.259 17.6818 190.421 18.0994C190.583 18.517 190.664 19.0312 190.664 19.642V20.0682H185.619V19.1989H189.641C189.641 18.8295 189.567 18.5 189.42 18.2102C189.275 17.9205 189.067 17.6918 188.798 17.5241C188.531 17.3565 188.215 17.2727 187.852 17.2727C187.451 17.2727 187.104 17.3722 186.812 17.571C186.522 17.767 186.299 18.0227 186.143 18.3381C185.987 18.6534 185.908 18.9915 185.908 19.3523V19.9318C185.908 20.4261 185.994 20.8452 186.164 21.1889C186.337 21.5298 186.577 21.7898 186.884 21.9688C187.191 22.1449 187.548 22.233 187.954 22.233C188.218 22.233 188.457 22.196 188.67 22.1222C188.886 22.0455 189.072 21.9318 189.228 21.7812C189.384 21.6278 189.505 21.4375 189.59 21.2102L190.562 21.483C190.46 21.8125 190.288 22.1023 190.046 22.3523C189.805 22.5994 189.506 22.7926 189.151 22.9318C188.796 23.0682 188.397 23.1364 187.954 23.1364ZM193.2 14.2727V23H192.194V14.2727H193.2Z" fill="black"/>
<path d="M179.259 31.6205C179.259 29.7832 178.683 28 177.206 28C174.684 28 172 33.2776 172 37.2404C172 38.069 172.18 40.8609 174.071 40.8609C176.521 40.8609 179.259 35.7093 179.259 31.6205ZM173.801 34.1603C174.071 33.0975 174.45 31.5845 175.17 30.3056C175.765 29.2248 176.395 28.3602 177.188 28.3602C177.782 28.3602 178.178 28.8646 178.178 30.5938C178.178 31.2422 178.124 32.1429 177.602 34.1603H173.801ZM177.476 34.7006C177.025 36.4659 176.647 37.6006 175.999 38.7354C175.476 39.6541 174.846 40.5006 174.089 40.5006C173.531 40.5006 173.081 40.0683 173.081 38.2851C173.081 37.1143 173.369 35.8895 173.657 34.7006H177.476Z" fill="black"/>
<rect x="247" y="5" width="67" height="45" rx="10" fill="#D9D9D9"/>
<path d="M266.642 23L264.256 14.2727H265.33L267.153 21.3807H267.239L269.097 14.2727H270.29L272.148 21.3807H272.233L274.057 14.2727H275.131L272.744 23H271.653L269.727 16.0455H269.659L267.733 23H266.642ZM278.361 23.1364C277.77 23.1364 277.251 22.9957 276.805 22.7145C276.362 22.4332 276.016 22.0398 275.766 21.5341C275.518 21.0284 275.395 20.4375 275.395 19.7614C275.395 19.0795 275.518 18.4844 275.766 17.9759C276.016 17.4673 276.362 17.0724 276.805 16.7912C277.251 16.5099 277.77 16.3693 278.361 16.3693C278.952 16.3693 279.469 16.5099 279.912 16.7912C280.358 17.0724 280.705 17.4673 280.952 17.9759C281.202 18.4844 281.327 19.0795 281.327 19.7614C281.327 20.4375 281.202 21.0284 280.952 21.5341C280.705 22.0398 280.358 22.4332 279.912 22.7145C279.469 22.9957 278.952 23.1364 278.361 23.1364ZM278.361 22.233C278.81 22.233 279.179 22.1179 279.469 21.8878C279.759 21.6577 279.973 21.3551 280.112 20.9801C280.251 20.6051 280.321 20.1989 280.321 19.7614C280.321 19.3239 280.251 18.9162 280.112 18.5384C279.973 18.1605 279.759 17.8551 279.469 17.6222C279.179 17.3892 278.81 17.2727 278.361 17.2727C277.912 17.2727 277.543 17.3892 277.253 17.6222C276.963 17.8551 276.749 18.1605 276.609 18.5384C276.47 18.9162 276.401 19.3239 276.401 19.7614C276.401 20.1989 276.47 20.6051 276.609 20.9801C276.749 21.3551 276.963 21.6577 277.253 21.8878C277.543 22.1179 277.912 22.233 278.361 22.233ZM282.862 23V16.4545H283.833V17.4432H283.902C284.021 17.1193 284.237 16.8565 284.549 16.6548C284.862 16.4531 285.214 16.3523 285.606 16.3523C285.68 16.3523 285.772 16.3537 285.883 16.3565C285.994 16.3594 286.078 16.3636 286.135 16.3693V17.392C286.1 17.3835 286.022 17.3707 285.9 17.3537C285.781 17.3338 285.654 17.3239 285.521 17.3239C285.203 17.3239 284.919 17.3906 284.669 17.5241C284.422 17.6548 284.225 17.8366 284.081 18.0696C283.939 18.2997 283.868 18.5625 283.868 18.858V23H282.862ZM288.332 14.2727V23H287.327V14.2727H288.332ZM292.646 23.1364C292.1 23.1364 291.619 22.9986 291.201 22.723C290.784 22.4446 290.457 22.0526 290.221 21.5469C289.985 21.0384 289.868 20.4375 289.868 19.7443C289.868 19.0568 289.985 18.4602 290.221 17.9545C290.457 17.4489 290.785 17.0582 291.206 16.7827C291.626 16.5071 292.112 16.3693 292.663 16.3693C293.089 16.3693 293.426 16.4403 293.673 16.5824C293.923 16.7216 294.113 16.8807 294.244 17.0597C294.377 17.2358 294.481 17.3807 294.555 17.4943H294.64V14.2727H295.646V23H294.674V21.9943H294.555C294.481 22.1136 294.376 22.2642 294.24 22.446C294.103 22.625 293.909 22.7855 293.656 22.9276C293.403 23.0668 293.066 23.1364 292.646 23.1364ZM292.782 22.233C293.186 22.233 293.527 22.1278 293.805 21.9176C294.083 21.7045 294.295 21.4105 294.44 21.0355C294.585 20.6577 294.657 20.2216 294.657 19.7273C294.657 19.2386 294.586 18.8111 294.444 18.4446C294.302 18.0753 294.092 17.7884 293.814 17.5838C293.535 17.3764 293.191 17.2727 292.782 17.2727C292.356 17.2727 292.001 17.3821 291.717 17.6009C291.436 17.8168 291.224 18.1108 291.082 18.483C290.943 18.8523 290.873 19.267 290.873 19.7273C290.873 20.1932 290.944 20.6165 291.086 20.9972C291.231 21.375 291.444 21.6761 291.725 21.9006C292.01 22.1222 292.362 22.233 292.782 22.233Z" fill="black"/>
<path d="M266.296 42.5093C270.493 42.5093 276.419 39.3031 276.419 34.3857C276.419 32.7826 275.663 31.7739 274.78 31.2155C273.231 30.2068 271.574 30.2068 269.863 30.2068C268.314 30.2068 267.251 30.2068 265.738 30.8552C263.342 31.918 263 33.413 263 33.5571C263 33.6652 263.072 33.7012 263.18 33.7012C263.468 33.7012 263.883 33.449 264.027 33.359C264.405 33.1068 264.459 32.9987 264.567 32.6565C264.819 31.936 265.324 31.3055 267.593 31.1975C267.305 34.9621 266.386 38.4025 265.125 41.5546C264.459 41.7888 264.027 42.2031 264.027 42.3832C264.027 42.4913 264.045 42.5093 264.441 42.5093H266.296ZM266.386 41.5186C268.44 36.4931 268.818 33.359 269.07 31.1975C270.277 31.1975 274.888 31.1975 274.888 35.1602C274.888 38.6907 271.718 41.5186 267.359 41.5186H266.386Z" fill="black"/>
<path d="M282.871 46.8864C282.871 46.8323 282.871 46.7963 282.565 46.4901C280.763 44.6708 279.755 41.6988 279.755 38.0242C279.755 34.5298 280.601 31.5217 282.691 29.3963C282.871 29.2342 282.871 29.1981 282.871 29.1441C282.871 29.036 282.781 29 282.709 29C282.475 29 280.998 30.2969 280.115 32.0621C279.196 33.8814 278.782 35.8087 278.782 38.0242C278.782 39.6273 279.034 41.7708 279.971 43.6982C281.034 45.8597 282.511 47.0305 282.709 47.0305C282.781 47.0305 282.871 46.9944 282.871 46.8864Z" fill="black"/>
<path d="M291.855 33.4491C291.855 31.6118 291.279 29.8286 289.802 29.8286C287.28 29.8286 284.596 35.1063 284.596 39.069C284.596 39.8976 284.776 42.6895 286.668 42.6895C289.117 42.6895 291.855 37.5379 291.855 33.4491ZM286.397 35.9889C286.668 34.9261 287.046 33.4131 287.766 32.1342C288.361 31.0535 288.991 30.1889 289.784 30.1889C290.378 30.1889 290.774 30.6932 290.774 32.4224C290.774 33.0709 290.72 33.9715 290.198 35.9889H286.397ZM290.072 36.5292C289.622 38.2945 289.243 39.4293 288.595 40.564C288.073 41.4827 287.442 42.3293 286.686 42.3293C286.127 42.3293 285.677 41.897 285.677 40.1137C285.677 38.9429 285.965 37.7181 286.253 36.5292H290.072Z" fill="black"/>
<path d="M297.664 38.0242C297.664 36.6553 297.484 34.4217 296.475 32.3323C295.413 30.1708 293.936 29 293.737 29C293.665 29 293.575 29.036 293.575 29.1441C293.575 29.1981 293.575 29.2342 293.882 29.5404C295.683 31.3596 296.692 34.3317 296.692 38.0062C296.692 41.5006 295.845 44.5087 293.756 46.6342C293.575 46.7963 293.575 46.8323 293.575 46.8864C293.575 46.9944 293.665 47.0305 293.737 47.0305C293.972 47.0305 295.449 45.7336 296.331 43.9684C297.25 42.1311 297.664 40.1857 297.664 38.0242Z" fill="black"/>
<path d="M313.183 35.7655C312.972 35.2552 313.215 34.6703 313.725 34.4592L322.041 31.0188C322.552 30.8077 323.137 31.0503 323.348 31.5606C323.559 32.0709 323.316 32.6558 322.806 32.8669L315.413 35.925L318.472 43.3175C318.683 43.8278 318.44 44.4127 317.93 44.6238C317.419 44.8349 316.835 44.5923 316.623 44.082L313.183 35.7655ZM328.683 41.4285L328.3 42.3522L328.683 41.4285ZM314.107 35.3833L314.49 34.4595L329.066 40.5048L328.683 41.4285L328.3 42.3522L313.724 36.307L314.107 35.3833ZM367.612 41.1667L367.217 40.2482L381.71 34.0076L382.106 34.926L382.501 35.8445L368.008 42.0852L367.612 41.1667ZM328.683 41.4285L329.066 40.5048C341.295 45.5768 355.057 45.4843 367.217 40.2482L367.612 41.1667L368.008 42.0852C355.351 47.535 341.028 47.6313 328.3 42.3522L328.683 41.4285Z" fill="black"/>
<path d="M382.445 23.3089C382.965 23.1229 383.236 22.5506 383.05 22.0305L380.019 13.5562C379.833 13.0362 379.261 12.7654 378.741 12.9514C378.221 13.1373 377.95 13.7097 378.136 14.2297L380.83 21.7625L373.297 24.4565C372.777 24.6424 372.507 25.2148 372.693 25.7348C372.879 26.2548 373.451 26.5256 373.971 26.3397L382.445 23.3089ZM314.11 22.8245L314.55 23.7226L326.822 17.7129L326.382 16.8148L325.942 15.9167L313.67 21.9264L314.11 22.8245ZM369.757 16.5231L369.329 17.4271L381.681 23.2712L382.109 22.3673L382.536 21.4634L370.184 15.6192L369.757 16.5231ZM326.382 16.8148L326.822 17.7129C340.21 11.1567 355.854 11.0515 369.329 17.4271L369.757 16.5231L370.184 15.6192C356.16 8.98341 339.877 9.0929 325.942 15.9167L326.382 16.8148Z" fill="black"/>
<rect x="384" y="5" width="67" height="45" rx="10" fill="#D9D9D9"/>
<path d="M402.057 14.2727H403.318L406.284 21.517H406.386L409.352 14.2727H410.614V23H409.625V16.3693H409.54L406.812 23H405.858L403.131 16.3693H403.045V23H402.057V14.2727ZM415.255 23.1364C414.664 23.1364 414.146 22.9957 413.7 22.7145C413.257 22.4332 412.91 22.0398 412.66 21.5341C412.413 21.0284 412.289 20.4375 412.289 19.7614C412.289 19.0795 412.413 18.4844 412.66 17.9759C412.91 17.4673 413.257 17.0724 413.7 16.7912C414.146 16.5099 414.664 16.3693 415.255 16.3693C415.846 16.3693 416.363 16.5099 416.806 16.7912C417.252 17.0724 417.599 17.4673 417.846 17.9759C418.096 18.4844 418.221 19.0795 418.221 19.7614C418.221 20.4375 418.096 21.0284 417.846 21.5341C417.599 22.0398 417.252 22.4332 416.806 22.7145C416.363 22.9957 415.846 23.1364 415.255 23.1364ZM415.255 22.233C415.704 22.233 416.074 22.1179 416.363 21.8878C416.653 21.6577 416.868 21.3551 417.007 20.9801C417.146 20.6051 417.216 20.1989 417.216 19.7614C417.216 19.3239 417.146 18.9162 417.007 18.5384C416.868 18.1605 416.653 17.8551 416.363 17.6222C416.074 17.3892 415.704 17.2727 415.255 17.2727C414.806 17.2727 414.437 17.3892 414.147 17.6222C413.858 17.8551 413.643 18.1605 413.504 18.5384C413.365 18.9162 413.295 19.3239 413.295 19.7614C413.295 20.1989 413.365 20.6051 413.504 20.9801C413.643 21.3551 413.858 21.6577 414.147 21.8878C414.437 22.1179 414.806 22.233 415.255 22.233ZM422.228 23.1364C421.683 23.1364 421.201 22.9986 420.783 22.723C420.366 22.4446 420.039 22.0526 419.803 21.5469C419.567 21.0384 419.45 20.4375 419.45 19.7443C419.45 19.0568 419.567 18.4602 419.803 17.9545C420.039 17.4489 420.367 17.0582 420.788 16.7827C421.208 16.5071 421.694 16.3693 422.245 16.3693C422.671 16.3693 423.008 16.4403 423.255 16.5824C423.505 16.7216 423.695 16.8807 423.826 17.0597C423.96 17.2358 424.063 17.3807 424.137 17.4943H424.222V14.2727H425.228V23H424.256V21.9943H424.137C424.063 22.1136 423.958 22.2642 423.822 22.446C423.685 22.625 423.491 22.7855 423.238 22.9276C422.985 23.0668 422.648 23.1364 422.228 23.1364ZM422.364 22.233C422.768 22.233 423.109 22.1278 423.387 21.9176C423.665 21.7045 423.877 21.4105 424.022 21.0355C424.167 20.6577 424.239 20.2216 424.239 19.7273C424.239 19.2386 424.168 18.8111 424.026 18.4446C423.884 18.0753 423.674 17.7884 423.396 17.5838C423.117 17.3764 422.773 17.2727 422.364 17.2727C421.938 17.2727 421.583 17.3821 421.299 17.6009C421.018 17.8168 420.806 18.1108 420.664 18.483C420.525 18.8523 420.455 19.267 420.455 19.7273C420.455 20.1932 420.526 20.6165 420.668 20.9972C420.813 21.375 421.026 21.6761 421.308 21.9006C421.592 22.1222 421.944 22.233 422.364 22.233ZM429.954 23.1364C429.323 23.1364 428.779 22.9972 428.322 22.7188C427.867 22.4375 427.516 22.0455 427.269 21.5426C427.025 21.0369 426.903 20.4489 426.903 19.7784C426.903 19.108 427.025 18.517 427.269 18.0057C427.516 17.4915 427.86 17.0909 428.3 16.804C428.744 16.5142 429.261 16.3693 429.852 16.3693C430.192 16.3693 430.529 16.4261 430.862 16.5398C431.194 16.6534 431.496 16.8381 431.769 17.0938C432.042 17.3466 432.259 17.6818 432.421 18.0994C432.583 18.517 432.664 19.0312 432.664 19.642V20.0682H427.619V19.1989H431.641C431.641 18.8295 431.567 18.5 431.42 18.2102C431.275 17.9205 431.067 17.6918 430.798 17.5241C430.531 17.3565 430.215 17.2727 429.852 17.2727C429.451 17.2727 429.104 17.3722 428.812 17.571C428.522 17.767 428.299 18.0227 428.143 18.3381C427.987 18.6534 427.908 18.9915 427.908 19.3523V19.9318C427.908 20.4261 427.994 20.8452 428.164 21.1889C428.337 21.5298 428.577 21.7898 428.884 21.9688C429.191 22.1449 429.548 22.233 429.954 22.233C430.218 22.233 430.457 22.196 430.67 22.1222C430.886 22.0455 431.072 21.9318 431.228 21.7812C431.384 21.6278 431.505 21.4375 431.59 21.2102L432.562 21.483C432.46 21.8125 432.288 22.1023 432.046 22.3523C431.805 22.5994 431.506 22.7926 431.151 22.9318C430.796 23.0682 430.397 23.1364 429.954 23.1364ZM435.2 14.2727V23H434.194V14.2727H435.2Z" fill="black"/>
<path d="M421.259 31.6205C421.259 29.7832 420.683 28 419.206 28C416.684 28 414 33.2776 414 37.2404C414 38.069 414.18 40.8609 416.071 40.8609C418.521 40.8609 421.259 35.7093 421.259 31.6205ZM415.801 34.1603C416.071 33.0975 416.45 31.5845 417.17 30.3056C417.765 29.2248 418.395 28.3602 419.188 28.3602C419.782 28.3602 420.178 28.8646 420.178 30.5938C420.178 31.2422 420.124 32.1429 419.602 34.1603H415.801ZM419.476 34.7006C419.025 36.4659 418.647 37.6006 417.999 38.7354C417.476 39.6541 416.846 40.5006 416.089 40.5006C415.531 40.5006 415.081 40.0683 415.081 38.2851C415.081 37.1143 415.369 35.8895 415.657 34.7006H419.476Z" fill="black"/>
<path d="M227.273 26.4545L224.852 33H223.83L221.409 26.4545H222.5L224.307 31.6705H224.375L226.182 26.4545H227.273ZM233.237 27.9205L232.333 28.1761C232.276 28.0256 232.192 27.8793 232.082 27.7372C231.974 27.5923 231.826 27.473 231.638 27.3793C231.451 27.2855 231.211 27.2386 230.918 27.2386C230.518 27.2386 230.184 27.331 229.917 27.5156C229.653 27.6974 229.521 27.929 229.521 28.2102C229.521 28.4602 229.612 28.6577 229.793 28.8026C229.975 28.9474 230.259 29.0682 230.646 29.1648L231.617 29.4034C232.202 29.5455 232.638 29.7628 232.925 30.0554C233.212 30.3452 233.356 30.7187 233.356 31.1761C233.356 31.5511 233.248 31.8864 233.032 32.1818C232.819 32.4773 232.521 32.7102 232.137 32.8807C231.754 33.0511 231.308 33.1364 230.799 33.1364C230.131 33.1364 229.579 32.9915 229.141 32.7017C228.704 32.4119 228.427 31.9886 228.31 31.4318L229.265 31.1932C229.356 31.5455 229.528 31.8097 229.781 31.9858C230.036 32.1619 230.37 32.25 230.782 32.25C231.251 32.25 231.623 32.1506 231.898 31.9517C232.177 31.75 232.316 31.5085 232.316 31.2273C232.316 31 232.237 30.8097 232.077 30.6562C231.918 30.5 231.674 30.3835 231.344 30.3068L230.254 30.0511C229.654 29.9091 229.214 29.6889 228.933 29.3906C228.654 29.0895 228.515 28.7131 228.515 28.2614C228.515 27.892 228.619 27.5653 228.826 27.2812C229.036 26.9972 229.322 26.7741 229.683 26.6122C230.046 26.4503 230.458 26.3693 230.918 26.3693C231.566 26.3693 232.075 26.5114 232.444 26.7955C232.816 27.0795 233.08 27.4545 233.237 27.9205ZM235.603 33.0682C235.392 33.0682 235.212 32.9929 235.061 32.8423C234.911 32.6918 234.836 32.5114 234.836 32.3011C234.836 32.0909 234.911 31.9105 235.061 31.7599C235.212 31.6094 235.392 31.5341 235.603 31.5341C235.813 31.5341 235.993 31.6094 236.144 31.7599C236.294 31.9105 236.37 32.0909 236.37 32.3011C236.37 32.4403 236.334 32.5682 236.263 32.6847C236.195 32.8011 236.103 32.8949 235.986 32.9659C235.873 33.0341 235.745 33.0682 235.603 33.0682Z" fill="black"/>
<path d="M22.4261 62.794V61.2727H29.5938V62.794H26.9219V70H25.098V62.794H22.4261ZM30.0604 70V63.4545H31.8203V64.5966H31.8885C32.0078 64.1903 32.2081 63.8835 32.4893 63.6761C32.7706 63.4659 33.0945 63.3608 33.4609 63.3608C33.5518 63.3608 33.6499 63.3665 33.755 63.3778C33.8601 63.3892 33.9524 63.4048 34.032 63.4247V65.0355C33.9467 65.0099 33.8288 64.9872 33.6783 64.9673C33.5277 64.9474 33.3899 64.9375 33.2649 64.9375C32.9979 64.9375 32.7592 64.9957 32.549 65.1122C32.3416 65.2259 32.1768 65.3849 32.0547 65.5895C31.9354 65.794 31.8757 66.0298 31.8757 66.2969V70H30.0604ZM36.6495 70.1236C36.2319 70.1236 35.8597 70.0511 35.533 69.9062C35.2063 69.7585 34.9478 69.5412 34.7575 69.2543C34.57 68.9645 34.4762 68.6037 34.4762 68.1719C34.4762 67.8082 34.543 67.5028 34.6765 67.2557C34.81 67.0085 34.9918 66.8097 35.2219 66.6591C35.4521 66.5085 35.7134 66.3949 36.006 66.3182C36.3015 66.2415 36.6112 66.1875 36.935 66.1562C37.3157 66.1165 37.6225 66.0795 37.8555 66.0455C38.0884 66.0085 38.2575 65.9545 38.3626 65.8835C38.4677 65.8125 38.5202 65.7074 38.5202 65.5682V65.5426C38.5202 65.2727 38.435 65.0639 38.2646 64.9162C38.0969 64.7685 37.8583 64.6946 37.5487 64.6946C37.2219 64.6946 36.962 64.767 36.7688 64.9119C36.5756 65.054 36.4478 65.233 36.3853 65.4489L34.7063 65.3125C34.7915 64.9148 34.9592 64.571 35.2092 64.2812C35.4592 63.9886 35.7816 63.7642 36.1765 63.608C36.5742 63.4489 37.0344 63.3693 37.5572 63.3693C37.9208 63.3693 38.2688 63.4119 38.6012 63.4972C38.9364 63.5824 39.2333 63.7145 39.4918 63.8935C39.7532 64.0724 39.9592 64.3026 40.1097 64.5838C40.2603 64.8622 40.3356 65.196 40.3356 65.5852V70H38.614V69.0923H38.5629C38.4577 69.2969 38.3171 69.4773 38.141 69.6335C37.9648 69.7869 37.7532 69.9077 37.506 69.9957C37.2589 70.081 36.9734 70.1236 36.6495 70.1236ZM37.1694 68.8707C37.4364 68.8707 37.6722 68.8182 37.8768 68.7131C38.0813 68.6051 38.2418 68.4602 38.3583 68.2784C38.4748 68.0966 38.533 67.8906 38.533 67.6605V66.9659C38.4762 67.0028 38.3981 67.0369 38.2987 67.0682C38.2021 67.0966 38.0927 67.1236 37.9705 67.1491C37.8484 67.1719 37.7262 67.1932 37.604 67.2131C37.4819 67.2301 37.3711 67.2457 37.2717 67.2599C37.0586 67.2912 36.8725 67.3409 36.7134 67.4091C36.5543 67.4773 36.4308 67.5696 36.3427 67.6861C36.2546 67.7997 36.2106 67.9418 36.2106 68.1122C36.2106 68.3594 36.3001 68.5483 36.479 68.679C36.6609 68.8068 36.891 68.8707 37.1694 68.8707ZM44.1559 70.1065C43.6587 70.1065 43.2085 69.9787 42.805 69.723C42.4045 69.4645 42.0863 69.0852 41.8505 68.5852C41.6175 68.0824 41.5011 67.4659 41.5011 66.7358C41.5011 65.9858 41.6218 65.3622 41.8633 64.8651C42.1048 64.3651 42.4258 63.9915 42.8263 63.7443C43.2298 63.4943 43.6715 63.3693 44.1516 63.3693C44.5181 63.3693 44.8235 63.4318 45.0678 63.5568C45.315 63.679 45.5138 63.8324 45.6644 64.017C45.8178 64.1989 45.9343 64.3778 46.0138 64.554H46.0692V61.2727H47.8803V70H46.0906V68.9517H46.0138C45.9286 69.1335 45.8079 69.3139 45.6516 69.4929C45.4982 69.669 45.2979 69.8153 45.0508 69.9318C44.8065 70.0483 44.5082 70.1065 44.1559 70.1065ZM44.7312 68.6619C45.0238 68.6619 45.271 68.5824 45.4727 68.4233C45.6772 68.2614 45.8335 68.0355 45.9414 67.7457C46.0522 67.456 46.1076 67.1165 46.1076 66.7273C46.1076 66.3381 46.0536 66 45.9457 65.7131C45.8377 65.4261 45.6815 65.2045 45.4769 65.0483C45.2724 64.892 45.0238 64.8139 44.7312 64.8139C44.4329 64.8139 44.1815 64.8949 43.9769 65.0568C43.7724 65.2187 43.6175 65.4432 43.5124 65.7301C43.4073 66.017 43.3548 66.3494 43.3548 66.7273C43.3548 67.108 43.4073 67.4446 43.5124 67.7372C43.6204 68.027 43.7752 68.2543 43.9769 68.419C44.1815 68.581 44.4329 68.6619 44.7312 68.6619ZM49.3729 70V63.4545H51.1882V70H49.3729ZM50.2848 62.6108C50.0149 62.6108 49.7834 62.5213 49.5902 62.3423C49.3999 62.1605 49.3047 61.9432 49.3047 61.6903C49.3047 61.4403 49.3999 61.2259 49.5902 61.0469C49.7834 60.8651 50.0149 60.7741 50.2848 60.7741C50.5547 60.7741 50.7848 60.8651 50.9751 61.0469C51.1683 61.2259 51.2649 61.4403 51.2649 61.6903C51.2649 61.9432 51.1683 62.1605 50.9751 62.3423C50.7848 62.5213 50.5547 62.6108 50.2848 62.6108ZM56.1239 63.4545V64.8182H52.1822V63.4545H56.1239ZM53.0771 61.8864H54.8924V67.9886C54.8924 68.1562 54.918 68.2869 54.9691 68.3807C55.0202 68.4716 55.0913 68.5355 55.1822 68.5724C55.2759 68.6094 55.3839 68.6278 55.506 68.6278C55.5913 68.6278 55.6765 68.6207 55.7617 68.6065C55.8469 68.5895 55.9123 68.5767 55.9577 68.5682L56.2433 69.919C56.1523 69.9474 56.0245 69.9801 55.8597 70.017C55.695 70.0568 55.4947 70.081 55.2589 70.0895C54.8214 70.1065 54.4379 70.0483 54.1083 69.9148C53.7816 69.7812 53.5273 69.5739 53.3455 69.2926C53.1637 69.0114 53.0742 68.6562 53.0771 68.2273V61.8864ZM57.3065 70V63.4545H59.1218V70H57.3065ZM58.2184 62.6108C57.9485 62.6108 57.717 62.5213 57.5238 62.3423C57.3335 62.1605 57.2383 61.9432 57.2383 61.6903C57.2383 61.4403 57.3335 61.2259 57.5238 61.0469C57.717 60.8651 57.9485 60.7741 58.2184 60.7741C58.4883 60.7741 58.7184 60.8651 58.9087 61.0469C59.1019 61.2259 59.1985 61.4403 59.1985 61.6903C59.1985 61.9432 59.1019 62.1605 58.9087 62.3423C58.7184 62.5213 58.4883 62.6108 58.2184 62.6108ZM63.5334 70.1278C62.8714 70.1278 62.299 69.9872 61.8161 69.706C61.3359 69.4219 60.9652 69.027 60.7038 68.5213C60.4425 68.0128 60.3118 67.4233 60.3118 66.7528C60.3118 66.0767 60.4425 65.4858 60.7038 64.9801C60.9652 64.4716 61.3359 64.0767 61.8161 63.7955C62.299 63.5114 62.8714 63.3693 63.5334 63.3693C64.1953 63.3693 64.7663 63.5114 65.2464 63.7955C65.7294 64.0767 66.1016 64.4716 66.3629 64.9801C66.6243 65.4858 66.755 66.0767 66.755 66.7528C66.755 67.4233 66.6243 68.0128 66.3629 68.5213C66.1016 69.027 65.7294 69.4219 65.2464 69.706C64.7663 69.9872 64.1953 70.1278 63.5334 70.1278ZM63.5419 68.7216C63.843 68.7216 64.0945 68.6364 64.2962 68.4659C64.4979 68.2926 64.6499 68.0568 64.7521 67.7585C64.8572 67.4602 64.9098 67.1207 64.9098 66.7401C64.9098 66.3594 64.8572 66.0199 64.7521 65.7216C64.6499 65.4233 64.4979 65.1875 64.2962 65.0142C64.0945 64.8409 63.843 64.7543 63.5419 64.7543C63.2379 64.7543 62.9822 64.8409 62.7749 65.0142C62.5703 65.1875 62.4155 65.4233 62.3104 65.7216C62.2081 66.0199 62.157 66.3594 62.157 66.7401C62.157 67.1207 62.2081 67.4602 62.3104 67.7585C62.4155 68.0568 62.5703 68.2926 62.7749 68.4659C62.9822 68.6364 63.2379 68.7216 63.5419 68.7216ZM69.7507 66.2159V70H67.9354V63.4545H69.6655V64.6094H69.7422C69.8871 64.2287 70.13 63.9276 70.4709 63.706C70.8118 63.4815 71.2251 63.3693 71.7109 63.3693C72.1655 63.3693 72.5618 63.4688 72.8999 63.6676C73.2379 63.8665 73.5007 64.1506 73.6882 64.5199C73.8757 64.8864 73.9695 65.3239 73.9695 65.8324V70H72.1541V66.1562C72.157 65.7557 72.0547 65.4432 71.8473 65.2188C71.6399 64.9915 71.3544 64.8778 70.9908 64.8778C70.7464 64.8778 70.5305 64.9304 70.343 65.0355C70.1584 65.1406 70.0135 65.294 69.9084 65.4957C69.8061 65.6946 69.7536 65.9347 69.7507 66.2159ZM77.2667 70.1236C76.8491 70.1236 76.4769 70.0511 76.1502 69.9062C75.8235 69.7585 75.565 69.5412 75.3746 69.2543C75.1871 68.9645 75.0934 68.6037 75.0934 68.1719C75.0934 67.8082 75.1602 67.5028 75.2937 67.2557C75.4272 67.0085 75.609 66.8097 75.8391 66.6591C76.0692 66.5085 76.3306 66.3949 76.6232 66.3182C76.9187 66.2415 77.2283 66.1875 77.5522 66.1562C77.9329 66.1165 78.2397 66.0795 78.4727 66.0455C78.7056 66.0085 78.8746 65.9545 78.9798 65.8835C79.0849 65.8125 79.1374 65.7074 79.1374 65.5682V65.5426C79.1374 65.2727 79.0522 65.0639 78.8817 64.9162C78.7141 64.7685 78.4755 64.6946 78.1658 64.6946C77.8391 64.6946 77.5792 64.767 77.386 64.9119C77.1928 65.054 77.065 65.233 77.0025 65.4489L75.3235 65.3125C75.4087 64.9148 75.5763 64.571 75.8263 64.2812C76.0763 63.9886 76.3988 63.7642 76.7937 63.608C77.1914 63.4489 77.6516 63.3693 78.1744 63.3693C78.538 63.3693 78.886 63.4119 79.2184 63.4972C79.5536 63.5824 79.8505 63.7145 80.109 63.8935C80.3704 64.0724 80.5763 64.3026 80.7269 64.5838C80.8775 64.8622 80.9528 65.196 80.9528 65.5852V70H79.2312V69.0923H79.18C79.0749 69.2969 78.9343 69.4773 78.7582 69.6335C78.582 69.7869 78.3704 69.9077 78.1232 69.9957C77.8761 70.081 77.5906 70.1236 77.2667 70.1236ZM77.7866 68.8707C78.0536 68.8707 78.2894 68.8182 78.494 68.7131C78.6985 68.6051 78.859 68.4602 78.9755 68.2784C79.092 68.0966 79.1502 67.8906 79.1502 67.6605V66.9659C79.0934 67.0028 79.0153 67.0369 78.9158 67.0682C78.8192 67.0966 78.7099 67.1236 78.5877 67.1491C78.4656 67.1719 78.3434 67.1932 78.2212 67.2131C78.0991 67.2301 77.9883 67.2457 77.8888 67.2599C77.6758 67.2912 77.4897 67.3409 77.3306 67.4091C77.1715 67.4773 77.0479 67.5696 76.9599 67.6861C76.8718 67.7997 76.8278 67.9418 76.8278 68.1122C76.8278 68.3594 76.9173 68.5483 77.0962 68.679C77.2781 68.8068 77.5082 68.8707 77.7866 68.8707ZM84.1765 61.2727V70H82.3612V61.2727H84.1765ZM88.4421 61.2727H90.7177L93.1211 67.1364H93.2234L95.6268 61.2727H97.9023V70H96.1126V64.3196H96.0401L93.7816 69.9574H92.5629L90.3043 64.2983H90.2319V70H88.4421V61.2727ZM101.255 70.1236C100.837 70.1236 100.465 70.0511 100.138 69.9062C99.8118 69.7585 99.5533 69.5412 99.3629 69.2543C99.1754 68.9645 99.0817 68.6037 99.0817 68.1719C99.0817 67.8082 99.1484 67.5028 99.282 67.2557C99.4155 67.0085 99.5973 66.8097 99.8274 66.6591C100.058 66.5085 100.319 66.3949 100.612 66.3182C100.907 66.2415 101.217 66.1875 101.54 66.1562C101.921 66.1165 102.228 66.0795 102.461 66.0455C102.694 66.0085 102.863 65.9545 102.968 65.8835C103.073 65.8125 103.126 65.7074 103.126 65.5682V65.5426C103.126 65.2727 103.04 65.0639 102.87 64.9162C102.702 64.7685 102.464 64.6946 102.154 64.6946C101.827 64.6946 101.567 64.767 101.374 64.9119C101.181 65.054 101.053 65.233 100.991 65.4489L99.3118 65.3125C99.397 64.9148 99.5646 64.571 99.8146 64.2812C100.065 63.9886 100.387 63.7642 100.782 63.608C101.18 63.4489 101.64 63.3693 102.163 63.3693C102.526 63.3693 102.874 63.4119 103.207 63.4972C103.542 63.5824 103.839 63.7145 104.097 63.8935C104.359 64.0724 104.565 64.3026 104.715 64.5838C104.866 64.8622 104.941 65.196 104.941 65.5852V70H103.219V69.0923H103.168C103.063 69.2969 102.923 69.4773 102.746 69.6335C102.57 69.7869 102.359 69.9077 102.112 69.9957C101.864 70.081 101.579 70.1236 101.255 70.1236ZM101.775 68.8707C102.042 68.8707 102.278 68.8182 102.482 68.7131C102.687 68.6051 102.847 68.4602 102.964 68.2784C103.08 68.0966 103.138 67.8906 103.138 67.6605V66.9659C103.082 67.0028 103.004 67.0369 102.904 67.0682C102.808 67.0966 102.698 67.1236 102.576 67.1491C102.454 67.1719 102.332 67.1932 102.21 67.2131C102.087 67.2301 101.977 67.2457 101.877 67.2599C101.664 67.2912 101.478 67.3409 101.319 67.4091C101.16 67.4773 101.036 67.5696 100.948 67.6861C100.86 67.7997 100.816 67.9418 100.816 68.1122C100.816 68.3594 100.906 68.5483 101.085 68.679C101.266 68.8068 101.496 68.8707 101.775 68.8707ZM109.307 70.1278C108.636 70.1278 108.06 69.9858 107.577 69.7017C107.097 69.4148 106.727 69.017 106.469 68.5085C106.213 68 106.085 67.4148 106.085 66.7528C106.085 66.0824 106.214 65.4943 106.473 64.9886C106.734 64.4801 107.105 64.0838 107.585 63.7997C108.065 63.5128 108.636 63.3693 109.298 63.3693C109.869 63.3693 110.369 63.473 110.798 63.6804C111.227 63.8878 111.567 64.179 111.817 64.554C112.067 64.929 112.205 65.3693 112.23 65.875H110.517C110.469 65.5483 110.341 65.2855 110.134 65.0866C109.929 64.8849 109.661 64.7841 109.328 64.7841C109.047 64.7841 108.801 64.8608 108.591 65.0142C108.384 65.1648 108.222 65.3849 108.105 65.6747C107.989 65.9645 107.93 66.3153 107.93 66.7273C107.93 67.1449 107.987 67.5 108.101 67.7926C108.217 68.0852 108.381 68.3082 108.591 68.4616C108.801 68.6151 109.047 68.6918 109.328 68.6918C109.536 68.6918 109.722 68.6491 109.886 68.5639C110.054 68.4787 110.192 68.3551 110.3 68.1932C110.411 68.0284 110.483 67.831 110.517 67.6009H112.23C112.202 68.1009 112.065 68.5412 111.821 68.9219C111.58 69.2997 111.246 69.5952 110.82 69.8082C110.393 70.0213 109.889 70.1278 109.307 70.1278ZM115.208 66.2159V70H113.392V61.2727H115.157V64.6094H115.233C115.381 64.223 115.62 63.9205 115.949 63.7017C116.279 63.4801 116.692 63.3693 117.189 63.3693C117.644 63.3693 118.04 63.4688 118.378 63.6676C118.719 63.8636 118.983 64.1463 119.171 64.5156C119.361 64.8821 119.455 65.321 119.452 65.8324V70H117.637V66.1562C117.64 65.7528 117.537 65.4389 117.33 65.2145C117.125 64.9901 116.838 64.8778 116.469 64.8778C116.222 64.8778 116.003 64.9304 115.813 65.0355C115.625 65.1406 115.478 65.294 115.37 65.4957C115.265 65.6946 115.211 65.9347 115.208 66.2159ZM120.881 70V63.4545H122.696V70H120.881ZM121.793 62.6108C121.523 62.6108 121.291 62.5213 121.098 62.3423C120.908 62.1605 120.812 61.9432 120.812 61.6903C120.812 61.4403 120.908 61.2259 121.098 61.0469C121.291 60.8651 121.523 60.7741 121.793 60.7741C122.063 60.7741 122.293 60.8651 122.483 61.0469C122.676 61.2259 122.773 61.4403 122.773 61.6903C122.773 61.9432 122.676 62.1605 122.483 62.3423C122.293 62.5213 122.063 62.6108 121.793 62.6108ZM125.966 66.2159V70H124.15V63.4545H125.88V64.6094H125.957C126.102 64.2287 126.345 63.9276 126.686 63.706C127.027 63.4815 127.44 63.3693 127.926 63.3693C128.38 63.3693 128.777 63.4688 129.115 63.6676C129.453 63.8665 129.716 64.1506 129.903 64.5199C130.091 64.8864 130.184 65.3239 130.184 65.8324V70H128.369V66.1562C128.372 65.7557 128.27 65.4432 128.062 65.2188C127.855 64.9915 127.569 64.8778 127.206 64.8778C126.961 64.8778 126.745 64.9304 126.558 65.0355C126.373 65.1406 126.228 65.294 126.123 65.4957C126.021 65.6946 125.968 65.9347 125.966 66.2159ZM134.598 70.1278C133.925 70.1278 133.345 69.9915 132.859 69.7188C132.376 69.4432 132.004 69.054 131.743 68.5511C131.482 68.0455 131.351 67.4474 131.351 66.7571C131.351 66.0838 131.482 65.4929 131.743 64.9844C132.004 64.4759 132.372 64.0795 132.847 63.7955C133.324 63.5114 133.884 63.3693 134.526 63.3693C134.957 63.3693 135.359 63.4389 135.732 63.5781C136.107 63.7145 136.433 63.9205 136.712 64.196C136.993 64.4716 137.212 64.8182 137.368 65.2358C137.524 65.6506 137.602 66.1364 137.602 66.6932V67.1918H132.075V66.0668H135.893C135.893 65.8054 135.837 65.5739 135.723 65.3722C135.609 65.1705 135.452 65.0128 135.25 64.8991C135.051 64.7827 134.82 64.7244 134.555 64.7244C134.28 64.7244 134.036 64.7884 133.822 64.9162C133.612 65.0412 133.447 65.2102 133.328 65.4233C133.209 65.6335 133.148 65.8679 133.145 66.1264V67.196C133.145 67.5199 133.205 67.7997 133.324 68.0355C133.446 68.2713 133.618 68.4531 133.839 68.581C134.061 68.7088 134.324 68.7727 134.628 68.7727C134.83 68.7727 135.014 68.7443 135.182 68.6875C135.349 68.6307 135.493 68.5455 135.612 68.4318C135.732 68.3182 135.822 68.179 135.885 68.0142L137.564 68.125C137.479 68.5284 137.304 68.8807 137.04 69.1818C136.778 69.4801 136.44 69.7131 136.026 69.8807C135.614 70.0455 135.138 70.1278 134.598 70.1278ZM141.598 70V61.2727H143.444V68.4787H147.185V70H141.598ZM151.356 70.1278C150.683 70.1278 150.103 69.9915 149.617 69.7188C149.134 69.4432 148.762 69.054 148.501 68.5511C148.239 68.0455 148.109 67.4474 148.109 66.7571C148.109 66.0838 148.239 65.4929 148.501 64.9844C148.762 64.4759 149.13 64.0795 149.604 63.7955C150.082 63.5114 150.641 63.3693 151.283 63.3693C151.715 63.3693 152.117 63.4389 152.489 63.5781C152.864 63.7145 153.191 63.9205 153.469 64.196C153.751 64.4716 153.969 64.8182 154.126 65.2358C154.282 65.6506 154.36 66.1364 154.36 66.6932V67.1918H148.833V66.0668H152.651C152.651 65.8054 152.594 65.5739 152.481 65.3722C152.367 65.1705 152.21 65.0128 152.008 64.8991C151.809 64.7827 151.577 64.7244 151.313 64.7244C151.038 64.7244 150.793 64.7884 150.58 64.9162C150.37 65.0412 150.205 65.2102 150.086 65.4233C149.967 65.6335 149.906 65.8679 149.903 66.1264V67.196C149.903 67.5199 149.962 67.7997 150.082 68.0355C150.204 68.2713 150.376 68.4531 150.597 68.581C150.819 68.7088 151.082 68.7727 151.386 68.7727C151.587 68.7727 151.772 68.7443 151.94 68.6875C152.107 68.6307 152.251 68.5455 152.37 68.4318C152.489 68.3182 152.58 68.179 152.643 68.0142L154.322 68.125C154.237 68.5284 154.062 68.8807 153.798 69.1818C153.536 69.4801 153.198 69.7131 152.783 69.8807C152.371 70.0455 151.896 70.1278 151.356 70.1278ZM157.411 70.1236C156.994 70.1236 156.621 70.0511 156.295 69.9062C155.968 69.7585 155.71 69.5412 155.519 69.2543C155.332 68.9645 155.238 68.6037 155.238 68.1719C155.238 67.8082 155.305 67.5028 155.438 67.2557C155.572 67.0085 155.754 66.8097 155.984 66.6591C156.214 66.5085 156.475 66.3949 156.768 66.3182C157.063 66.2415 157.373 66.1875 157.697 66.1562C158.077 66.1165 158.384 66.0795 158.617 66.0455C158.85 66.0085 159.019 65.9545 159.124 65.8835C159.229 65.8125 159.282 65.7074 159.282 65.5682V65.5426C159.282 65.2727 159.197 65.0639 159.026 64.9162C158.859 64.7685 158.62 64.6946 158.31 64.6946C157.984 64.6946 157.724 64.767 157.531 64.9119C157.337 65.054 157.21 65.233 157.147 65.4489L155.468 65.3125C155.553 64.9148 155.721 64.571 155.971 64.2812C156.221 63.9886 156.543 63.7642 156.938 63.608C157.336 63.4489 157.796 63.3693 158.319 63.3693C158.683 63.3693 159.031 63.4119 159.363 63.4972C159.698 63.5824 159.995 63.7145 160.254 63.8935C160.515 64.0724 160.721 64.3026 160.871 64.5838C161.022 64.8622 161.097 65.196 161.097 65.5852V70H159.376V69.0923H159.325C159.219 69.2969 159.079 69.4773 158.903 69.6335C158.727 69.7869 158.515 69.9077 158.268 69.9957C158.021 70.081 157.735 70.1236 157.411 70.1236ZM157.931 68.8707C158.198 68.8707 158.434 68.8182 158.638 68.7131C158.843 68.6051 159.004 68.4602 159.12 68.2784C159.237 68.0966 159.295 67.8906 159.295 67.6605V66.9659C159.238 67.0028 159.16 67.0369 159.06 67.0682C158.964 67.0966 158.854 67.1236 158.732 67.1491C158.61 67.1719 158.488 67.1932 158.366 67.2131C158.244 67.2301 158.133 67.2457 158.033 67.2599C157.82 67.2912 157.634 67.3409 157.475 67.4091C157.316 67.4773 157.192 67.5696 157.104 67.6861C157.016 67.7997 156.972 67.9418 156.972 68.1122C156.972 68.3594 157.062 68.5483 157.241 68.679C157.423 68.8068 157.653 68.8707 157.931 68.8707ZM162.506 70V63.4545H164.266V64.5966H164.334C164.453 64.1903 164.653 63.8835 164.935 63.6761C165.216 63.4659 165.54 63.3608 165.906 63.3608C165.997 63.3608 166.095 63.3665 166.2 63.3778C166.305 63.3892 166.398 63.4048 166.477 63.4247V65.0355C166.392 65.0099 166.274 64.9872 166.124 64.9673C165.973 64.9474 165.835 64.9375 165.71 64.9375C165.443 64.9375 165.205 64.9957 164.994 65.1122C164.787 65.2259 164.622 65.3849 164.5 65.5895C164.381 65.794 164.321 66.0298 164.321 66.2969V70H162.506ZM169.231 66.2159V70H167.416V63.4545H169.146V64.6094H169.223C169.368 64.2287 169.61 63.9276 169.951 63.706C170.292 63.4815 170.706 63.3693 171.191 63.3693C171.646 63.3693 172.042 63.4688 172.38 63.6676C172.718 63.8665 172.981 64.1506 173.169 64.5199C173.356 64.8864 173.45 65.3239 173.45 65.8324V70H171.635V66.1562C171.637 65.7557 171.535 65.4432 171.328 65.2188C171.12 64.9915 170.835 64.8778 170.471 64.8778C170.227 64.8778 170.011 64.9304 169.824 65.0355C169.639 65.1406 169.494 65.294 169.389 65.4957C169.287 65.6946 169.234 65.9347 169.231 66.2159ZM174.881 70V63.4545H176.696V70H174.881ZM175.793 62.6108C175.523 62.6108 175.291 62.5213 175.098 62.3423C174.908 62.1605 174.812 61.9432 174.812 61.6903C174.812 61.4403 174.908 61.2259 175.098 61.0469C175.291 60.8651 175.523 60.7741 175.793 60.7741C176.063 60.7741 176.293 60.8651 176.483 61.0469C176.676 61.2259 176.773 61.4403 176.773 61.6903C176.773 61.9432 176.676 62.1605 176.483 62.3423C176.293 62.5213 176.063 62.6108 175.793 62.6108ZM179.966 66.2159V70H178.15V63.4545H179.88V64.6094H179.957C180.102 64.2287 180.345 63.9276 180.686 63.706C181.027 63.4815 181.44 63.3693 181.926 63.3693C182.38 63.3693 182.777 63.4688 183.115 63.6676C183.453 63.8665 183.716 64.1506 183.903 64.5199C184.091 64.8864 184.184 65.3239 184.184 65.8324V70H182.369V66.1562C182.372 65.7557 182.27 65.4432 182.062 65.2188C181.855 64.9915 181.569 64.8778 181.206 64.8778C180.961 64.8778 180.745 64.9304 180.558 65.0355C180.373 65.1406 180.228 65.294 180.123 65.4957C180.021 65.6946 179.968 65.9347 179.966 66.2159ZM188.564 72.5909C187.976 72.5909 187.472 72.5099 187.051 72.348C186.634 72.1889 186.301 71.9716 186.054 71.696C185.807 71.4205 185.646 71.1108 185.572 70.767L187.251 70.5412C187.303 70.6719 187.384 70.794 187.494 70.9077C187.605 71.0213 187.751 71.1122 187.933 71.1804C188.118 71.2514 188.342 71.2869 188.607 71.2869C189.001 71.2869 189.327 71.1903 189.582 70.9972C189.841 70.8068 189.97 70.4872 189.97 70.0384V68.8409H189.893C189.814 69.0227 189.695 69.1946 189.536 69.3565C189.376 69.5185 189.172 69.6506 188.922 69.7528C188.672 69.8551 188.374 69.9062 188.027 69.9062C187.536 69.9062 187.088 69.7926 186.685 69.5653C186.284 69.3352 185.964 68.9844 185.726 68.5128C185.49 68.0384 185.372 67.4389 185.372 66.7145C185.372 65.973 185.493 65.3537 185.734 64.8565C185.976 64.3594 186.297 63.9872 186.697 63.7401C187.101 63.4929 187.543 63.3693 188.023 63.3693C188.389 63.3693 188.696 63.4318 188.943 63.5568C189.19 63.679 189.389 63.8324 189.54 64.017C189.693 64.1989 189.811 64.3778 189.893 64.554H189.962V63.4545H191.764V70.0639C191.764 70.6207 191.628 71.0866 191.355 71.4616C191.082 71.8366 190.705 72.1179 190.222 72.3054C189.741 72.4957 189.189 72.5909 188.564 72.5909ZM188.602 68.5426C188.895 68.5426 189.142 68.4702 189.344 68.3253C189.548 68.1776 189.705 67.9673 189.812 67.6946C189.923 67.419 189.979 67.0895 189.979 66.706C189.979 66.3224 189.925 65.9901 189.817 65.7088C189.709 65.4247 189.553 65.2045 189.348 65.0483C189.143 64.892 188.895 64.8139 188.602 64.8139C188.304 64.8139 188.053 64.8949 187.848 65.0568C187.643 65.2159 187.489 65.4375 187.384 65.7216C187.278 66.0057 187.226 66.3338 187.226 66.706C187.226 67.0838 187.278 67.4105 187.384 67.6861C187.491 67.9588 187.646 68.1705 187.848 68.321C188.053 68.4687 188.304 68.5426 188.602 68.5426Z" fill="black"/>
<path d="M280.759 70V61.2727H284.202C284.864 61.2727 285.428 61.3991 285.893 61.652C286.359 61.902 286.714 62.25 286.959 62.696C287.206 63.1392 287.33 63.6506 287.33 64.2301C287.33 64.8097 287.205 65.321 286.955 65.7642C286.705 66.2074 286.342 66.5526 285.868 66.7997C285.396 67.0469 284.825 67.1705 284.155 67.1705H281.96V65.6918H283.857C284.212 65.6918 284.504 65.6307 284.734 65.5085C284.967 65.3835 285.141 65.2116 285.254 64.9929C285.371 64.7713 285.429 64.517 285.429 64.2301C285.429 63.9403 285.371 63.6875 285.254 63.4716C285.141 63.2528 284.967 63.0838 284.734 62.9645C284.501 62.8423 284.206 62.7812 283.848 62.7812H282.604V70H280.759ZM291.371 70.1278C290.698 70.1278 290.119 69.9915 289.633 69.7188C289.15 69.4432 288.778 69.054 288.516 68.5511C288.255 68.0455 288.124 67.4474 288.124 66.7571C288.124 66.0838 288.255 65.4929 288.516 64.9844C288.778 64.4759 289.146 64.0795 289.62 63.7955C290.097 63.5114 290.657 63.3693 291.299 63.3693C291.731 63.3693 292.133 63.4389 292.505 63.5781C292.88 63.7145 293.207 63.9205 293.485 64.196C293.766 64.4716 293.985 64.8182 294.141 65.2358C294.298 65.6506 294.376 66.1364 294.376 66.6932V67.1918H288.849V66.0668H292.667C292.667 65.8054 292.61 65.5739 292.496 65.3722C292.383 65.1705 292.225 65.0128 292.023 64.8991C291.825 64.7827 291.593 64.7244 291.329 64.7244C291.053 64.7244 290.809 64.7884 290.596 64.9162C290.386 65.0412 290.221 65.2102 290.102 65.4233C289.982 65.6335 289.921 65.8679 289.918 66.1264V67.196C289.918 67.5199 289.978 67.7997 290.097 68.0355C290.219 68.2713 290.391 68.4531 290.613 68.581C290.835 68.7088 291.097 68.7727 291.401 68.7727C291.603 68.7727 291.788 68.7443 291.955 68.6875C292.123 68.6307 292.266 68.5455 292.386 68.4318C292.505 68.3182 292.596 68.179 292.658 68.0142L294.337 68.125C294.252 68.5284 294.077 68.8807 293.813 69.1818C293.552 69.4801 293.214 69.7131 292.799 69.8807C292.387 70.0455 291.911 70.1278 291.371 70.1278ZM295.56 70V63.4545H297.32V64.5966H297.388C297.508 64.1903 297.708 63.8835 297.989 63.6761C298.271 63.4659 298.594 63.3608 298.961 63.3608C299.052 63.3608 299.15 63.3665 299.255 63.3778C299.36 63.3892 299.452 63.4048 299.532 63.4247V65.0355C299.447 65.0099 299.329 64.9872 299.178 64.9673C299.028 64.9474 298.89 64.9375 298.765 64.9375C298.498 64.9375 298.259 64.9957 298.049 65.1122C297.842 65.2259 297.677 65.3849 297.555 65.5895C297.435 65.794 297.376 66.0298 297.376 66.2969V70H295.56ZM304.319 63.4545V64.8182H300.279V63.4545H304.319ZM301.203 70V62.9815C301.203 62.5071 301.296 62.1136 301.48 61.8011C301.668 61.4886 301.924 61.2543 302.248 61.098C302.571 60.9418 302.939 60.8636 303.351 60.8636C303.63 60.8636 303.884 60.8849 304.114 60.9276C304.347 60.9702 304.52 61.0085 304.634 61.0426L304.31 62.4062C304.239 62.3835 304.151 62.3622 304.046 62.3423C303.944 62.3224 303.838 62.3125 303.73 62.3125C303.463 62.3125 303.277 62.375 303.172 62.5C303.067 62.6222 303.015 62.794 303.015 63.0156V70H301.203ZM308.151 70.1278C307.489 70.1278 306.916 69.9872 306.433 69.706C305.953 69.4219 305.582 69.027 305.321 68.5213C305.06 68.0128 304.929 67.4233 304.929 66.7528C304.929 66.0767 305.06 65.4858 305.321 64.9801C305.582 64.4716 305.953 64.0767 306.433 63.7955C306.916 63.5114 307.489 63.3693 308.151 63.3693C308.812 63.3693 309.384 63.5114 309.864 63.7955C310.347 64.0767 310.719 64.4716 310.98 64.9801C311.241 65.4858 311.372 66.0767 311.372 66.7528C311.372 67.4233 311.241 68.0128 310.98 68.5213C310.719 69.027 310.347 69.4219 309.864 69.706C309.384 69.9872 308.812 70.1278 308.151 70.1278ZM308.159 68.7216C308.46 68.7216 308.712 68.6364 308.913 68.4659C309.115 68.2926 309.267 68.0568 309.369 67.7585C309.474 67.4602 309.527 67.1207 309.527 66.7401C309.527 66.3594 309.474 66.0199 309.369 65.7216C309.267 65.4233 309.115 65.1875 308.913 65.0142C308.712 64.8409 308.46 64.7543 308.159 64.7543C307.855 64.7543 307.599 64.8409 307.392 65.0142C307.188 65.1875 307.033 65.4233 306.928 65.7216C306.825 66.0199 306.774 66.3594 306.774 66.7401C306.774 67.1207 306.825 67.4602 306.928 67.7585C307.033 68.0568 307.188 68.2926 307.392 68.4659C307.599 68.6364 307.855 68.7216 308.159 68.7216ZM312.553 70V63.4545H314.312V64.5966H314.381C314.5 64.1903 314.7 63.8835 314.982 63.6761C315.263 63.4659 315.587 63.3608 315.953 63.3608C316.044 63.3608 316.142 63.3665 316.247 63.3778C316.352 63.3892 316.445 63.4048 316.524 63.4247V65.0355C316.439 65.0099 316.321 64.9872 316.17 64.9673C316.02 64.9474 315.882 64.9375 315.757 64.9375C315.49 64.9375 315.251 64.9957 315.041 65.1122C314.834 65.2259 314.669 65.3849 314.547 65.5895C314.428 65.794 314.368 66.0298 314.368 66.2969V70H312.553ZM317.463 70V63.4545H319.193V64.6094H319.27C319.406 64.2259 319.633 63.9233 319.951 63.7017C320.27 63.4801 320.65 63.3693 321.093 63.3693C321.542 63.3693 321.924 63.4815 322.24 63.706C322.555 63.9276 322.765 64.2287 322.87 64.6094H322.939C323.072 64.2344 323.314 63.9347 323.663 63.7102C324.015 63.483 324.431 63.3693 324.912 63.3693C325.522 63.3693 326.018 63.5639 326.399 63.9531C326.782 64.3395 326.974 64.8878 326.974 65.598V70H325.163V65.956C325.163 65.5923 325.066 65.3196 324.873 65.1378C324.68 64.956 324.439 64.8651 324.149 64.8651C323.819 64.8651 323.562 64.9702 323.377 65.1804C323.193 65.3878 323.1 65.6619 323.1 66.0028V70H321.341V65.9176C321.341 65.5966 321.248 65.3409 321.064 65.1506C320.882 64.9602 320.642 64.8651 320.343 64.8651C320.142 64.8651 319.96 64.9162 319.798 65.0185C319.639 65.1179 319.512 65.2585 319.419 65.4403C319.325 65.6193 319.278 65.8295 319.278 66.071V70H317.463ZM330.275 70.1236C329.857 70.1236 329.485 70.0511 329.158 69.9062C328.831 69.7585 328.573 69.5412 328.382 69.2543C328.195 68.9645 328.101 68.6037 328.101 68.1719C328.101 67.8082 328.168 67.5028 328.301 67.2557C328.435 67.0085 328.617 66.8097 328.847 66.6591C329.077 66.5085 329.338 66.3949 329.631 66.3182C329.926 66.2415 330.236 66.1875 330.56 66.1562C330.941 66.1165 331.248 66.0795 331.48 66.0455C331.713 66.0085 331.882 65.9545 331.988 65.8835C332.093 65.8125 332.145 65.7074 332.145 65.5682V65.5426C332.145 65.2727 332.06 65.0639 331.89 64.9162C331.722 64.7685 331.483 64.6946 331.174 64.6946C330.847 64.6946 330.587 64.767 330.394 64.9119C330.201 65.054 330.073 65.233 330.01 65.4489L328.331 65.3125C328.417 64.9148 328.584 64.571 328.834 64.2812C329.084 63.9886 329.407 63.7642 329.801 63.608C330.199 63.4489 330.659 63.3693 331.182 63.3693C331.546 63.3693 331.894 63.4119 332.226 63.4972C332.561 63.5824 332.858 63.7145 333.117 63.8935C333.378 64.0724 333.584 64.3026 333.735 64.5838C333.885 64.8622 333.961 65.196 333.961 65.5852V70H332.239V69.0923H332.188C332.083 69.2969 331.942 69.4773 331.766 69.6335C331.59 69.7869 331.378 69.9077 331.131 69.9957C330.884 70.081 330.598 70.1236 330.275 70.1236ZM330.794 68.8707C331.061 68.8707 331.297 68.8182 331.502 68.7131C331.706 68.6051 331.867 68.4602 331.983 68.2784C332.1 68.0966 332.158 67.8906 332.158 67.6605V66.9659C332.101 67.0028 332.023 67.0369 331.924 67.0682C331.827 67.0966 331.718 67.1236 331.596 67.1491C331.473 67.1719 331.351 67.1932 331.229 67.2131C331.107 67.2301 330.996 67.2457 330.897 67.2599C330.684 67.2912 330.498 67.3409 330.338 67.4091C330.179 67.4773 330.056 67.5696 329.968 67.6861C329.88 67.7997 329.836 67.9418 329.836 68.1122C329.836 68.3594 329.925 68.5483 330.104 68.679C330.286 68.8068 330.516 68.8707 330.794 68.8707ZM338.85 63.4545V64.8182H334.909V63.4545H338.85ZM335.804 61.8864H337.619V67.9886C337.619 68.1562 337.645 68.2869 337.696 68.3807C337.747 68.4716 337.818 68.5355 337.909 68.5724C338.002 68.6094 338.11 68.6278 338.233 68.6278C338.318 68.6278 338.403 68.6207 338.488 68.6065C338.574 68.5895 338.639 68.5767 338.684 68.5682L338.97 69.919C338.879 69.9474 338.751 69.9801 338.586 70.017C338.422 70.0568 338.221 70.081 337.985 70.0895C337.548 70.1065 337.164 70.0483 336.835 69.9148C336.508 69.7812 336.254 69.5739 336.072 69.2926C335.89 69.0114 335.801 68.6562 335.804 68.2273V61.8864ZM340.033 70V63.4545H341.848V70H340.033ZM340.945 62.6108C340.675 62.6108 340.444 62.5213 340.25 62.3423C340.06 62.1605 339.965 61.9432 339.965 61.6903C339.965 61.4403 340.06 61.2259 340.25 61.0469C340.444 60.8651 340.675 60.7741 340.945 60.7741C341.215 60.7741 341.445 60.8651 341.635 61.0469C341.828 61.2259 341.925 61.4403 341.925 61.6903C341.925 61.9432 341.828 62.1605 341.635 62.3423C341.445 62.5213 341.215 62.6108 340.945 62.6108ZM349.405 63.4545L347.116 70H345.071L342.783 63.4545H344.7L346.06 68.1378H346.128L347.483 63.4545H349.405ZM353.106 70.1278C352.433 70.1278 351.853 69.9915 351.367 69.7188C350.884 69.4432 350.512 69.054 350.251 68.5511C349.989 68.0455 349.859 67.4474 349.859 66.7571C349.859 66.0838 349.989 65.4929 350.251 64.9844C350.512 64.4759 350.88 64.0795 351.354 63.7955C351.832 63.5114 352.391 63.3693 353.033 63.3693C353.465 63.3693 353.867 63.4389 354.239 63.5781C354.614 63.7145 354.941 63.9205 355.219 64.196C355.501 64.4716 355.719 64.8182 355.876 65.2358C356.032 65.6506 356.11 66.1364 356.11 66.6932V67.1918H350.583V66.0668H354.401C354.401 65.8054 354.344 65.5739 354.231 65.3722C354.117 65.1705 353.96 65.0128 353.758 64.8991C353.559 64.7827 353.327 64.7244 353.063 64.7244C352.788 64.7244 352.543 64.7884 352.33 64.9162C352.12 65.0412 351.955 65.2102 351.836 65.4233C351.717 65.6335 351.656 65.8679 351.653 66.1264V67.196C351.653 67.5199 351.712 67.7997 351.832 68.0355C351.954 68.2713 352.126 68.4531 352.347 68.581C352.569 68.7088 352.832 68.7727 353.136 68.7727C353.337 68.7727 353.522 68.7443 353.69 68.6875C353.857 68.6307 354.001 68.5455 354.12 68.4318C354.239 68.3182 354.33 68.179 354.393 68.0142L356.072 68.125C355.987 68.5284 355.812 68.8807 355.548 69.1818C355.286 69.4801 354.948 69.7131 354.533 69.8807C354.121 70.0455 353.646 70.1278 353.106 70.1278ZM360.106 70V61.2727H363.549C364.211 61.2727 364.775 61.3991 365.241 61.652C365.707 61.902 366.062 62.25 366.306 62.696C366.554 63.1392 366.677 63.6506 366.677 64.2301C366.677 64.8097 366.552 65.321 366.302 65.7642C366.052 66.2074 365.69 66.5526 365.216 66.7997C364.744 67.0469 364.173 67.1705 363.502 67.1705H361.308V65.6918H363.204C363.559 65.6918 363.852 65.6307 364.082 65.5085C364.315 65.3835 364.488 65.2116 364.602 64.9929C364.718 64.7713 364.777 64.517 364.777 64.2301C364.777 63.9403 364.718 63.6875 364.602 63.4716C364.488 63.2528 364.315 63.0838 364.082 62.9645C363.849 62.8423 363.554 62.7812 363.196 62.7812H361.951V70H360.106ZM367.842 70V63.4545H369.602V64.5966H369.67C369.789 64.1903 369.989 63.8835 370.271 63.6761C370.552 63.4659 370.876 63.3608 371.242 63.3608C371.333 63.3608 371.431 63.3665 371.536 63.3778C371.641 63.3892 371.734 63.4048 371.813 63.4247V65.0355C371.728 65.0099 371.61 64.9872 371.46 64.9673C371.309 64.9474 371.171 64.9375 371.046 64.9375C370.779 64.9375 370.54 64.9957 370.33 65.1122C370.123 65.2259 369.958 65.3849 369.836 65.5895C369.717 65.794 369.657 66.0298 369.657 66.2969V70H367.842ZM375.43 70.1278C374.757 70.1278 374.177 69.9915 373.691 69.7188C373.208 69.4432 372.836 69.054 372.575 68.5511C372.314 68.0455 372.183 67.4474 372.183 66.7571C372.183 66.0838 372.314 65.4929 372.575 64.9844C372.836 64.4759 373.204 64.0795 373.679 63.7955C374.156 63.5114 374.716 63.3693 375.358 63.3693C375.789 63.3693 376.191 63.4389 376.564 63.5781C376.939 63.7145 377.265 63.9205 377.544 64.196C377.825 64.4716 378.044 64.8182 378.2 65.2358C378.356 65.6506 378.434 66.1364 378.434 66.6932V67.1918H372.907V66.0668H376.725C376.725 65.8054 376.669 65.5739 376.555 65.3722C376.441 65.1705 376.284 65.0128 376.082 64.8991C375.883 64.7827 375.652 64.7244 375.387 64.7244C375.112 64.7244 374.868 64.7884 374.654 64.9162C374.444 65.0412 374.279 65.2102 374.16 65.4233C374.041 65.6335 373.98 65.8679 373.977 66.1264V67.196C373.977 67.5199 374.037 67.7997 374.156 68.0355C374.278 68.2713 374.45 68.4531 374.672 68.581C374.893 68.7088 375.156 68.7727 375.46 68.7727C375.662 68.7727 375.846 68.7443 376.014 68.6875C376.181 68.6307 376.325 68.5455 376.444 68.4318C376.564 68.3182 376.654 68.179 376.717 68.0142L378.396 68.125C378.311 68.5284 378.136 68.8807 377.872 69.1818C377.61 69.4801 377.272 69.7131 376.858 69.8807C376.446 70.0455 375.97 70.1278 375.43 70.1278ZM382.031 70.1065C381.534 70.1065 381.083 69.9787 380.68 69.723C380.279 69.4645 379.961 69.0852 379.725 68.5852C379.493 68.0824 379.376 67.4659 379.376 66.7358C379.376 65.9858 379.497 65.3622 379.738 64.8651C379.98 64.3651 380.301 63.9915 380.701 63.7443C381.105 63.4943 381.547 63.3693 382.027 63.3693C382.393 63.3693 382.699 63.4318 382.943 63.5568C383.19 63.679 383.389 63.8324 383.539 64.017C383.693 64.1989 383.809 64.3778 383.889 64.554H383.944V61.2727H385.755V70H383.966V68.9517H383.889C383.804 69.1335 383.683 69.3139 383.527 69.4929C383.373 69.669 383.173 69.8153 382.926 69.9318C382.681 70.0483 382.383 70.1065 382.031 70.1065ZM382.606 68.6619C382.899 68.6619 383.146 68.5824 383.348 68.4233C383.552 68.2614 383.708 68.0355 383.816 67.7457C383.927 67.456 383.983 67.1165 383.983 66.7273C383.983 66.3381 383.929 66 383.821 65.7131C383.713 65.4261 383.556 65.2045 383.352 65.0483C383.147 64.892 382.899 64.8139 382.606 64.8139C382.308 64.8139 382.056 64.8949 381.852 65.0568C381.647 65.2187 381.493 65.4432 381.387 65.7301C381.282 66.017 381.23 66.3494 381.23 66.7273C381.23 67.108 381.282 67.4446 381.387 67.7372C381.495 68.027 381.65 68.2543 381.852 68.419C382.056 68.581 382.308 68.6619 382.606 68.6619ZM387.248 70V63.4545H389.063V70H387.248ZM388.16 62.6108C387.89 62.6108 387.658 62.5213 387.465 62.3423C387.275 62.1605 387.18 61.9432 387.18 61.6903C387.18 61.4403 387.275 61.2259 387.465 61.0469C387.658 60.8651 387.89 60.7741 388.16 60.7741C388.43 60.7741 388.66 60.8651 388.85 61.0469C389.043 61.2259 389.14 61.4403 389.14 61.6903C389.14 61.9432 389.043 62.1605 388.85 62.3423C388.66 62.5213 388.43 62.6108 388.16 62.6108ZM393.475 70.1278C392.804 70.1278 392.228 69.9858 391.745 69.7017C391.265 69.4148 390.895 69.017 390.637 68.5085C390.381 68 390.253 67.4148 390.253 66.7528C390.253 66.0824 390.382 65.4943 390.641 64.9886C390.902 64.4801 391.273 64.0838 391.753 63.7997C392.233 63.5128 392.804 63.3693 393.466 63.3693C394.037 63.3693 394.537 63.473 394.966 63.6804C395.395 63.8878 395.735 64.179 395.985 64.554C396.235 64.929 396.373 65.3693 396.398 65.875H394.685C394.637 65.5483 394.509 65.2855 394.301 65.0866C394.097 64.8849 393.828 64.7841 393.496 64.7841C393.215 64.7841 392.969 64.8608 392.759 65.0142C392.551 65.1648 392.39 65.3849 392.273 65.6747C392.157 65.9645 392.098 66.3153 392.098 66.7273C392.098 67.1449 392.155 67.5 392.269 67.7926C392.385 68.0852 392.549 68.3082 392.759 68.4616C392.969 68.6151 393.215 68.6918 393.496 68.6918C393.703 68.6918 393.89 68.6491 394.054 68.5639C394.222 68.4787 394.36 68.3551 394.468 68.1932C394.578 68.0284 394.651 67.831 394.685 67.6009H396.398C396.37 68.1009 396.233 68.5412 395.989 68.9219C395.748 69.2997 395.414 69.5952 394.988 69.8082C394.561 70.0213 394.057 70.1278 393.475 70.1278ZM401.042 63.4545V64.8182H397.1V63.4545H401.042ZM397.995 61.8864H399.81V67.9886C399.81 68.1562 399.836 68.2869 399.887 68.3807C399.938 68.4716 400.009 68.5355 400.1 68.5724C400.194 68.6094 400.302 68.6278 400.424 68.6278C400.509 68.6278 400.594 68.6207 400.68 68.6065C400.765 68.5895 400.83 68.5767 400.876 68.5682L401.161 69.919C401.07 69.9474 400.942 69.9801 400.778 70.017C400.613 70.0568 400.413 70.081 400.177 70.0895C399.739 70.1065 399.356 70.0483 399.026 69.9148C398.7 69.7812 398.445 69.5739 398.263 69.2926C398.082 69.0114 397.992 68.6562 397.995 68.2273V61.8864ZM402.224 70V63.4545H404.04V70H402.224ZM403.136 62.6108C402.866 62.6108 402.635 62.5213 402.442 62.3423C402.251 62.1605 402.156 61.9432 402.156 61.6903C402.156 61.4403 402.251 61.2259 402.442 61.0469C402.635 60.8651 402.866 60.7741 403.136 60.7741C403.406 60.7741 403.636 60.8651 403.827 61.0469C404.02 61.2259 404.116 61.4403 404.116 61.6903C404.116 61.9432 404.02 62.1605 403.827 62.3423C403.636 62.5213 403.406 62.6108 403.136 62.6108ZM408.451 70.1278C407.789 70.1278 407.217 69.9872 406.734 69.706C406.254 69.4219 405.883 69.027 405.622 68.5213C405.36 68.0128 405.23 67.4233 405.23 66.7528C405.23 66.0767 405.36 65.4858 405.622 64.9801C405.883 64.4716 406.254 64.0767 406.734 63.7955C407.217 63.5114 407.789 63.3693 408.451 63.3693C409.113 63.3693 409.684 63.5114 410.164 63.7955C410.647 64.0767 411.02 64.4716 411.281 64.9801C411.542 65.4858 411.673 66.0767 411.673 66.7528C411.673 67.4233 411.542 68.0128 411.281 68.5213C411.02 69.027 410.647 69.4219 410.164 69.706C409.684 69.9872 409.113 70.1278 408.451 70.1278ZM408.46 68.7216C408.761 68.7216 409.012 68.6364 409.214 68.4659C409.416 68.2926 409.568 68.0568 409.67 67.7585C409.775 67.4602 409.828 67.1207 409.828 66.7401C409.828 66.3594 409.775 66.0199 409.67 65.7216C409.568 65.4233 409.416 65.1875 409.214 65.0142C409.012 64.8409 408.761 64.7543 408.46 64.7543C408.156 64.7543 407.9 64.8409 407.693 65.0142C407.488 65.1875 407.333 65.4233 407.228 65.7216C407.126 66.0199 407.075 66.3594 407.075 66.7401C407.075 67.1207 407.126 67.4602 407.228 67.7585C407.333 68.0568 407.488 68.2926 407.693 68.4659C407.9 68.6364 408.156 68.7216 408.46 68.7216ZM414.669 66.2159V70H412.853V63.4545H414.583V64.6094H414.66C414.805 64.2287 415.048 63.9276 415.389 63.706C415.73 63.4815 416.143 63.3693 416.629 63.3693C417.083 63.3693 417.48 63.4688 417.818 63.6676C418.156 63.8665 418.419 64.1506 418.606 64.5199C418.794 64.8864 418.887 65.3239 418.887 65.8324V70H417.072V66.1562C417.075 65.7557 416.973 65.4432 416.765 65.2188C416.558 64.9915 416.272 64.8778 415.909 64.8778C415.664 64.8778 415.449 64.9304 415.261 65.0355C415.076 65.1406 414.931 65.294 414.826 65.4957C414.724 65.6946 414.672 65.9347 414.669 66.2159Z" fill="black"/>
</svg>
