<svg width="453" height="65" viewBox="0 0 453 65" fill="none" xmlns="http://www.w3.org/2000/svg">
<rect width="453" height="65" fill="white"/>
<path d="M141.445 30.3089C141.965 30.1229 142.236 29.5506 142.05 29.0305L139.019 20.5562C138.833 20.0362 138.261 19.7654 137.741 19.9514C137.221 20.1373 136.95 20.7097 137.136 21.2297L139.83 28.7625L132.297 31.4565C131.777 31.6425 131.507 32.2148 131.693 32.7348C131.879 33.2548 132.451 33.5256 132.971 33.3397L141.445 30.3089ZM73.1101 29.8245L73.5499 30.7226L85.8219 24.7129L85.3821 23.8148L84.9423 22.9167L72.6702 28.9264L73.1101 29.8245ZM128.757 23.5231L128.329 24.4271L140.681 30.2712L141.109 29.3673L141.536 28.4634L129.184 22.6192L128.757 23.5231ZM85.3821 23.8148L85.8219 24.7129C99.2098 18.1567 114.854 18.0515 128.329 24.4271L128.757 23.5231L129.184 22.6192C115.16 15.9834 98.8767 16.0929 84.9423 22.9167L85.3821 23.8148Z" fill="black"/>
<rect x="5" y="12" width="67" height="45" rx="10" fill="#D9D9D9"/>
<path d="M24.642 30L22.2557 21.2727H23.3295L25.1534 28.3807H25.2386L27.0966 21.2727H28.2898L30.1477 28.3807H30.233L32.0568 21.2727H33.1307L30.7443 30H29.6534L27.7273 23.0455H27.6591L25.733 30H24.642ZM36.3608 30.1364C35.7699 30.1364 35.2514 29.9957 34.8054 29.7145C34.3622 29.4332 34.0156 29.0398 33.7656 28.5341C33.5185 28.0284 33.3949 27.4375 33.3949 26.7614C33.3949 26.0795 33.5185 25.4844 33.7656 24.9759C34.0156 24.4673 34.3622 24.0724 34.8054 23.7912C35.2514 23.5099 35.7699 23.3693 36.3608 23.3693C36.9517 23.3693 37.4688 23.5099 37.9119 23.7912C38.358 24.0724 38.7045 24.4673 38.9517 24.9759C39.2017 25.4844 39.3267 26.0795 39.3267 26.7614C39.3267 27.4375 39.2017 28.0284 38.9517 28.5341C38.7045 29.0398 38.358 29.4332 37.9119 29.7145C37.4688 29.9957 36.9517 30.1364 36.3608 30.1364ZM36.3608 29.233C36.8097 29.233 37.179 29.1179 37.4688 28.8878C37.7585 28.6577 37.973 28.3551 38.1122 27.9801C38.2514 27.6051 38.321 27.1989 38.321 26.7614C38.321 26.3239 38.2514 25.9162 38.1122 25.5384C37.973 25.1605 37.7585 24.8551 37.4688 24.6222C37.179 24.3892 36.8097 24.2727 36.3608 24.2727C35.9119 24.2727 35.5426 24.3892 35.2528 24.6222C34.9631 24.8551 34.7486 25.1605 34.6094 25.5384C34.4702 25.9162 34.4006 26.3239 34.4006 26.7614C34.4006 27.1989 34.4702 27.6051 34.6094 27.9801C34.7486 28.3551 34.9631 28.6577 35.2528 28.8878C35.5426 29.1179 35.9119 29.233 36.3608 29.233ZM40.8619 30V23.4545H41.8335V24.4432H41.9016C42.021 24.1193 42.2369 23.8565 42.5494 23.6548C42.8619 23.4531 43.2141 23.3523 43.6062 23.3523C43.68 23.3523 43.7724 23.3537 43.8832 23.3565C43.994 23.3594 44.0778 23.3636 44.1346 23.3693V24.392C44.1005 24.3835 44.0224 24.3707 43.9002 24.3537C43.7809 24.3338 43.6545 24.3239 43.521 24.3239C43.2028 24.3239 42.9187 24.3906 42.6687 24.5241C42.4215 24.6548 42.2255 24.8366 42.0806 25.0696C41.9386 25.2997 41.8675 25.5625 41.8675 25.858V30H40.8619ZM46.3324 21.2727V30H45.3267V21.2727H46.3324ZM50.646 30.1364C50.1005 30.1364 49.619 29.9986 49.2013 29.723C48.7837 29.4446 48.457 29.0526 48.2212 28.5469C47.9854 28.0384 47.8675 27.4375 47.8675 26.7443C47.8675 26.0568 47.9854 25.4602 48.2212 24.9545C48.457 24.4489 48.7852 24.0582 49.2056 23.7827C49.6261 23.5071 50.1119 23.3693 50.663 23.3693C51.0891 23.3693 51.4258 23.4403 51.6729 23.5824C51.9229 23.7216 52.1133 23.8807 52.244 24.0597C52.3775 24.2358 52.4812 24.3807 52.555 24.4943H52.6403V21.2727H53.646V30H52.6744V28.9943H52.555C52.4812 29.1136 52.3761 29.2642 52.2397 29.446C52.1033 29.625 51.9087 29.7855 51.6559 29.9276C51.4031 30.0668 51.0664 30.1364 50.646 30.1364ZM50.7823 29.233C51.1857 29.233 51.5266 29.1278 51.805 28.9176C52.0835 28.7045 52.2951 28.4105 52.44 28.0355C52.5849 27.6577 52.6573 27.2216 52.6573 26.7273C52.6573 26.2386 52.5863 25.8111 52.4442 25.4446C52.3022 25.0753 52.092 24.7884 51.8136 24.5838C51.5352 24.3764 51.1914 24.2727 50.7823 24.2727C50.3562 24.2727 50.0011 24.3821 49.717 24.6009C49.4357 24.8168 49.2241 25.1108 49.082 25.483C48.9428 25.8523 48.8732 26.267 48.8732 26.7273C48.8732 27.1932 48.9442 27.6165 49.0863 27.9972C49.2312 28.375 49.4442 28.6761 49.7255 28.9006C50.0096 29.1222 50.3619 29.233 50.7823 29.233Z" fill="black"/>
<path d="M35.2963 50.3025C39.4932 50.3025 45.4193 47.0963 45.4193 42.1789C45.4193 40.5758 44.6628 39.5671 43.7801 39.0087C42.2311 38 40.5739 38 38.8627 38C37.3137 38 36.2509 38 34.7379 38.6484C32.3422 39.7112 32 41.2062 32 41.3503C32 41.4584 32.072 41.4944 32.1801 41.4944C32.4683 41.4944 32.8826 41.2422 33.0267 41.1522C33.405 40.9 33.459 40.7919 33.5671 40.4497C33.8193 39.7292 34.3236 39.0988 36.5932 38.9907C36.305 42.7553 35.3863 46.1957 34.1255 49.3478C33.459 49.582 33.0267 49.9963 33.0267 50.1764C33.0267 50.2845 33.0447 50.3025 33.441 50.3025H35.2963ZM35.3863 49.3118C37.4398 44.2863 37.818 41.1522 38.0702 38.9907C39.277 38.9907 43.8882 38.9907 43.8882 42.9534C43.8882 46.4839 40.718 49.3118 36.359 49.3118H35.3863Z" fill="black"/>
<rect x="142" y="12" width="67" height="45" rx="10" fill="#D9D9D9"/>
<path d="M160.057 21.2727H161.318L164.284 28.517H164.386L167.352 21.2727H168.614V30H167.625V23.3693H167.54L164.812 30H163.858L161.131 23.3693H161.045V30H160.057V21.2727ZM173.255 30.1364C172.664 30.1364 172.146 29.9957 171.7 29.7145C171.257 29.4332 170.91 29.0398 170.66 28.5341C170.413 28.0284 170.289 27.4375 170.289 26.7614C170.289 26.0795 170.413 25.4844 170.66 24.9759C170.91 24.4673 171.257 24.0724 171.7 23.7912C172.146 23.5099 172.664 23.3693 173.255 23.3693C173.846 23.3693 174.363 23.5099 174.806 23.7912C175.252 24.0724 175.599 24.4673 175.846 24.9759C176.096 25.4844 176.221 26.0795 176.221 26.7614C176.221 27.4375 176.096 28.0284 175.846 28.5341C175.599 29.0398 175.252 29.4332 174.806 29.7145C174.363 29.9957 173.846 30.1364 173.255 30.1364ZM173.255 29.233C173.704 29.233 174.074 29.1179 174.363 28.8878C174.653 28.6577 174.868 28.3551 175.007 27.9801C175.146 27.6051 175.216 27.1989 175.216 26.7614C175.216 26.3239 175.146 25.9162 175.007 25.5384C174.868 25.1605 174.653 24.8551 174.363 24.6222C174.074 24.3892 173.704 24.2727 173.255 24.2727C172.806 24.2727 172.437 24.3892 172.147 24.6222C171.858 24.8551 171.643 25.1605 171.504 25.5384C171.365 25.9162 171.295 26.3239 171.295 26.7614C171.295 27.1989 171.365 27.6051 171.504 27.9801C171.643 28.3551 171.858 28.6577 172.147 28.8878C172.437 29.1179 172.806 29.233 173.255 29.233ZM180.228 30.1364C179.683 30.1364 179.201 29.9986 178.783 29.723C178.366 29.4446 178.039 29.0526 177.803 28.5469C177.567 28.0384 177.45 27.4375 177.45 26.7443C177.45 26.0568 177.567 25.4602 177.803 24.9545C178.039 24.4489 178.367 24.0582 178.788 23.7827C179.208 23.5071 179.694 23.3693 180.245 23.3693C180.671 23.3693 181.008 23.4403 181.255 23.5824C181.505 23.7216 181.695 23.8807 181.826 24.0597C181.96 24.2358 182.063 24.3807 182.137 24.4943H182.222V21.2727H183.228V30H182.256V28.9943H182.137C182.063 29.1136 181.958 29.2642 181.822 29.446C181.685 29.625 181.491 29.7855 181.238 29.9276C180.985 30.0668 180.648 30.1364 180.228 30.1364ZM180.364 29.233C180.768 29.233 181.109 29.1278 181.387 28.9176C181.665 28.7045 181.877 28.4105 182.022 28.0355C182.167 27.6577 182.239 27.2216 182.239 26.7273C182.239 26.2386 182.168 25.8111 182.026 25.4446C181.884 25.0753 181.674 24.7884 181.396 24.5838C181.117 24.3764 180.773 24.2727 180.364 24.2727C179.938 24.2727 179.583 24.3821 179.299 24.6009C179.018 24.8168 178.806 25.1108 178.664 25.483C178.525 25.8523 178.455 26.267 178.455 26.7273C178.455 27.1932 178.526 27.6165 178.668 27.9972C178.813 28.375 179.026 28.6761 179.308 28.9006C179.592 29.1222 179.944 29.233 180.364 29.233ZM187.954 30.1364C187.323 30.1364 186.779 29.9972 186.322 29.7188C185.867 29.4375 185.516 29.0455 185.269 28.5426C185.025 28.0369 184.903 27.4489 184.903 26.7784C184.903 26.108 185.025 25.517 185.269 25.0057C185.516 24.4915 185.86 24.0909 186.3 23.804C186.744 23.5142 187.261 23.3693 187.852 23.3693C188.192 23.3693 188.529 23.4261 188.862 23.5398C189.194 23.6534 189.496 23.8381 189.769 24.0938C190.042 24.3466 190.259 24.6818 190.421 25.0994C190.583 25.517 190.664 26.0312 190.664 26.642V27.0682H185.619V26.1989H189.641C189.641 25.8295 189.567 25.5 189.42 25.2102C189.275 24.9205 189.067 24.6918 188.798 24.5241C188.531 24.3565 188.215 24.2727 187.852 24.2727C187.451 24.2727 187.104 24.3722 186.812 24.571C186.522 24.767 186.299 25.0227 186.143 25.3381C185.987 25.6534 185.908 25.9915 185.908 26.3523V26.9318C185.908 27.4261 185.994 27.8452 186.164 28.1889C186.337 28.5298 186.577 28.7898 186.884 28.9688C187.191 29.1449 187.548 29.233 187.954 29.233C188.218 29.233 188.457 29.196 188.67 29.1222C188.886 29.0455 189.072 28.9318 189.228 28.7812C189.384 28.6278 189.505 28.4375 189.59 28.2102L190.562 28.483C190.46 28.8125 190.288 29.1023 190.046 29.3523C189.805 29.5994 189.506 29.7926 189.151 29.9318C188.796 30.0682 188.397 30.1364 187.954 30.1364ZM193.2 21.2727V30H192.194V21.2727H193.2Z" fill="black"/>
<path d="M179.259 38.6205C179.259 36.7832 178.683 35 177.206 35C174.684 35 172 40.2776 172 44.2404C172 45.069 172.18 47.8609 174.071 47.8609C176.521 47.8609 179.259 42.7093 179.259 38.6205ZM173.801 41.1603C174.071 40.0975 174.45 38.5845 175.17 37.3056C175.765 36.2248 176.395 35.3602 177.188 35.3602C177.782 35.3602 178.178 35.8646 178.178 37.5938C178.178 38.2422 178.124 39.1429 177.602 41.1603H173.801ZM177.476 41.7006C177.025 43.4659 176.647 44.6006 175.999 45.7354C175.476 46.6541 174.846 47.5006 174.089 47.5006C173.531 47.5006 173.081 47.0683 173.081 45.2851C173.081 44.1143 173.369 42.8895 173.657 41.7006H177.476Z" fill="black"/>
<rect x="247" y="12" width="67" height="45" rx="10" fill="#D9D9D9"/>
<path d="M266.642 30L264.256 21.2727H265.33L267.153 28.3807H267.239L269.097 21.2727H270.29L272.148 28.3807H272.233L274.057 21.2727H275.131L272.744 30H271.653L269.727 23.0455H269.659L267.733 30H266.642ZM278.361 30.1364C277.77 30.1364 277.251 29.9957 276.805 29.7145C276.362 29.4332 276.016 29.0398 275.766 28.5341C275.518 28.0284 275.395 27.4375 275.395 26.7614C275.395 26.0795 275.518 25.4844 275.766 24.9759C276.016 24.4673 276.362 24.0724 276.805 23.7912C277.251 23.5099 277.77 23.3693 278.361 23.3693C278.952 23.3693 279.469 23.5099 279.912 23.7912C280.358 24.0724 280.705 24.4673 280.952 24.9759C281.202 25.4844 281.327 26.0795 281.327 26.7614C281.327 27.4375 281.202 28.0284 280.952 28.5341C280.705 29.0398 280.358 29.4332 279.912 29.7145C279.469 29.9957 278.952 30.1364 278.361 30.1364ZM278.361 29.233C278.81 29.233 279.179 29.1179 279.469 28.8878C279.759 28.6577 279.973 28.3551 280.112 27.9801C280.251 27.6051 280.321 27.1989 280.321 26.7614C280.321 26.3239 280.251 25.9162 280.112 25.5384C279.973 25.1605 279.759 24.8551 279.469 24.6222C279.179 24.3892 278.81 24.2727 278.361 24.2727C277.912 24.2727 277.543 24.3892 277.253 24.6222C276.963 24.8551 276.749 25.1605 276.609 25.5384C276.47 25.9162 276.401 26.3239 276.401 26.7614C276.401 27.1989 276.47 27.6051 276.609 27.9801C276.749 28.3551 276.963 28.6577 277.253 28.8878C277.543 29.1179 277.912 29.233 278.361 29.233ZM282.862 30V23.4545H283.833V24.4432H283.902C284.021 24.1193 284.237 23.8565 284.549 23.6548C284.862 23.4531 285.214 23.3523 285.606 23.3523C285.68 23.3523 285.772 23.3537 285.883 23.3565C285.994 23.3594 286.078 23.3636 286.135 23.3693V24.392C286.1 24.3835 286.022 24.3707 285.9 24.3537C285.781 24.3338 285.654 24.3239 285.521 24.3239C285.203 24.3239 284.919 24.3906 284.669 24.5241C284.422 24.6548 284.225 24.8366 284.081 25.0696C283.939 25.2997 283.868 25.5625 283.868 25.858V30H282.862ZM288.332 21.2727V30H287.327V21.2727H288.332ZM292.646 30.1364C292.1 30.1364 291.619 29.9986 291.201 29.723C290.784 29.4446 290.457 29.0526 290.221 28.5469C289.985 28.0384 289.868 27.4375 289.868 26.7443C289.868 26.0568 289.985 25.4602 290.221 24.9545C290.457 24.4489 290.785 24.0582 291.206 23.7827C291.626 23.5071 292.112 23.3693 292.663 23.3693C293.089 23.3693 293.426 23.4403 293.673 23.5824C293.923 23.7216 294.113 23.8807 294.244 24.0597C294.377 24.2358 294.481 24.3807 294.555 24.4943H294.64V21.2727H295.646V30H294.674V28.9943H294.555C294.481 29.1136 294.376 29.2642 294.24 29.446C294.103 29.625 293.909 29.7855 293.656 29.9276C293.403 30.0668 293.066 30.1364 292.646 30.1364ZM292.782 29.233C293.186 29.233 293.527 29.1278 293.805 28.9176C294.083 28.7045 294.295 28.4105 294.44 28.0355C294.585 27.6577 294.657 27.2216 294.657 26.7273C294.657 26.2386 294.586 25.8111 294.444 25.4446C294.302 25.0753 294.092 24.7884 293.814 24.5838C293.535 24.3764 293.191 24.2727 292.782 24.2727C292.356 24.2727 292.001 24.3821 291.717 24.6009C291.436 24.8168 291.224 25.1108 291.082 25.483C290.943 25.8523 290.873 26.267 290.873 26.7273C290.873 27.1932 290.944 27.6165 291.086 27.9972C291.231 28.375 291.444 28.6761 291.725 28.9006C292.01 29.1222 292.362 29.233 292.782 29.233Z" fill="black"/>
<path d="M266.296 49.5093C270.493 49.5093 276.419 46.3031 276.419 41.3857C276.419 39.7826 275.663 38.7739 274.78 38.2155C273.231 37.2068 271.574 37.2068 269.863 37.2068C268.314 37.2068 267.251 37.2068 265.738 37.8552C263.342 38.918 263 40.413 263 40.5571C263 40.6652 263.072 40.7012 263.18 40.7012C263.468 40.7012 263.883 40.449 264.027 40.359C264.405 40.1068 264.459 39.9987 264.567 39.6565C264.819 38.936 265.324 38.3055 267.593 38.1975C267.305 41.9621 266.386 45.4025 265.125 48.5546C264.459 48.7888 264.027 49.2031 264.027 49.3832C264.027 49.4913 264.045 49.5093 264.441 49.5093H266.296ZM266.386 48.5186C268.44 43.4931 268.818 40.359 269.07 38.1975C270.277 38.1975 274.888 38.1975 274.888 42.1602C274.888 45.6907 271.718 48.5186 267.359 48.5186H266.386Z" fill="black"/>
<path d="M282.871 53.8864C282.871 53.8323 282.871 53.7963 282.565 53.4901C280.763 51.6708 279.755 48.6988 279.755 45.0242C279.755 41.5298 280.601 38.5217 282.691 36.3963C282.871 36.2342 282.871 36.1981 282.871 36.1441C282.871 36.036 282.781 36 282.709 36C282.475 36 280.998 37.2969 280.115 39.0621C279.196 40.8814 278.782 42.8087 278.782 45.0242C278.782 46.6273 279.034 48.7708 279.971 50.6982C281.034 52.8597 282.511 54.0305 282.709 54.0305C282.781 54.0305 282.871 53.9944 282.871 53.8864Z" fill="black"/>
<path d="M291.855 40.4491C291.855 38.6118 291.279 36.8286 289.802 36.8286C287.28 36.8286 284.596 42.1063 284.596 46.069C284.596 46.8976 284.776 49.6895 286.668 49.6895C289.117 49.6895 291.855 44.5379 291.855 40.4491ZM286.397 42.9889C286.668 41.9261 287.046 40.4131 287.766 39.1342C288.361 38.0535 288.991 37.1889 289.784 37.1889C290.378 37.1889 290.774 37.6932 290.774 39.4224C290.774 40.0709 290.72 40.9715 290.198 42.9889H286.397ZM290.072 43.5292C289.622 45.2945 289.243 46.4293 288.595 47.564C288.073 48.4827 287.442 49.3293 286.686 49.3293C286.127 49.3293 285.677 48.897 285.677 47.1137C285.677 45.9429 285.965 44.7181 286.253 43.5292H290.072Z" fill="black"/>
<path d="M297.664 45.0242C297.664 43.6553 297.484 41.4217 296.475 39.3323C295.413 37.1708 293.936 36 293.737 36C293.665 36 293.575 36.036 293.575 36.1441C293.575 36.1981 293.575 36.2342 293.882 36.5404C295.683 38.3596 296.692 41.3317 296.692 45.0062C296.692 48.5006 295.845 51.5087 293.756 53.6342C293.575 53.7963 293.575 53.8323 293.575 53.8864C293.575 53.9944 293.665 54.0305 293.737 54.0305C293.972 54.0305 295.449 52.7336 296.331 50.9684C297.25 49.1311 297.664 47.1857 297.664 45.0242Z" fill="black"/>
<path d="M313.183 42.7655C312.972 42.2552 313.215 41.6703 313.725 41.4592L322.041 38.0188C322.552 37.8077 323.137 38.0503 323.348 38.5606C323.559 39.0709 323.316 39.6558 322.806 39.8669L315.413 42.925L318.472 50.3175C318.683 50.8278 318.44 51.4127 317.93 51.6238C317.419 51.8349 316.835 51.5923 316.623 51.082L313.183 42.7655ZM328.683 48.4285L328.3 49.3522L328.683 48.4285ZM314.107 42.3833L314.49 41.4595L329.066 47.5048L328.683 48.4285L328.3 49.3522L313.724 43.307L314.107 42.3833ZM367.612 48.1667L367.217 47.2482L381.71 41.0076L382.106 41.926L382.501 42.8445L368.008 49.0852L367.612 48.1667ZM328.683 48.4285L329.066 47.5048C341.295 52.5768 355.057 52.4843 367.217 47.2482L367.612 48.1667L368.008 49.0852C355.351 54.535 341.028 54.6313 328.3 49.3522L328.683 48.4285Z" fill="black"/>
<path d="M382.445 30.3089C382.965 30.1229 383.236 29.5506 383.05 29.0305L380.019 20.5562C379.833 20.0362 379.261 19.7654 378.741 19.9514C378.221 20.1373 377.95 20.7097 378.136 21.2297L380.83 28.7625L373.297 31.4565C372.777 31.6425 372.507 32.2148 372.693 32.7348C372.879 33.2548 373.451 33.5256 373.971 33.3397L382.445 30.3089ZM314.11 29.8245L314.55 30.7226L326.822 24.7129L326.382 23.8148L325.942 22.9167L313.67 28.9264L314.11 29.8245ZM369.757 23.5231L369.329 24.4271L381.681 30.2712L382.109 29.3673L382.536 28.4634L370.184 22.6192L369.757 23.5231ZM326.382 23.8148L326.822 24.7129C340.21 18.1567 355.854 18.0515 369.329 24.4271L369.757 23.5231L370.184 22.6192C356.16 15.9834 339.877 16.0929 325.942 22.9167L326.382 23.8148Z" fill="black"/>
<rect x="384" y="12" width="67" height="45" rx="10" fill="#D9D9D9"/>
<path d="M402.057 21.2727H403.318L406.284 28.517H406.386L409.352 21.2727H410.614V30H409.625V23.3693H409.54L406.812 30H405.858L403.131 23.3693H403.045V30H402.057V21.2727ZM415.255 30.1364C414.664 30.1364 414.146 29.9957 413.7 29.7145C413.257 29.4332 412.91 29.0398 412.66 28.5341C412.413 28.0284 412.289 27.4375 412.289 26.7614C412.289 26.0795 412.413 25.4844 412.66 24.9759C412.91 24.4673 413.257 24.0724 413.7 23.7912C414.146 23.5099 414.664 23.3693 415.255 23.3693C415.846 23.3693 416.363 23.5099 416.806 23.7912C417.252 24.0724 417.599 24.4673 417.846 24.9759C418.096 25.4844 418.221 26.0795 418.221 26.7614C418.221 27.4375 418.096 28.0284 417.846 28.5341C417.599 29.0398 417.252 29.4332 416.806 29.7145C416.363 29.9957 415.846 30.1364 415.255 30.1364ZM415.255 29.233C415.704 29.233 416.074 29.1179 416.363 28.8878C416.653 28.6577 416.868 28.3551 417.007 27.9801C417.146 27.6051 417.216 27.1989 417.216 26.7614C417.216 26.3239 417.146 25.9162 417.007 25.5384C416.868 25.1605 416.653 24.8551 416.363 24.6222C416.074 24.3892 415.704 24.2727 415.255 24.2727C414.806 24.2727 414.437 24.3892 414.147 24.6222C413.858 24.8551 413.643 25.1605 413.504 25.5384C413.365 25.9162 413.295 26.3239 413.295 26.7614C413.295 27.1989 413.365 27.6051 413.504 27.9801C413.643 28.3551 413.858 28.6577 414.147 28.8878C414.437 29.1179 414.806 29.233 415.255 29.233ZM422.228 30.1364C421.683 30.1364 421.201 29.9986 420.783 29.723C420.366 29.4446 420.039 29.0526 419.803 28.5469C419.567 28.0384 419.45 27.4375 419.45 26.7443C419.45 26.0568 419.567 25.4602 419.803 24.9545C420.039 24.4489 420.367 24.0582 420.788 23.7827C421.208 23.5071 421.694 23.3693 422.245 23.3693C422.671 23.3693 423.008 23.4403 423.255 23.5824C423.505 23.7216 423.695 23.8807 423.826 24.0597C423.96 24.2358 424.063 24.3807 424.137 24.4943H424.222V21.2727H425.228V30H424.256V28.9943H424.137C424.063 29.1136 423.958 29.2642 423.822 29.446C423.685 29.625 423.491 29.7855 423.238 29.9276C422.985 30.0668 422.648 30.1364 422.228 30.1364ZM422.364 29.233C422.768 29.233 423.109 29.1278 423.387 28.9176C423.665 28.7045 423.877 28.4105 424.022 28.0355C424.167 27.6577 424.239 27.2216 424.239 26.7273C424.239 26.2386 424.168 25.8111 424.026 25.4446C423.884 25.0753 423.674 24.7884 423.396 24.5838C423.117 24.3764 422.773 24.2727 422.364 24.2727C421.938 24.2727 421.583 24.3821 421.299 24.6009C421.018 24.8168 420.806 25.1108 420.664 25.483C420.525 25.8523 420.455 26.267 420.455 26.7273C420.455 27.1932 420.526 27.6165 420.668 27.9972C420.813 28.375 421.026 28.6761 421.308 28.9006C421.592 29.1222 421.944 29.233 422.364 29.233ZM429.954 30.1364C429.323 30.1364 428.779 29.9972 428.322 29.7188C427.867 29.4375 427.516 29.0455 427.269 28.5426C427.025 28.0369 426.903 27.4489 426.903 26.7784C426.903 26.108 427.025 25.517 427.269 25.0057C427.516 24.4915 427.86 24.0909 428.3 23.804C428.744 23.5142 429.261 23.3693 429.852 23.3693C430.192 23.3693 430.529 23.4261 430.862 23.5398C431.194 23.6534 431.496 23.8381 431.769 24.0938C432.042 24.3466 432.259 24.6818 432.421 25.0994C432.583 25.517 432.664 26.0312 432.664 26.642V27.0682H427.619V26.1989H431.641C431.641 25.8295 431.567 25.5 431.42 25.2102C431.275 24.9205 431.067 24.6918 430.798 24.5241C430.531 24.3565 430.215 24.2727 429.852 24.2727C429.451 24.2727 429.104 24.3722 428.812 24.571C428.522 24.767 428.299 25.0227 428.143 25.3381C427.987 25.6534 427.908 25.9915 427.908 26.3523V26.9318C427.908 27.4261 427.994 27.8452 428.164 28.1889C428.337 28.5298 428.577 28.7898 428.884 28.9688C429.191 29.1449 429.548 29.233 429.954 29.233C430.218 29.233 430.457 29.196 430.67 29.1222C430.886 29.0455 431.072 28.9318 431.228 28.7812C431.384 28.6278 431.505 28.4375 431.59 28.2102L432.562 28.483C432.46 28.8125 432.288 29.1023 432.046 29.3523C431.805 29.5994 431.506 29.7926 431.151 29.9318C430.796 30.0682 430.397 30.1364 429.954 30.1364ZM435.2 21.2727V30H434.194V21.2727H435.2Z" fill="black"/>
<path d="M421.259 38.6205C421.259 36.7832 420.683 35 419.206 35C416.684 35 414 40.2776 414 44.2404C414 45.069 414.18 47.8609 416.071 47.8609C418.521 47.8609 421.259 42.7093 421.259 38.6205ZM415.801 41.1603C416.071 40.0975 416.45 38.5845 417.17 37.3056C417.765 36.2248 418.395 35.3602 419.188 35.3602C419.782 35.3602 420.178 35.8646 420.178 37.5938C420.178 38.2422 420.124 39.1429 419.602 41.1603H415.801ZM419.476 41.7006C419.025 43.4659 418.647 44.6006 417.999 45.7354C417.476 46.6541 416.846 47.5006 416.089 47.5006C415.531 47.5006 415.081 47.0683 415.081 45.2851C415.081 44.1143 415.369 42.8895 415.657 41.7006H419.476Z" fill="black"/>
<path d="M227.273 33.4545L224.852 40H223.83L221.409 33.4545H222.5L224.307 38.6705H224.375L226.182 33.4545H227.273ZM233.237 34.9205L232.333 35.1761C232.276 35.0256 232.192 34.8793 232.082 34.7372C231.974 34.5923 231.826 34.473 231.638 34.3793C231.451 34.2855 231.211 34.2386 230.918 34.2386C230.518 34.2386 230.184 34.331 229.917 34.5156C229.653 34.6974 229.521 34.929 229.521 35.2102C229.521 35.4602 229.612 35.6577 229.793 35.8026C229.975 35.9474 230.259 36.0682 230.646 36.1648L231.617 36.4034C232.202 36.5455 232.638 36.7628 232.925 37.0554C233.212 37.3452 233.356 37.7187 233.356 38.1761C233.356 38.5511 233.248 38.8864 233.032 39.1818C232.819 39.4773 232.521 39.7102 232.137 39.8807C231.754 40.0511 231.308 40.1364 230.799 40.1364C230.131 40.1364 229.579 39.9915 229.141 39.7017C228.704 39.4119 228.427 38.9886 228.31 38.4318L229.265 38.1932C229.356 38.5455 229.528 38.8097 229.781 38.9858C230.036 39.1619 230.37 39.25 230.782 39.25C231.251 39.25 231.623 39.1506 231.898 38.9517C232.177 38.75 232.316 38.5085 232.316 38.2273C232.316 38 232.237 37.8097 232.077 37.6562C231.918 37.5 231.674 37.3835 231.344 37.3068L230.254 37.0511C229.654 36.9091 229.214 36.6889 228.933 36.3906C228.654 36.0895 228.515 35.7131 228.515 35.2614C228.515 34.892 228.619 34.5653 228.826 34.2812C229.036 33.9972 229.322 33.7741 229.683 33.6122C230.046 33.4503 230.458 33.3693 230.918 33.3693C231.566 33.3693 232.075 33.5114 232.444 33.7955C232.816 34.0795 233.08 34.4545 233.237 34.9205ZM235.603 40.0682C235.392 40.0682 235.212 39.9929 235.061 39.8423C234.911 39.6918 234.836 39.5114 234.836 39.3011C234.836 39.0909 234.911 38.9105 235.061 38.7599C235.212 38.6094 235.392 38.5341 235.603 38.5341C235.813 38.5341 235.993 38.6094 236.144 38.7599C236.294 38.9105 236.37 39.0909 236.37 39.3011C236.37 39.4403 236.334 39.5682 236.263 39.6847C236.195 39.8011 236.103 39.8949 235.986 39.9659C235.873 40.0341 235.745 40.0682 235.603 40.0682Z" fill="black"/>
</svg>
